<svg xmlns="http://www.w3.org/2000/svg" xmlns:xlink="http://www.w3.org/1999/xlink" width="1024" zoomAndPan="magnify" viewBox="0 0 768 576" height="768" preserveAspectRatio="xMidYMid meet" version="1.2"><defs><clipPath id="afd506b46e"><path d="M 496 558 L 529 558 L 529 575.851562 L 496 575.851562 Z M 496 558 "/></clipPath><clipPath id="5e76b98a1a"><path d="M 496 558 L 528 558 L 528 575.851562 L 496 575.851562 Z M 496 558 "/></clipPath><clipPath id="ba8501d5bf"><path d="M 585 560 L 617 560 L 617 575.851562 L 585 575.851562 Z M 585 560 "/></clipPath><clipPath id="aa21a8f0b9"><path d="M 694 541 L 730 541 L 730 575.851562 L 694 575.851562 Z M 694 541 "/></clipPath><clipPath id="369b6277d6"><path d="M 613 469.621094 L 631 469.621094 L 631 488 L 613 488 Z M 613 469.621094 "/></clipPath><clipPath id="9d86ddc890"><path d="M 667 473 L 693.515625 473 L 693.515625 500 L 667 500 Z M 667 473 "/></clipPath><clipPath id="b6a8daf2e3"><path d="M 596 530 L 614 530 L 614 547.621094 L 596 547.621094 Z M 596 530 "/></clipPath><clipPath id="97c0b71501"><path d="M 576.515625 512 L 589 512 L 589 525 L 576.515625 525 Z M 576.515625 512 "/></clipPath><filter x="0%" y="0%" width="100%" filterUnits="objectBoundingBox" id="bbdd41f68d" height="100%"><feColorMatrix values="0 0 0 0 1 0 0 0 0 1 0 0 0 0 1 0 0 0 1 0" type="matrix" in="SourceGraphic"/></filter><clipPath id="411f2682b8"><path d="M 0.0820312 45 L 235.679688 45 L 235.679688 215.851562 L 0.0820312 215.851562 Z M 0.0820312 45 "/></clipPath><clipPath id="7316786ca2"><path d="M 0.0820312 0.480469 L 177 0.480469 L 177 215.851562 L 0.0820312 215.851562 Z M 0.0820312 0.480469 "/></clipPath><clipPath id="6112943ba6"><path d="M 0.0820312 22 L 196 22 L 196 215.851562 L 0.0820312 215.851562 Z M 0.0820312 22 "/></clipPath><clipPath id="873def9944"><rect x="0" width="236" y="0" height="216"/></clipPath><clipPath id="6e857579de"><path d="M 230.398438 551.347656 L 354.476562 551.347656 L 354.476562 573.835938 L 230.398438 573.835938 Z M 230.398438 551.347656 "/></clipPath><clipPath id="a415ee4c58"><path d="M 369 551.347656 L 492.871094 551.347656 L 492.871094 573.835938 L 369 573.835938 Z M 369 551.347656 "/></clipPath><clipPath id="dbbc50aef8"><path d="M 343.109375 536 L 368 536 L 368 563 L 343.109375 563 Z M 343.109375 536 "/></clipPath><clipPath id="a2813c760a"><path d="M 358 554 L 371 554 L 371 569.949219 L 358 569.949219 Z M 358 554 "/></clipPath><clipPath id="2e7698955f"><path d="M 363 532.449219 L 384 532.449219 L 384 558 L 363 558 Z M 363 532.449219 "/></clipPath><clipPath id="ea6777d41d"><path d="M 0 358 L 2 358 L 2 359.25 L 0 359.25 Z M 0 358 "/></clipPath><clipPath id="725f0e09e8"><path d="M 0 0 L 308.25 0 L 308.25 341 L 0 341 Z M 0 0 "/></clipPath><clipPath id="54aaa71eaa"><path d="M 766 358 L 767.988281 358 L 767.988281 359.25 L 766 359.25 Z M 766 358 "/></clipPath><clipPath id="dfd458a323"><path d="M 459.996094 0 L 767.988281 0 L 767.988281 341 L 459.996094 341 Z M 459.996094 0 "/></clipPath></defs><g id="1579e0aab1"><rect x="0" width="768" y="0" height="576" style="fill:#ffffff;fill-opacity:1;stroke:none;"/><rect x="0" width="768" y="0" height="576" style="fill:#fcbfbc;fill-opacity:1;stroke:none;"/><path style=" stroke:none;fill-rule:nonzero;fill:#fcbfbc;fill-opacity:1;" d="M 514.132812 560.28125 L 521.546875 547.820312 C 524.390625 550.621094 531.339844 553.3125 531.765625 553.246094 C 532.195312 553.175781 527.710938 561.410156 525.710938 563.773438 C 514.472656 569.320312 513.179688 563.617188 514.132812 560.28125 Z M 514.132812 560.28125 "/><g clip-rule="nonzero" clip-path="url(#afd506b46e)"><path style=" stroke:none;fill-rule:nonzero;fill:#759df5;fill-opacity:1;" d="M 515.964844 558.542969 C 518.152344 559.082031 517.523438 560.242188 519.589844 561.753906 C 523.515625 564.617188 524.660156 558.007812 527.289062 559.667969 C 528.925781 560.707031 529.304688 567.101562 528.738281 570.738281 C 525.363281 571.769531 520.839844 572.96875 515.53125 574.0625 C 512.105469 574.765625 511.628906 575.28125 499.453125 575.28125 C 492.917969 575.28125 497.179688 566.476562 507.226562 565.625 C 507.871094 564.996094 508.484375 564.359375 509.050781 563.761719 L 509.210938 563.59375 C 509.59375 563.191406 509.957031 562.789062 510.3125 562.394531 C 510.859375 561.792969 511.378906 561.207031 511.882812 560.683594 C 513.296875 559.210938 514.589844 558.199219 515.964844 558.542969 Z M 515.964844 558.542969 "/></g><g clip-rule="nonzero" clip-path="url(#5e76b98a1a)"><path style=" stroke:none;fill-rule:evenodd;fill:#253036;fill-opacity:1;" d="M 513.792969 558.6875 C 514.507812 558.269531 515.25 558.070312 516.03125 558.265625 C 516.605469 558.40625 517.011719 558.59375 517.332031 558.832031 C 517.648438 559.066406 517.863281 559.339844 518.054688 559.625 C 518.109375 559.699219 518.160156 559.777344 518.210938 559.851562 C 518.539062 560.351562 518.90625 560.902344 519.757812 561.523438 C 520.6875 562.203125 521.40625 562.292969 522.003906 562.128906 C 522.628906 561.957031 523.175781 561.5 523.726562 560.960938 C 523.84375 560.84375 523.964844 560.71875 524.089844 560.59375 C 524.242188 560.441406 524.394531 560.285156 524.535156 560.148438 C 524.804688 559.890625 525.082031 559.640625 525.375 559.457031 C 525.671875 559.269531 525.992188 559.132812 526.347656 559.113281 C 526.707031 559.09375 527.070312 559.195312 527.441406 559.429688 C 527.574219 559.511719 527.613281 559.6875 527.527344 559.820312 C 527.445312 559.953125 527.269531 559.992188 527.136719 559.910156 C 526.851562 559.726562 526.601562 559.667969 526.378906 559.683594 C 526.152344 559.695312 525.925781 559.78125 525.679688 559.9375 C 525.4375 560.089844 525.191406 560.304688 524.929688 560.558594 C 524.785156 560.699219 524.648438 560.835938 524.507812 560.980469 C 524.386719 561.105469 524.261719 561.230469 524.125 561.363281 C 523.570312 561.910156 522.933594 562.464844 522.15625 562.675781 C 521.351562 562.894531 520.457031 562.738281 519.421875 561.984375 C 518.484375 561.296875 518.070312 560.667969 517.734375 560.164062 C 517.683594 560.089844 517.636719 560.015625 517.585938 559.945312 C 517.40625 559.679688 517.234375 559.46875 516.992188 559.289062 C 516.75 559.105469 516.414062 558.945312 515.894531 558.816406 C 515.304688 558.671875 514.710938 558.808594 514.082031 559.175781 C 513.554688 559.484375 513.015625 559.945312 512.445312 560.511719 C 512.796875 560.589844 513.292969 560.707031 513.792969 560.863281 C 514.230469 561 514.683594 561.164062 515.085938 561.367188 C 515.484375 561.570312 515.855469 561.820312 516.09375 562.128906 C 516.1875 562.253906 516.164062 562.429688 516.039062 562.527344 C 515.914062 562.621094 515.734375 562.597656 515.640625 562.472656 C 515.480469 562.265625 515.199219 562.0625 514.832031 561.875 C 514.46875 561.691406 514.042969 561.535156 513.625 561.40625 C 512.976562 561.207031 512.375 561.078125 512.039062 561.007812 C 512.015625 561.003906 511.996094 560.996094 511.976562 560.992188 C 511.621094 561.367188 511.257812 561.769531 510.882812 562.1875 C 510.941406 562.195312 511.003906 562.203125 511.070312 562.210938 C 511.421875 562.253906 511.863281 562.316406 512.316406 562.414062 C 512.765625 562.511719 513.238281 562.648438 513.652344 562.847656 C 514.0625 563.042969 514.441406 563.3125 514.671875 563.6875 C 514.75 563.824219 514.707031 563.996094 514.574219 564.078125 C 514.4375 564.160156 514.265625 564.117188 514.183594 563.980469 C 514.039062 563.738281 513.769531 563.53125 513.410156 563.359375 C 513.050781 563.1875 512.625 563.0625 512.195312 562.96875 C 511.765625 562.875 511.34375 562.816406 511 562.773438 C 510.914062 562.761719 510.832031 562.753906 510.757812 562.742188 L 510.734375 562.742188 C 510.667969 562.734375 510.605469 562.726562 510.550781 562.71875 C 510.503906 562.714844 510.460938 562.707031 510.417969 562.703125 C 510.136719 563.015625 509.84375 563.335938 509.546875 563.652344 C 509.648438 563.683594 509.769531 563.71875 509.902344 563.753906 C 509.976562 563.773438 510.050781 563.792969 510.128906 563.8125 C 510.410156 563.886719 510.730469 563.972656 511.046875 564.070312 C 511.453125 564.199219 511.875 564.359375 512.25 564.570312 C 512.621094 564.78125 512.960938 565.054688 513.179688 565.421875 C 513.261719 565.554688 513.21875 565.730469 513.085938 565.8125 C 512.949219 565.890625 512.773438 565.847656 512.695312 565.714844 C 512.542969 565.460938 512.289062 565.25 511.96875 565.0625 C 511.644531 564.878906 511.265625 564.734375 510.875 564.613281 C 510.574219 564.515625 510.273438 564.4375 509.992188 564.367188 C 509.914062 564.34375 509.832031 564.324219 509.757812 564.304688 C 509.527344 564.242188 509.300781 564.179688 509.117188 564.105469 C 508.71875 564.523438 508.292969 564.960938 507.855469 565.402344 C 508.394531 565.464844 509.042969 565.578125 509.65625 565.75 C 510.089844 565.871094 510.515625 566.023438 510.878906 566.214844 C 511.234375 566.402344 511.554688 566.644531 511.742188 566.957031 C 511.820312 567.089844 511.777344 567.265625 511.644531 567.347656 C 511.511719 567.425781 511.335938 567.382812 511.253906 567.25 C 511.144531 567.066406 510.925781 566.886719 510.609375 566.714844 C 510.296875 566.550781 509.914062 566.410156 509.503906 566.296875 C 508.6875 566.070312 507.800781 565.949219 507.226562 565.910156 C 502.289062 566.335938 498.804688 568.707031 497.359375 570.925781 C 496.628906 572.046875 496.449219 573.070312 496.757812 573.78125 C 497.054688 574.46875 497.875 574.996094 499.453125 574.996094 C 499.609375 574.996094 499.738281 575.125 499.738281 575.28125 C 499.738281 575.4375 499.609375 575.566406 499.453125 575.566406 C 497.765625 575.566406 496.664062 574.992188 496.238281 574.003906 C 495.820312 573.039062 496.109375 571.804688 496.882812 570.617188 C 498.433594 568.242188 502.058594 565.804688 507.097656 565.351562 C 507.710938 564.75 508.300781 564.140625 508.84375 563.566406 M 508.84375 563.566406 L 509.003906 563.398438 C 509.382812 563 509.746094 562.597656 510.101562 562.203125 C 510.1875 562.109375 510.273438 562.015625 510.355469 561.921875 C 510.808594 561.417969 511.246094 560.929688 511.675781 560.484375 C 512.386719 559.746094 513.085938 559.101562 513.792969 558.6875 M 527.910156 566.613281 C 527.953125 566.761719 527.867188 566.921875 527.71875 566.964844 C 524.539062 567.886719 519.730469 569.160156 514.875 570.207031 C 510.023438 571.25 505.101562 572.078125 501.71875 572.101562 C 501.5625 572.101562 501.433594 571.976562 501.433594 571.820312 C 501.429688 571.664062 501.558594 571.535156 501.714844 571.535156 C 505.035156 571.511719 509.90625 570.695312 514.753906 569.652344 C 519.59375 568.605469 524.390625 567.339844 527.558594 566.417969 C 527.710938 566.375 527.867188 566.460938 527.910156 566.613281 Z M 527.910156 566.613281 "/></g><path style=" stroke:none;fill-rule:nonzero;fill:#fcbfbc;fill-opacity:1;" d="M 585.613281 568.320312 C 587.132812 566.703125 585.425781 557.46875 585.859375 553.984375 L 597.425781 552.5625 C 597.460938 552.84375 595.957031 563.90625 600.113281 565.113281 C 597.199219 569.363281 588.625 568.714844 585.613281 568.320312 Z M 585.613281 568.320312 "/><g clip-rule="nonzero" clip-path="url(#ba8501d5bf)"><path style=" stroke:none;fill-rule:nonzero;fill:#759df5;fill-opacity:1;" d="M 596.824219 560.488281 C 594.800781 561.472656 595.65625 562.476562 593.945312 564.382812 C 590.703125 568 588.207031 561.769531 585.984375 563.941406 C 584.59375 565.296875 585.289062 571.875 586.046875 575.136719 C 591.71875 575.632812 602.554688 575.765625 609.882812 575.269531 C 612.085938 575.121094 614.699219 575.046875 615.988281 573.265625 C 617.914062 570.609375 611.246094 567.222656 606.847656 565.601562 C 606.085938 565.117188 605.351562 564.625 604.671875 564.15625 L 604.480469 564.027344 C 604.027344 563.714844 603.582031 563.394531 603.152344 563.082031 C 602.496094 562.605469 601.867188 562.140625 601.261719 561.730469 C 599.574219 560.585938 598.097656 559.867188 596.824219 560.488281 Z M 596.824219 560.488281 "/></g><path style=" stroke:none;fill-rule:evenodd;fill:#253036;fill-opacity:1;" d="M 598.796875 560.71875 C 598.105469 560.488281 597.5 560.476562 596.949219 560.742188 C 596.46875 560.976562 596.175781 561.203125 595.972656 561.429688 C 595.773438 561.65625 595.652344 561.902344 595.527344 562.195312 C 595.496094 562.273438 595.464844 562.359375 595.429688 562.441406 C 595.210938 563.003906 594.933594 563.707031 594.15625 564.570312 C 593.304688 565.523438 592.460938 565.863281 591.628906 565.816406 C 590.824219 565.769531 590.085938 565.363281 589.429688 564.945312 C 589.269531 564.839844 589.121094 564.742188 588.976562 564.648438 C 588.808594 564.535156 588.644531 564.429688 588.472656 564.320312 C 588.167969 564.128906 587.882812 563.96875 587.609375 563.871094 C 587.339844 563.769531 587.097656 563.730469 586.875 563.765625 C 586.652344 563.800781 586.425781 563.910156 586.183594 564.144531 L 585.785156 563.738281 C 586.097656 563.433594 586.433594 563.261719 586.789062 563.203125 C 587.136719 563.152344 587.480469 563.214844 587.808594 563.335938 C 588.132812 563.457031 588.460938 563.640625 588.777344 563.839844 C 588.941406 563.945312 589.125 564.0625 589.304688 564.183594 C 589.453125 564.28125 589.597656 564.378906 589.734375 564.464844 C 590.386719 564.878906 591.019531 565.214844 591.664062 565.25 C 592.28125 565.285156 592.96875 565.046875 593.734375 564.191406 C 594.4375 563.40625 594.679688 562.792969 594.902344 562.238281 C 594.933594 562.148438 594.96875 562.066406 595.003906 561.980469 C 595.132812 561.664062 595.285156 561.351562 595.546875 561.054688 C 595.808594 560.757812 596.167969 560.488281 596.699219 560.230469 C 597.425781 559.878906 598.191406 559.917969 598.976562 560.179688 C 599.757812 560.4375 600.574219 560.921875 601.421875 561.496094 C 601.933594 561.84375 602.464844 562.230469 603.011719 562.628906 C 603.113281 562.703125 603.21875 562.777344 603.320312 562.851562 C 603.75 563.164062 604.191406 563.480469 604.640625 563.789062 M 604.167969 564.152344 C 603.808594 563.902344 603.457031 563.652344 603.113281 563.402344 C 603.074219 563.417969 603.03125 563.433594 602.988281 563.449219 C 602.9375 563.464844 602.875 563.488281 602.8125 563.507812 L 602.792969 563.515625 C 602.71875 563.539062 602.640625 563.566406 602.5625 563.59375 C 602.230469 563.710938 601.832031 563.855469 601.433594 564.035156 C 601.035156 564.214844 600.640625 564.425781 600.328125 564.667969 C 600.007812 564.914062 599.792969 565.171875 599.699219 565.4375 L 599.160156 565.253906 C 599.304688 564.839844 599.621094 564.496094 599.980469 564.21875 C 600.34375 563.941406 600.777344 563.707031 601.199219 563.515625 C 601.621094 563.328125 602.039062 563.175781 602.375 563.058594 C 602.4375 563.035156 602.496094 563.015625 602.554688 562.996094 C 602.097656 562.667969 601.660156 562.347656 601.234375 562.054688 C 601.21875 562.066406 601.195312 562.074219 601.175781 562.082031 C 600.863281 562.222656 600.300781 562.472656 599.707031 562.804688 C 599.324219 563.015625 598.945312 563.257812 598.628906 563.511719 C 598.304688 563.769531 598.074219 564.027344 597.960938 564.265625 L 597.445312 564.023438 C 597.613281 563.667969 597.925781 563.347656 598.269531 563.070312 C 598.621094 562.789062 599.035156 562.53125 599.429688 562.308594 C 599.890625 562.050781 600.347656 561.832031 600.675781 561.683594 C 600.003906 561.25 599.378906 560.910156 598.796875 560.71875 M 604.167969 564.152344 C 604.074219 564.207031 603.960938 564.261719 603.835938 564.328125 C 603.769531 564.359375 603.699219 564.394531 603.628906 564.433594 C 603.367188 564.5625 603.074219 564.710938 602.785156 564.875 C 602.414062 565.082031 602.035156 565.328125 601.714844 565.613281 C 601.394531 565.894531 601.117188 566.234375 600.980469 566.636719 L 601.515625 566.824219 C 601.613281 566.546875 601.8125 566.285156 602.089844 566.035156 C 602.367188 565.789062 602.710938 565.570312 603.066406 565.367188 C 603.339844 565.210938 603.617188 565.074219 603.878906 564.941406 C 603.953125 564.90625 604.023438 564.871094 604.09375 564.832031 C 604.308594 564.726562 604.515625 564.617188 604.679688 564.507812 C 605.15625 564.832031 605.660156 565.171875 606.183594 565.511719 C 605.667969 565.6875 605.058594 565.933594 604.496094 566.226562 C 604.097656 566.433594 603.710938 566.671875 603.398438 566.9375 C 603.085938 567.195312 602.824219 567.496094 602.707031 567.839844 L 603.242188 568.027344 C 603.3125 567.824219 603.488281 567.601562 603.761719 567.371094 C 604.03125 567.144531 604.378906 566.929688 604.757812 566.730469 C 605.476562 566.355469 606.28125 566.0625 606.835938 565.898438 C 609.007812 566.707031 611.703125 567.933594 613.625 569.277344 C 614.605469 569.960938 615.355469 570.652344 615.746094 571.316406 C 615.941406 571.648438 616.039062 571.957031 616.046875 572.242188 C 616.050781 572.527344 615.96875 572.8125 615.761719 573.097656 L 616.21875 573.429688 C 616.496094 573.050781 616.621094 572.648438 616.613281 572.234375 C 616.605469 571.820312 616.464844 571.417969 616.238281 571.027344 C 615.78125 570.261719 614.953125 569.507812 613.953125 568.8125 C 611.957031 567.414062 609.179688 566.160156 606.972656 565.34375 C 606.226562 564.871094 605.503906 564.382812 604.835938 563.925781 L 604.640625 563.789062 M 600.320312 571.671875 C 595.351562 571.65625 590.382812 571.410156 587.082031 571.167969 L 587.121094 570.601562 C 590.410156 570.84375 595.367188 571.085938 600.320312 571.101562 C 605.28125 571.117188 610.210938 570.902344 613.46875 570.234375 L 613.582031 570.792969 C 610.265625 571.472656 605.28125 571.683594 600.320312 571.671875 Z M 600.320312 571.671875 "/><path style=" stroke:none;fill-rule:nonzero;fill:#fcbfbc;fill-opacity:1;" d="M 543.957031 400.792969 C 547.152344 397.226562 543.792969 390.191406 541.714844 387.121094 C 542.984375 388.230469 550.152344 393.105469 555.667969 390.417969 C 556.125 391.257812 557.070312 392.757812 558.050781 393.761719 C 558.707031 394.441406 559.398438 395.230469 559.386719 396.175781 C 559.300781 402.597656 549.304688 402.003906 543.957031 400.792969 Z M 543.957031 400.792969 "/><path style=" stroke:none;fill-rule:nonzero;fill:#fcbfbc;fill-opacity:1;" d="M 540.851562 380.917969 C 546.976562 376.902344 546.71875 371.132812 545.773438 368.554688 C 547.445312 368.222656 551.25 368.265625 553.105469 371.101562 C 555.425781 374.648438 562.734375 384.976562 557.117188 389.496094 C 556.652344 389.871094 556.167969 390.175781 555.667969 390.417969 C 550.152344 393.105469 542.984375 388.230469 541.714844 387.121094 C 537.691406 387.25 535.628906 383.960938 536.226562 382.121094 C 536.703125 380.652344 539.507812 380.707031 540.851562 380.917969 Z M 540.851562 380.917969 "/><path style=" stroke:none;fill-rule:evenodd;fill:#253036;fill-opacity:1;" d="M 539.527344 383.402344 C 538.980469 383.238281 538.429688 383.222656 538.09375 383.253906 L 538.039062 382.691406 C 538.433594 382.652344 539.0625 382.671875 539.691406 382.859375 C 540.320312 383.042969 540.976562 383.40625 541.375 384.078125 L 540.886719 384.367188 C 540.585938 383.863281 540.078125 383.5625 539.527344 383.402344 Z M 547.203125 389.929688 C 549.816406 390.941406 552.894531 391.457031 555.542969 390.164062 L 555.792969 390.671875 C 552.929688 392.070312 549.664062 391.492188 546.996094 390.457031 C 544.324219 389.425781 542.1875 387.910156 541.527344 387.332031 L 541.902344 386.90625 C 542.511719 387.441406 544.59375 388.917969 547.203125 389.929688 Z M 547.203125 389.929688 "/><path style=" stroke:none;fill-rule:nonzero;fill:#253036;fill-opacity:1;" d="M 540.851562 380.917969 C 546.976562 376.902344 546.71875 371.132812 545.773438 368.554688 C 547.445312 368.222656 551.25 368.265625 553.105469 371.101562 C 555.425781 374.648438 562.738281 384.976562 557.117188 389.496094 C 556.652344 389.871094 556.167969 390.175781 555.667969 390.417969 C 556.132812 391.269531 558.445312 395.5 559.4375 396.503906 C 563.300781 396.40625 565.910156 397.089844 567.96875 398.242188 C 568.902344 398.769531 571.058594 398.230469 572.796875 399.726562 L 573.308594 394.042969 C 573.289062 390.117188 570.304688 388.179688 567.078125 386.722656 C 563.757812 385.222656 564.859375 382.617188 564.324219 379.3125 C 563.789062 376.007812 560.671875 374.65625 558.421875 373.503906 C 556.171875 372.351562 555.4375 369.914062 552.394531 364.949219 C 549.960938 360.976562 542.578125 362.410156 539.191406 363.625 C 535.382812 365.09375 528.238281 370.019531 530.132812 377.945312 C 531.761719 384.394531 534.074219 383.875 530.410156 387.511719 C 525.910156 391.972656 533.613281 393.796875 531.40625 398.242188 C 530.207031 400.984375 529.578125 406.890625 536.679688 408.585938 L 543.957031 400.792969 C 547.152344 397.226562 543.792969 390.191406 541.714844 387.121094 C 537.691406 387.25 535.628906 383.960938 536.226562 382.121094 C 536.703125 380.652344 539.507812 380.707031 540.851562 380.917969 Z M 540.851562 380.917969 "/><path style=" stroke:none;fill-rule:evenodd;fill:#253036;fill-opacity:1;" d="M 545.535156 378.214844 C 545.4375 379.082031 545.628906 380.132812 546.152344 381.15625 C 546.671875 382.179688 547.410156 382.953125 548.171875 383.386719 C 548.933594 383.820312 549.683594 383.894531 550.269531 383.59375 C 550.859375 383.296875 551.238281 382.644531 551.335938 381.773438 C 551.433594 380.90625 551.238281 379.851562 550.71875 378.832031 C 550.199219 377.808594 549.460938 377.035156 548.699219 376.601562 C 547.9375 376.167969 547.1875 376.09375 546.597656 376.394531 C 546.011719 376.691406 545.632812 377.34375 545.535156 378.214844 Z M 544.96875 378.152344 C 545.078125 377.160156 545.527344 376.300781 546.339844 375.886719 C 547.15625 375.472656 548.113281 375.617188 548.980469 376.109375 C 549.753906 376.550781 550.484375 377.28125 551.03125 378.21875 C 551.167969 378.085938 551.332031 377.953125 551.511719 377.839844 C 551.691406 377.726562 551.90625 377.621094 552.136719 377.574219 C 551.757812 376.710938 551.605469 375.828125 551.679688 375.0625 C 551.761719 374.203125 552.136719 373.449219 552.839844 373.089844 C 553.546875 372.730469 554.375 372.871094 555.121094 373.3125 C 555.867188 373.75 556.570312 374.511719 557.058594 375.472656 C 557.550781 376.441406 557.753906 377.453125 557.671875 378.316406 C 557.589844 379.175781 557.214844 379.929688 556.511719 380.289062 C 555.820312 380.640625 555.003906 380.511719 554.273438 380.089844 C 553.566406 379.6875 552.902344 379 552.410156 378.125 C 552.242188 378.109375 552.039062 378.175781 551.816406 378.320312 C 551.621094 378.441406 551.441406 378.605469 551.308594 378.746094 C 551.8125 379.800781 552.003906 380.894531 551.902344 381.835938 C 551.789062 382.828125 551.34375 383.6875 550.53125 384.101562 C 549.714844 384.515625 548.757812 384.371094 547.890625 383.878906 C 547.019531 383.382812 546.207031 382.519531 545.644531 381.414062 C 545.082031 380.308594 544.859375 379.144531 544.96875 378.152344 Z M 552.246094 375.117188 C 552.175781 375.859375 552.347656 376.761719 552.796875 377.644531 C 552.8125 377.675781 552.832031 377.710938 552.847656 377.742188 C 553.304688 378.59375 553.925781 379.238281 554.554688 379.597656 C 555.1875 379.960938 555.789062 380.019531 556.253906 379.78125 C 556.726562 379.542969 557.035156 379.003906 557.105469 378.261719 C 557.175781 377.519531 557.003906 376.617188 556.554688 375.734375 C 556.101562 374.847656 555.472656 374.175781 554.832031 373.800781 C 554.1875 373.421875 553.570312 373.355469 553.097656 373.59375 C 552.625 373.835938 552.316406 374.371094 552.246094 375.117188 Z M 552.246094 375.117188 "/><path style=" stroke:none;fill-rule:nonzero;fill:#253036;fill-opacity:1;" d="M 550.675781 379.640625 C 550.929688 380.144531 550.867188 380.691406 550.53125 380.863281 C 550.195312 381.035156 549.714844 380.765625 549.457031 380.261719 C 549.199219 379.757812 549.265625 379.210938 549.601562 379.039062 C 549.9375 378.867188 550.417969 379.136719 550.675781 379.640625 Z M 550.675781 379.640625 "/><path style=" stroke:none;fill-rule:nonzero;fill:#253036;fill-opacity:1;" d="M 556.257812 377.054688 C 556.515625 377.558594 556.449219 378.105469 556.113281 378.277344 C 555.777344 378.449219 555.296875 378.179688 555.039062 377.671875 C 554.78125 377.167969 554.847656 376.621094 555.183594 376.449219 C 555.519531 376.28125 556 376.550781 556.257812 377.054688 Z M 556.257812 377.054688 "/><path style=" stroke:none;fill-rule:evenodd;fill:#253036;fill-opacity:1;" d="M 545.265625 379.625 L 540.949219 381.183594 L 540.753906 380.648438 L 545.074219 379.089844 Z M 545.265625 379.625 "/><path style=" stroke:none;fill-rule:nonzero;fill:#3e77f4;fill-opacity:1;" d="M 558.871094 395.761719 C 559.71875 401.429688 551.242188 402.007812 544.429688 400.039062 C 544.394531 400.03125 544.355469 400.035156 544.328125 400.058594 C 540.613281 403.015625 532.714844 409.984375 532.714844 414.511719 C 532.714844 419.054688 535.371094 434.203125 536.695312 441.210938 C 538.554688 441.042969 541.738281 440.53125 544.542969 439.574219 C 547.988281 445.746094 556.25 453.46875 552.046875 467.910156 C 563.703125 467.910156 583.601562 469.785156 585.875 454.5625 C 585.875 450.257812 574.160156 433.738281 572.90625 422.351562 C 575.664062 420.941406 578.910156 417.714844 580.476562 415.929688 L 572.800781 400.023438 C 569.84375 397.070312 561.902344 395.859375 558.871094 395.761719 Z M 558.871094 395.761719 "/><path style=" stroke:none;fill-rule:evenodd;fill:#253036;fill-opacity:1;" d="M 556.789062 384.914062 C 557.121094 384.425781 557.082031 383.921875 556.933594 383.714844 L 557.394531 383.382812 C 557.722656 383.839844 557.683594 384.613281 557.257812 385.234375 C 556.816406 385.882812 555.960938 386.390625 554.605469 386.390625 L 554.605469 385.820312 C 555.8125 385.820312 556.472656 385.378906 556.789062 384.914062 Z M 556.789062 384.914062 "/><path style=" stroke:none;fill-rule:nonzero;fill:#253036;fill-opacity:1;" d="M 548.351562 484.035156 C 549.609375 476.421875 549.257812 469.382812 552.617188 465.355469 C 563.152344 463.800781 583.59375 454.800781 584.171875 458.539062 C 585.476562 466.789062 589.476562 485.609375 590.898438 497.472656 L 601.707031 551.683594 L 588.035156 559.15625 L 581.972656 533.441406 L 574.503906 485.882812 L 555.742188 519.039062 C 549.488281 536.367188 548.066406 530.6875 531.296875 556.535156 C 529.203125 555.648438 521.582031 550.011719 519.835938 549.269531 L 542.382812 503.132812 Z M 548.351562 484.035156 "/><path style=" stroke:none;fill-rule:nonzero;fill:#253036;fill-opacity:1;" d="M 689.441406 375.371094 C 690.476562 369.5 686.554688 363.902344 680.679688 362.867188 L 588.691406 346.660156 C 582.816406 345.625 577.214844 349.542969 576.179688 355.414062 L 542.570312 545.855469 C 541.535156 551.726562 545.457031 557.324219 551.332031 558.359375 L 643.320312 574.566406 C 649.195312 575.601562 654.800781 571.683594 655.835938 565.8125 Z M 689.441406 375.371094 "/><path style=" stroke:none;fill-rule:nonzero;fill:#759df5;fill-opacity:1;" d="M 548.425781 536.042969 L 579.613281 359.3125 C 580.375 354.988281 584.503906 352.097656 588.832031 352.859375 L 616.679688 357.769531 C 617.457031 357.90625 617.976562 358.644531 617.835938 359.417969 C 617.199219 363.035156 619.617188 366.484375 623.238281 367.125 L 641.210938 370.289062 C 644.832031 370.929688 648.285156 368.511719 648.925781 364.894531 C 649.0625 364.121094 649.800781 363.601562 650.578125 363.738281 L 678.425781 368.644531 C 682.753906 369.410156 685.644531 373.535156 684.882812 377.859375 L 653.695312 554.589844 C 652.929688 558.917969 648.800781 561.804688 644.472656 561.042969 L 554.878906 545.257812 C 550.550781 544.496094 547.660156 540.367188 548.425781 536.042969 Z M 548.425781 536.042969 "/><path style=" stroke:none;fill-rule:nonzero;fill:#253036;fill-opacity:1;" d="M 675.535156 382.207031 C 675.648438 381.558594 675.214844 380.941406 674.566406 380.824219 L 660.457031 378.339844 C 659.808594 378.226562 659.1875 378.65625 659.074219 379.308594 C 658.957031 379.957031 659.390625 380.574219 660.042969 380.6875 L 674.152344 383.175781 C 674.800781 383.289062 675.421875 382.855469 675.535156 382.207031 Z M 675.535156 382.207031 "/><path style=" stroke:none;fill-rule:nonzero;fill:#253036;fill-opacity:1;" d="M 674.707031 386.90625 C 674.820312 386.257812 674.386719 385.640625 673.734375 385.523438 L 659.628906 383.039062 C 658.976562 382.925781 658.359375 383.359375 658.242188 384.007812 C 658.128906 384.65625 658.5625 385.273438 659.210938 385.386719 L 673.320312 387.875 C 673.972656 387.988281 674.589844 387.554688 674.707031 386.90625 Z M 674.707031 386.90625 "/><path style=" stroke:none;fill-rule:nonzero;fill:#253036;fill-opacity:1;" d="M 673.867188 391.660156 C 673.976562 391.042969 673.5625 390.453125 672.945312 390.34375 L 658.945312 387.878906 C 658.328125 387.769531 657.738281 388.183594 657.628906 388.800781 C 657.519531 389.417969 657.933594 390.007812 658.550781 390.117188 L 672.546875 392.582031 C 673.167969 392.691406 673.757812 392.28125 673.867188 391.660156 Z M 673.867188 391.660156 "/><path style=" stroke:none;fill-rule:nonzero;fill:#f2f2f2;fill-opacity:1;" d="M 587.644531 425.503906 C 584.375 444.042969 596.761719 461.722656 615.316406 464.992188 C 633.871094 468.261719 651.5625 455.882812 654.835938 437.34375 C 658.105469 418.804688 645.71875 401.125 627.164062 397.855469 C 608.609375 394.585938 590.917969 406.964844 587.644531 425.503906 Z M 587.644531 425.503906 "/><path style=" stroke:none;fill-rule:nonzero;fill:#3e77f4;fill-opacity:1;" d="M 605.628906 447.804688 C 607.5 445.84375 612.351562 442.304688 616.515625 441.839844 C 618.359375 448.640625 624.863281 446.199219 627.484375 443.484375 C 634.222656 446.613281 642.414062 449.820312 644.519531 456.34375 C 641.273438 459.363281 637.460938 461.738281 633.296875 463.316406 C 627.75 465.414062 621.582031 466.09375 615.316406 464.992188 C 610.699219 464.179688 606.464844 462.472656 602.753906 460.082031 C 601.558594 459.308594 600.417969 458.46875 599.335938 457.5625 C 601.527344 453.5625 604.25 449.246094 605.628906 447.804688 Z M 605.628906 447.804688 "/><path style=" stroke:none;fill-rule:nonzero;fill:#fcbfbc;fill-opacity:1;" d="M 630.425781 444.714844 C 626.328125 442.234375 627.480469 434.527344 628.570312 430.980469 C 627.679688 432.414062 622.25 439.171875 616.191406 438.210938 C 615.996094 439.148438 615.535156 440.859375 614.894531 442.105469 C 614.460938 442.945312 614.03125 443.90625 614.320312 444.804688 C 616.28125 450.921875 625.667969 447.433594 630.425781 444.714844 Z M 630.425781 444.714844 "/><path style=" stroke:none;fill-rule:nonzero;fill:#fcbfbc;fill-opacity:1;" d="M 627.578125 424.796875 C 620.546875 422.75 619.105469 417.15625 619.253906 414.414062 C 617.5625 414.585938 613.933594 415.738281 612.988281 418.992188 C 611.808594 423.058594 607.839844 435.070312 614.535156 437.753906 C 615.089844 437.976562 615.644531 438.125 616.191406 438.214844 C 622.25 439.171875 627.679688 432.414062 628.570312 430.980469 C 632.457031 429.933594 633.464844 426.179688 632.355469 424.597656 C 631.46875 423.332031 628.800781 424.203125 627.578125 424.796875 Z M 627.578125 424.796875 "/><path style=" stroke:none;fill-rule:evenodd;fill:#253036;fill-opacity:1;" d="M 629.570312 426.789062 C 630.046875 426.472656 630.570312 426.292969 630.902344 426.230469 L 630.789062 425.671875 C 630.398438 425.75 629.804688 425.953125 629.257812 426.3125 C 628.710938 426.675781 628.1875 427.214844 628.003906 427.972656 L 628.554688 428.109375 C 628.695312 427.539062 629.097656 427.101562 629.570312 426.789062 Z M 624.144531 435.269531 C 621.941406 437.003906 619.148438 438.394531 616.234375 437.933594 L 616.144531 438.492188 C 619.292969 438.992188 622.246094 437.484375 624.496094 435.71875 C 626.75 433.949219 628.351562 431.875 628.8125 431.132812 L 628.328125 430.832031 C 627.898438 431.519531 626.34375 433.542969 624.144531 435.269531 Z M 624.144531 435.269531 "/><path style=" stroke:none;fill-rule:nonzero;fill:#253036;fill-opacity:1;" d="M 627.578125 424.796875 C 620.546875 422.75 619.105469 417.15625 619.253906 414.414062 C 617.5625 414.585938 613.933594 415.738281 612.988281 418.992188 C 611.808594 423.058594 607.839844 435.070312 614.535156 437.753906 C 615.089844 437.976562 615.644531 438.125 616.191406 438.214844 C 615.996094 439.164062 615.519531 440.917969 614.859375 442.167969 C 611.140625 443.199219 607.257812 446.097656 605.628906 447.804688 C 604.886719 448.578125 603.761719 450.179688 602.535156 452.117188 L 600.382812 446.832031 C 599.25 443.074219 601.542969 440.347656 604.195312 438.011719 C 606.933594 435.605469 605.121094 433.4375 604.664062 430.121094 C 604.207031 426.804688 606.796875 424.601562 608.609375 422.84375 C 610.421875 421.082031 610.410156 418.535156 611.867188 412.898438 C 613.035156 408.390625 620.511719 407.605469 624.105469 407.777344 C 628.179688 408.070312 636.453125 410.691406 636.960938 418.824219 C 637.292969 425.46875 634.925781 425.648438 639.496094 428.050781 C 645.105469 431.003906 638.269531 435.003906 641.683594 438.609375 C 643.632812 440.878906 645.960938 446.34375 639.664062 450.039062 L 630.425781 444.714844 C 626.328125 442.234375 627.480469 434.527344 628.570312 430.980469 C 632.457031 429.933594 633.464844 426.179688 632.355469 424.597656 C 631.46875 423.332031 628.800781 424.203125 627.578125 424.796875 Z M 627.578125 424.796875 "/><path style=" stroke:none;fill-rule:evenodd;fill:#253036;fill-opacity:1;" d="M 622.3125 423.582031 C 622.65625 424.382812 622.78125 425.445312 622.582031 426.574219 C 622.382812 427.703125 621.902344 428.660156 621.304688 429.296875 C 620.699219 429.933594 620.007812 430.222656 619.355469 430.109375 C 618.707031 429.996094 618.152344 429.484375 617.804688 428.679688 C 617.457031 427.878906 617.335938 426.816406 617.535156 425.6875 C 617.734375 424.554688 618.214844 423.601562 618.8125 422.964844 C 619.414062 422.328125 620.109375 422.035156 620.761719 422.152344 C 621.410156 422.265625 621.964844 422.777344 622.3125 423.582031 Z M 622.832031 423.355469 C 622.4375 422.441406 621.757812 421.75 620.859375 421.589844 C 619.960938 421.433594 619.085938 421.847656 618.398438 422.574219 C 617.789062 423.222656 617.304688 424.136719 617.054688 425.191406 C 616.886719 425.105469 616.691406 425.023438 616.488281 424.96875 C 616.28125 424.910156 616.046875 424.875 615.8125 424.898438 C 615.921875 423.960938 615.808594 423.074219 615.511719 422.363281 C 615.183594 421.566406 614.605469 420.953125 613.824219 420.8125 C 613.046875 420.675781 612.292969 421.054688 611.710938 421.691406 C 611.121094 422.332031 610.675781 423.261719 610.488281 424.328125 C 610.300781 425.394531 610.402344 426.421875 610.734375 427.222656 C 611.0625 428.019531 611.640625 428.632812 612.421875 428.769531 C 613.1875 428.90625 613.925781 428.542969 614.503906 427.929688 C 615.0625 427.335938 615.496094 426.484375 615.710938 425.503906 C 615.867188 425.441406 616.078125 425.445312 616.335938 425.515625 C 616.558594 425.578125 616.777344 425.679688 616.941406 425.777344 C 616.773438 426.929688 616.90625 428.035156 617.28125 428.90625 C 617.679688 429.820312 618.359375 430.511719 619.257812 430.667969 C 620.15625 430.828125 621.03125 430.410156 621.714844 429.6875 C 622.402344 428.960938 622.925781 427.898438 623.140625 426.671875 C 623.359375 425.449219 623.230469 424.273438 622.832031 423.355469 Z M 614.988281 422.578125 C 615.273438 423.265625 615.371094 424.183594 615.199219 425.160156 C 615.191406 425.195312 615.1875 425.230469 615.179688 425.265625 C 614.992188 426.214844 614.585938 427.011719 614.089844 427.539062 C 613.589844 428.070312 613.03125 428.300781 612.519531 428.210938 C 612 428.121094 611.542969 427.699219 611.257812 427.007812 C 610.972656 426.320312 610.875 425.402344 611.046875 424.425781 C 611.21875 423.449219 611.625 422.625 612.128906 422.074219 C 612.632812 421.523438 613.207031 421.28125 613.726562 421.375 C 614.25 421.464844 614.703125 421.890625 614.988281 422.578125 Z M 614.988281 422.578125 "/><path style=" stroke:none;fill-rule:nonzero;fill:#253036;fill-opacity:1;" d="M 619.703125 425.492188 C 619.605469 426.046875 619.828125 426.550781 620.199219 426.617188 C 620.570312 426.683594 620.953125 426.285156 621.050781 425.726562 C 621.148438 425.171875 620.929688 424.664062 620.554688 424.601562 C 620.183594 424.535156 619.804688 424.933594 619.703125 425.492188 Z M 619.703125 425.492188 "/><path style=" stroke:none;fill-rule:nonzero;fill:#253036;fill-opacity:1;" d="M 613.609375 424.648438 C 613.511719 425.203125 613.730469 425.710938 614.101562 425.773438 C 614.476562 425.839844 614.855469 425.441406 614.953125 424.882812 C 615.054688 424.328125 614.832031 423.824219 614.460938 423.757812 C 614.085938 423.691406 613.707031 424.089844 613.609375 424.648438 Z M 613.609375 424.648438 "/><path style=" stroke:none;fill-rule:evenodd;fill:#253036;fill-opacity:1;" d="M 622.980469 424.851562 L 627.566406 425.082031 L 627.59375 424.515625 L 623.007812 424.285156 Z M 622.980469 424.851562 "/><path style=" stroke:none;fill-rule:evenodd;fill:#253036;fill-opacity:1;" d="M 618.332031 432.394531 C 618.210938 432.292969 618.03125 432.304688 617.929688 432.421875 C 617.730469 432.652344 617.355469 432.949219 616.898438 433.078125 C 616.453125 433.207031 615.921875 433.183594 615.359375 432.765625 C 615.234375 432.671875 615.054688 432.699219 614.960938 432.824219 C 614.867188 432.949219 614.894531 433.125 615.019531 433.21875 C 615.734375 433.753906 616.453125 433.796875 617.054688 433.625 C 617.640625 433.457031 618.105469 433.089844 618.359375 432.792969 C 618.460938 432.675781 618.449219 432.496094 618.332031 432.394531 Z M 618.332031 432.394531 "/><path style=" stroke:none;fill-rule:nonzero;fill:#fcbfbc;fill-opacity:1;" d="M 599.785156 441.171875 C 600.65625 440.332031 600.828125 439.726562 600.496094 437.238281 C 600.316406 435.902344 600.085938 435.464844 599.019531 435.070312 C 600.574219 433.308594 604.21875 429.375 603.675781 428.347656 C 602.996094 427.0625 601.371094 428.339844 597.546875 432.90625 C 597.597656 428.347656 598.191406 424.816406 596.390625 424.515625 C 595.117188 424.308594 595.089844 430.117188 595.050781 432.84375 C 595.0625 431.8125 594.039062 431.734375 592.691406 432.167969 C 592.5 431.667969 590.535156 431.769531 590.460938 433.492188 C 590.445312 433.847656 590.507812 434.324219 590.621094 434.84375 C 590.652344 434.988281 590.046875 439.523438 592.40625 442.058594 C 592.480469 443.257812 592.617188 445.695312 592.570312 445.855469 C 592.527344 446.015625 596.992188 446.035156 599.230469 446.023438 C 599.191406 444.703125 599.148438 441.992188 599.3125 441.6875 C 599.46875 441.5 599.628906 441.324219 599.785156 441.171875 Z M 599.785156 441.171875 "/><path style=" stroke:none;fill-rule:evenodd;fill:#253036;fill-opacity:1;" d="M 595.15625 433.703125 L 595.191406 432.851562 L 594.90625 432.839844 L 594.871094 433.691406 Z M 595.15625 433.703125 "/><path style=" stroke:none;fill-rule:evenodd;fill:#253036;fill-opacity:1;" d="M 593.167969 438.011719 C 593.042969 437.960938 592.902344 437.84375 592.816406 437.746094 L 592.597656 437.929688 C 592.707031 438.054688 592.882812 438.199219 593.054688 438.273438 C 593.140625 438.3125 593.246094 438.339844 593.347656 438.320312 C 593.460938 438.296875 593.546875 438.21875 593.59375 438.101562 L 593.324219 438.003906 C 593.3125 438.035156 593.300781 438.039062 593.292969 438.039062 C 593.273438 438.042969 593.230469 438.039062 593.167969 438.011719 Z M 593.167969 438.011719 "/><path style=" stroke:none;fill-rule:evenodd;fill:#253036;fill-opacity:1;" d="M 595.339844 433.945312 C 595.222656 433.90625 595.101562 433.867188 594.976562 433.835938 L 595.050781 433.558594 C 595.1875 433.597656 595.320312 433.636719 595.445312 433.683594 L 595.457031 433.6875 L 595.472656 433.695312 C 595.953125 433.976562 596.613281 434.203125 597.277344 434.402344 C 597.492188 434.464844 597.707031 434.527344 597.917969 434.585938 C 598.347656 434.707031 598.753906 434.824219 599.070312 434.9375 C 599.613281 435.136719 599.972656 435.359375 600.210938 435.722656 C 600.441406 436.078125 600.546875 436.550781 600.636719 437.21875 L 600.355469 437.253906 C 600.265625 436.585938 600.164062 436.171875 599.972656 435.878906 C 599.785156 435.589844 599.492188 435.394531 598.972656 435.203125 C 598.667969 435.09375 598.277344 434.984375 597.855469 434.863281 C 597.640625 434.800781 597.421875 434.738281 597.195312 434.671875 C 596.535156 434.476562 595.851562 434.246094 595.339844 433.945312 Z M 595.335938 436.492188 C 595.089844 436.234375 594.828125 435.945312 594.539062 435.621094 L 594.328125 435.8125 C 594.613281 436.136719 594.882812 436.425781 595.128906 436.6875 Z M 595.335938 436.492188 "/><path style=" stroke:none;fill-rule:evenodd;fill:#253036;fill-opacity:1;" d="M 593.375 435.144531 C 593.5625 436.222656 593.597656 437.273438 593.324219 438.003906 L 593.300781 438.074219 L 593.34375 438.132812 C 593.738281 438.691406 594.109375 438.976562 594.449219 439.03125 C 594.808594 439.09375 595.082031 438.886719 595.253906 438.605469 C 595.429688 438.324219 595.523438 437.945312 595.542969 437.570312 C 595.550781 437.414062 595.546875 437.257812 595.527344 437.101562 C 596.175781 437.761719 596.65625 438.183594 597.007812 438.4375 C 597.214844 438.589844 597.382812 438.683594 597.511719 438.738281 C 597.574219 438.765625 597.632812 438.785156 597.6875 438.789062 C 597.738281 438.796875 597.800781 438.792969 597.859375 438.761719 L 597.714844 438.515625 C 597.726562 438.507812 597.734375 438.507812 597.734375 438.507812 C 597.734375 438.507812 597.730469 438.507812 597.722656 438.507812 C 597.703125 438.503906 597.667969 438.496094 597.621094 438.476562 C 597.519531 438.433594 597.375 438.351562 597.175781 438.207031 C 596.777344 437.917969 596.179688 437.390625 595.335938 436.492188 L 595.105469 436.65625 C 595.222656 436.886719 595.277344 437.214844 595.261719 437.554688 C 595.242188 437.898438 595.15625 438.226562 595.011719 438.457031 C 594.871094 438.683594 594.699219 438.785156 594.496094 438.753906 C 594.28125 438.71875 593.984375 438.523438 593.617188 438.027344 C 593.890625 437.230469 593.839844 436.152344 593.65625 435.097656 C 593.644531 435.035156 593.632812 434.976562 593.621094 434.917969 C 593.792969 435.175781 594.023438 435.46875 594.328125 435.8125 L 594.539062 435.621094 C 594.027344 435.046875 593.742188 434.625 593.613281 434.320312 C 593.484375 434.011719 593.527344 433.875 593.59375 433.808594 C 593.671875 433.726562 593.84375 433.679688 594.109375 433.6875 C 594.367188 433.695312 594.675781 433.75 594.976562 433.835938 L 595.050781 433.558594 C 594.738281 433.472656 594.40625 433.410156 594.117188 433.402344 C 593.839844 433.394531 593.558594 433.4375 593.386719 433.613281 C 593.367188 433.632812 593.347656 433.65625 593.332031 433.679688 C 593.171875 433.097656 592.992188 432.558594 592.824219 432.117188 L 592.558594 432.21875 C 592.855469 432.996094 593.1875 434.074219 593.375 435.144531 Z M 591.320312 435.648438 C 591.125 435.34375 590.933594 435.046875 590.738281 434.761719 L 590.503906 434.921875 C 590.691406 435.195312 590.875 435.484375 591.070312 435.785156 C 591.507812 436.460938 591.984375 437.203125 592.597656 437.929688 L 592.816406 437.746094 C 592.214844 437.03125 591.753906 436.320312 591.320312 435.648438 Z M 591.320312 435.648438 "/><path style=" stroke:none;fill-rule:nonzero;fill:#3e77f4;fill-opacity:1;" d="M 590.546875 445.050781 L 600.886719 443.703125 C 601.417969 448.074219 602.390625 456.175781 602.855469 460.144531 C 597.703125 456.851562 593.5625 452.234375 590.824219 446.859375 Z M 590.546875 445.050781 "/><path style=" stroke:none;fill-rule:nonzero;fill:#253036;fill-opacity:1;" d="M 634.238281 475.535156 C 634.375 474.765625 633.859375 474.027344 633.085938 473.890625 L 596.132812 467.378906 C 595.359375 467.242188 594.621094 467.757812 594.484375 468.53125 C 594.347656 469.304688 594.867188 470.042969 595.636719 470.175781 L 632.59375 476.6875 C 633.367188 476.824219 634.101562 476.308594 634.238281 475.535156 Z M 634.238281 475.535156 "/><path style=" stroke:none;fill-rule:nonzero;fill:#253036;fill-opacity:1;" d="M 646.097656 486.855469 C 646.234375 486.082031 645.71875 485.347656 644.945312 485.210938 L 580.554688 473.863281 C 579.78125 473.730469 579.042969 474.246094 578.90625 475.015625 C 578.773438 475.789062 579.289062 476.527344 580.0625 476.664062 L 644.453125 488.007812 C 645.226562 488.144531 645.960938 487.628906 646.097656 486.855469 Z M 646.097656 486.855469 "/><path style=" stroke:none;fill-rule:nonzero;fill:#fcbfbc;fill-opacity:1;" d="M 579.054688 432.714844 C 565.125 445.472656 552.046875 455.683594 546.929688 454.132812 C 540.523438 452.191406 538.082031 445.851562 537.382812 441.140625 C 540.464844 440.78125 545.886719 439.691406 548.558594 437.546875 C 548.558594 437.546875 548.636719 440.625 549.203125 442.488281 C 557.164062 435.8125 556.597656 438.085938 575.074219 428.144531 C 575.925781 426.0625 577.972656 421.328125 580.476562 421.328125 L 581.894531 421.894531 C 584.453125 419.90625 588.605469 416.867188 589.289062 417.773438 C 589.910156 418.605469 588.101562 420.957031 586.082031 422.601562 C 586.625 423.164062 587.324219 424.257812 586.949219 425.160156 C 587.234375 426.011719 587.636719 427.773438 586.949219 428 C 587.347656 429.042969 587.355469 431.238281 584.171875 431.691406 C 582.667969 431.90625 580.808594 432.300781 579.054688 432.714844 Z M 579.054688 432.714844 "/><path style=" stroke:none;fill-rule:evenodd;fill:#253036;fill-opacity:1;" d="M 546.179688 420.253906 C 546.304688 420.15625 546.480469 420.175781 546.582031 420.296875 C 547.132812 420.96875 547.574219 422.085938 547.929688 423.40625 C 548.289062 424.734375 548.574219 426.3125 548.796875 427.941406 C 549.242188 431.207031 549.441406 434.710938 549.488281 436.945312 L 549.492188 437.058594 L 549.414062 437.140625 C 548.347656 438.300781 546.558594 439.183594 544.636719 439.839844 C 541.804688 440.808594 538.597656 441.324219 536.722656 441.492188 C 536.566406 441.507812 536.425781 441.394531 536.414062 441.238281 C 536.398438 441.082031 536.515625 440.941406 536.671875 440.929688 C 538.515625 440.761719 541.675781 440.253906 544.449219 439.304688 C 546.300781 438.671875 547.941406 437.855469 548.917969 436.839844 C 548.867188 434.621094 548.667969 431.199219 548.234375 428.019531 C 548.011719 426.402344 547.734375 424.851562 547.382812 423.550781 C 547.027344 422.246094 546.613281 421.230469 546.140625 420.65625 C 546.042969 420.535156 546.058594 420.355469 546.179688 420.253906 Z M 546.179688 420.253906 "/><path style=" stroke:none;fill-rule:nonzero;fill:#3e77f4;fill-opacity:1;" d="M 707.832031 456.832031 C 715.109375 460.242188 718.445312 484.007812 719.203125 495.464844 L 712.378906 525.003906 C 707.925781 518.851562 699.984375 504.328125 703.851562 495.464844 C 707.71875 486.601562 708.117188 466.019531 707.832031 456.832031 Z M 707.832031 456.832031 "/><path style=" stroke:none;fill-rule:nonzero;fill:#3e77f4;fill-opacity:1;" d="M 720.90625 542.898438 L 712.378906 542.898438 C 714.152344 540.933594 716.742188 527.785156 718.167969 519.324219 C 724.605469 516.769531 725.171875 509.667969 732.480469 500.007812 C 734.050781 506.609375 734.265625 513.332031 731.140625 517.902344 C 724.773438 527.222656 721.664062 538.449219 720.90625 542.898438 Z M 720.90625 542.898438 "/><path style=" stroke:none;fill-rule:nonzero;fill:#759df5;fill-opacity:1;" d="M 694.753906 520.746094 C 694.300781 515.0625 688.121094 505.3125 685.089844 501.144531 C 690.136719 501.910156 695.269531 506.457031 699.019531 511.601562 C 698.261719 501.773438 695.949219 481.320312 692.765625 478.136719 C 695.417969 477.664062 701.519531 479.160156 704.703125 488.929688 C 708.683594 501.144531 706.695312 510.804688 708.683594 514.210938 C 709.183594 515.070312 709.847656 516.933594 710.558594 519.324219 C 711.167969 513.265625 713.117188 500.234375 716.074219 496.601562 C 719.03125 492.964844 729.058594 479.367188 733.699219 473.023438 C 735.121094 480.125 734.699219 483.535156 724.035156 502.847656 C 719.203125 511.601562 719.886719 536.367188 715.222656 541.765625 L 709.535156 542.617188 L 702.429688 542.617188 C 700.15625 540.628906 695.324219 527.847656 694.753906 520.746094 Z M 694.753906 520.746094 "/><g clip-rule="nonzero" clip-path="url(#aa21a8f0b9)"><path style=" stroke:none;fill-rule:nonzero;fill:#253036;fill-opacity:1;" d="M 694.15625 543.910156 C 693.878906 542.507812 694.953125 541.195312 696.386719 541.195312 L 727.28125 541.195312 C 728.699219 541.195312 729.773438 542.480469 729.519531 543.871094 L 724.070312 573.980469 C 723.875 575.0625 722.929688 575.851562 721.832031 575.851562 L 702.382812 575.851562 C 701.300781 575.851562 700.367188 575.085938 700.152344 574.019531 Z M 694.15625 543.910156 "/></g><g clip-rule="nonzero" clip-path="url(#369b6277d6)"><path style=" stroke:none;fill-rule:nonzero;fill:#2379be;fill-opacity:1;" d="M 626.898438 487.046875 L 617.714844 487.046875 C 615.464844 487.046875 613.632812 485.207031 613.632812 482.945312 L 613.632812 473.722656 C 613.632812 471.460938 615.464844 469.621094 617.714844 469.621094 L 626.898438 469.621094 C 629.148438 469.621094 630.980469 471.460938 630.980469 473.722656 L 630.980469 482.949219 C 630.976562 485.207031 629.148438 487.046875 626.898438 487.046875 Z M 617.714844 470.558594 C 615.980469 470.558594 614.566406 471.976562 614.566406 473.71875 L 614.566406 482.945312 C 614.566406 484.691406 615.980469 486.105469 617.714844 486.105469 L 626.898438 486.105469 C 628.632812 486.105469 630.042969 484.691406 630.042969 482.945312 L 630.042969 473.722656 C 630.042969 471.980469 628.632812 470.5625 626.898438 470.5625 L 617.714844 470.5625 Z M 617.714844 470.558594 "/></g><path style=" stroke:none;fill-rule:nonzero;fill:#2379be;fill-opacity:1;" d="M 657.152344 535.578125 L 640.183594 535.578125 C 636.246094 535.578125 633.042969 532.359375 633.042969 528.402344 L 633.042969 511.359375 C 633.042969 507.402344 636.246094 504.183594 640.183594 504.183594 L 657.152344 504.183594 C 661.089844 504.183594 664.292969 507.402344 664.292969 511.359375 L 664.292969 528.402344 C 664.292969 532.359375 661.089844 535.578125 657.152344 535.578125 Z M 640.183594 505.121094 C 636.761719 505.121094 633.976562 507.917969 633.976562 511.359375 L 633.976562 528.402344 C 633.976562 531.839844 636.761719 534.640625 640.183594 534.640625 L 657.152344 534.640625 C 660.574219 534.640625 663.359375 531.84375 663.359375 528.402344 L 663.359375 511.359375 C 663.359375 507.921875 660.578125 505.121094 657.152344 505.121094 Z M 640.183594 505.121094 "/><g clip-rule="nonzero" clip-path="url(#9d86ddc890)"><path style=" stroke:none;fill-rule:nonzero;fill:#2379be;fill-opacity:1;" d="M 687.503906 499.574219 L 673.542969 499.574219 C 670.261719 499.574219 667.585938 496.890625 667.585938 493.589844 L 667.585938 479.566406 C 667.585938 476.269531 670.261719 473.582031 673.542969 473.582031 L 687.503906 473.582031 C 690.789062 473.582031 693.460938 476.269531 693.460938 479.566406 L 693.460938 493.589844 C 693.460938 496.890625 690.789062 499.574219 687.503906 499.574219 Z M 673.542969 474.519531 C 670.773438 474.519531 668.519531 476.78125 668.519531 479.5625 L 668.519531 493.589844 C 668.519531 496.375 670.773438 498.640625 673.542969 498.640625 L 687.503906 498.640625 C 690.273438 498.640625 692.527344 496.375 692.527344 493.589844 L 692.527344 479.566406 C 692.527344 476.785156 690.273438 474.519531 687.503906 474.519531 Z M 673.542969 474.519531 "/></g><path style=" stroke:none;fill-rule:nonzero;fill:#2379be;fill-opacity:1;" d="M 621.84375 515.753906 L 615.835938 515.753906 C 614.273438 515.753906 613.003906 514.480469 613.003906 512.910156 L 613.003906 506.875 C 613.003906 505.304688 614.273438 504.03125 615.835938 504.03125 L 621.84375 504.03125 C 623.40625 504.03125 624.675781 505.304688 624.675781 506.875 L 624.675781 512.910156 C 624.675781 514.480469 623.40625 515.753906 621.84375 515.753906 Z M 615.835938 504.96875 C 614.789062 504.96875 613.9375 505.824219 613.9375 506.875 L 613.9375 512.914062 C 613.9375 513.964844 614.789062 514.820312 615.835938 514.820312 L 621.84375 514.820312 C 622.890625 514.820312 623.742188 513.964844 623.742188 512.914062 L 623.742188 506.875 C 623.742188 505.824219 622.890625 504.96875 621.84375 504.96875 Z M 615.835938 504.96875 "/><g clip-rule="nonzero" clip-path="url(#b6a8daf2e3)"><path style=" stroke:none;fill-rule:nonzero;fill:#2379be;fill-opacity:1;" d="M 609.859375 547.621094 L 600.675781 547.621094 C 598.421875 547.621094 596.59375 545.78125 596.59375 543.519531 L 596.59375 534.292969 C 596.59375 532.03125 598.421875 530.191406 600.675781 530.191406 L 609.859375 530.191406 C 612.109375 530.191406 613.941406 532.03125 613.941406 534.292969 L 613.941406 543.519531 C 613.9375 545.78125 612.109375 547.621094 609.859375 547.621094 Z M 600.675781 531.132812 C 598.9375 531.132812 597.527344 532.550781 597.527344 534.292969 L 597.527344 543.519531 C 597.527344 545.261719 598.9375 546.679688 600.675781 546.679688 L 609.859375 546.679688 C 611.59375 546.679688 613.003906 545.261719 613.003906 543.519531 L 613.003906 534.292969 C 613.003906 532.550781 611.59375 531.132812 609.859375 531.132812 Z M 600.675781 531.132812 "/></g><g clip-rule="nonzero" clip-path="url(#97c0b71501)"><path style=" stroke:none;fill-rule:nonzero;fill:#2379be;fill-opacity:1;" d="M 585.394531 524.652344 L 579.382812 524.652344 C 577.824219 524.652344 576.554688 523.378906 576.554688 521.8125 L 576.554688 515.773438 C 576.554688 514.203125 577.824219 512.929688 579.382812 512.929688 L 585.394531 512.929688 C 586.957031 512.929688 588.226562 514.203125 588.226562 515.773438 L 588.226562 521.8125 C 588.226562 523.378906 586.957031 524.652344 585.394531 524.652344 Z M 579.382812 513.867188 C 578.339844 513.867188 577.484375 514.722656 577.484375 515.773438 L 577.484375 521.8125 C 577.484375 522.859375 578.339844 523.71875 579.382812 523.71875 L 585.394531 523.71875 C 586.441406 523.71875 587.292969 522.859375 587.292969 521.8125 L 587.292969 515.773438 C 587.292969 514.722656 586.441406 513.867188 585.394531 513.867188 Z M 579.382812 513.867188 "/></g><g mask="url(#03ea18c881)" transform="matrix(1,0,0,1,0,360)"><g clip-path="url(#873def9944)"><g clip-rule="nonzero" clip-path="url(#411f2682b8)"><path style=" stroke:none;fill-rule:nonzero;fill:#cb6ce6;fill-opacity:1;" d="M 0.207031 56.277344 L 0.207031 215.992188 L 232.359375 215.992188 C 232.359375 215.992188 246.023438 193.554688 216.207031 178.027344 C 186.390625 162.496094 169.621094 153.179688 175.210938 120.257812 C 180.796875 87.335938 193.847656 57.515625 133.589844 48.199219 C 130.449219 47.714844 127.28125 47.300781 124.078125 46.957031 C 123.167969 46.855469 122.257812 46.761719 121.34375 46.675781 C 85.425781 43.210938 47.082031 47.828125 23.378906 51.777344 C 21.738281 52.050781 20.171875 52.320312 18.671875 52.585938 C 7.214844 54.609375 0.207031 56.277344 0.207031 56.277344 Z M 0.207031 56.277344 "/></g><g clip-rule="nonzero" clip-path="url(#7316786ca2)"><path style=" stroke:none;fill-rule:nonzero;fill:#531d61;fill-opacity:1;" d="M 0.207031 17.140625 L 0.207031 215.992188 L 168.378906 215.992188 C 168.378906 215.992188 185.539062 200.796875 168.378906 184.238281 C 148.828125 165.375 117.996094 172.601562 110.984375 153.992188 C 104.109375 135.75 133.609375 111.457031 124.894531 96.652344 C 113.054688 76.535156 84.476562 100.972656 69.148438 85.234375 C 51.558594 67.167969 86.960938 38.429688 63.398438 9.6875 C 43.765625 -14.261719 0.207031 17.140625 0.207031 17.140625 Z M 83.234375 114.234375 C 108.914062 130.726562 84.378906 131.714844 88.105469 154.582031 C 91.835938 177.449219 109.742188 177.191406 102.285156 190.445312 C 91.351562 209.882812 39.421875 193.089844 33.515625 179.75 C 22.332031 154.480469 51.910156 94.109375 83.234375 114.230469 Z M 83.234375 114.234375 "/></g><g clip-rule="nonzero" clip-path="url(#6112943ba6)"><path style=" stroke:none;fill-rule:nonzero;fill:#cb6ce6;fill-opacity:1;" d="M 0.207031 66.039062 L 0.207031 68.605469 C 2.617188 66.851562 5.007812 65.097656 7.355469 63.378906 C 12.78125 59.40625 18.121094 55.496094 23.378906 51.777344 C 37.023438 42.128906 50.140625 33.765625 62.773438 28.976562 C 82.195312 21.613281 97.691406 23.8125 111.546875 35.898438 C 115.496094 39.34375 118.71875 42.953125 121.34375 46.675781 C 134.519531 65.367188 132.585938 86.9375 130.976562 104.851562 C 129.742188 118.589844 128.675781 130.457031 134.152344 138.425781 C 138.417969 144.628906 147.066406 149.453125 156.226562 154.558594 C 166.601562 160.34375 178.359375 166.894531 185.644531 176.570312 C 193.621094 187.171875 195.097656 200.082031 190.136719 215.992188 L 192.304688 215.992188 C 197.25 199.679688 195.605469 186.359375 187.296875 175.324219 C 179.753906 165.300781 167.789062 158.632812 157.234375 152.75 C 148.296875 147.761719 139.851562 143.054688 135.859375 137.25 C 130.800781 129.894531 131.839844 118.375 133.035156 105.035156 C 134.019531 94.089844 135.136719 81.683594 132.9375 69.480469 C 131.429688 61.097656 128.5 53.632812 124.078125 46.953125 C 121.058594 42.398438 117.34375 38.207031 112.90625 34.335938 C 109.046875 30.96875 104.972656 28.300781 100.800781 26.410156 C 96.792969 24.585938 92.597656 23.433594 88.222656 22.945312 C 80.207031 22.058594 71.644531 23.398438 62.039062 27.039062 C 48.105469 32.324219 33.703125 41.808594 18.675781 52.585938 C 14.542969 55.546875 10.363281 58.609375 6.132812 61.707031 C 4.183594 63.136719 2.203125 64.585938 0.207031 66.039062 Z M 0.207031 66.039062 "/></g></g><mask id="03ea18c881"><g filter="url(#bbdd41f68d)"><rect x="0" width="768" y="0" height="576" style="fill:#000000;fill-opacity:0.42;stroke:none;"/></g></mask></g><g clip-rule="nonzero" clip-path="url(#6e857579de)"><path style=" stroke:none;fill-rule:nonzero;fill:#231f20;fill-opacity:1;" d="M 318.421875 563.558594 C 319.515625 562.101562 319.996094 560.414062 320.246094 558.585938 C 320.449219 557.09375 320.238281 555.675781 319.550781 554.464844 C 318.699219 552.957031 317.425781 552.453125 316.410156 553.203125 C 315.390625 553.960938 314.9375 555.691406 315.351562 557.597656 C 315.871094 560.007812 316.855469 561.96875 318.421875 563.558594 Z M 317.785156 564.617188 C 317.101562 563.695312 316.46875 562.96875 315.949219 562.109375 C 314.980469 560.515625 314.246094 558.734375 314.175781 556.539062 C 314.09375 553.976562 314.871094 552.257812 316.429688 551.558594 C 317.90625 550.890625 319.601562 551.863281 320.441406 553.894531 C 321.4375 556.285156 321.335938 558.769531 320.59375 561.21875 C 320.257812 562.335938 319.765625 563.359375 319.304688 564.523438 C 321.449219 566.761719 323.871094 568 326.382812 568.828125 C 331.007812 570.347656 335.664062 570.136719 340.328125 569.152344 C 343.828125 568.414062 347.3125 567.179688 350.886719 567.976562 C 352.058594 568.238281 353.199219 568.808594 354.320312 569.511719 C 349.84375 567.945312 345.464844 568.914062 341.066406 570.070312 C 334.503906 571.796875 328.011719 571.738281 321.75 567.90625 C 320.667969 567.246094 319.644531 566.382812 318.542969 565.574219 C 314.039062 570.953125 308.5625 572.300781 302.953125 573.117188 C 297.316406 573.941406 291.671875 574.066406 286.027344 573.5 C 279.855469 572.878906 273.71875 571.734375 267.714844 569.566406 C 261.886719 567.464844 256.125 564.964844 250.316406 562.742188 C 246.40625 561.246094 242.429688 560.035156 238.367188 561.050781 C 236.65625 561.480469 234.964844 562.398438 233.367188 563.414062 C 231.992188 564.285156 231.234375 566.746094 231.601562 568.167969 C 231.980469 569.640625 233.4375 570.277344 235.160156 569.417969 C 236.3125 568.847656 237.371094 567.890625 238.457031 567.066406 C 239.101562 566.578125 239.714844 566.003906 240.570312 565.769531 C 240.4375 566.199219 240.375 566.746094 240.15625 567.042969 C 238.265625 569.59375 236.164062 571.511719 233.433594 571.328125 C 230.8125 571.15625 229.636719 568.109375 230.925781 564.820312 C 231.578125 563.15625 232.546875 561.980469 233.765625 561.195312 C 237.378906 558.875 241.15625 558.667969 244.996094 559.386719 C 250.941406 560.503906 256.617188 563.167969 262.332031 565.59375 C 268.421875 568.171875 274.597656 570.128906 280.910156 571.246094 C 286.964844 572.320312 293.03125 572.492188 299.109375 572.097656 C 303.410156 571.820312 307.6875 571.152344 311.828125 569.339844 C 313.949219 568.410156 315.925781 567.058594 317.785156 564.617188 "/></g><g clip-rule="nonzero" clip-path="url(#a415ee4c58)"><path style=" stroke:none;fill-rule:nonzero;fill:#231f20;fill-opacity:1;" d="M 404.636719 563.808594 C 406.394531 562.035156 407.378906 560.183594 407.910156 557.851562 C 408.40625 555.667969 407.964844 553.886719 406.789062 553.140625 C 405.625 552.398438 404.027344 553.238281 403.464844 555.207031 C 403.140625 556.347656 402.992188 557.804688 403.179688 558.984375 C 403.429688 560.570312 404.074219 562.023438 404.636719 563.808594 Z M 369.085938 569.609375 C 371.0625 567.746094 373.28125 567.578125 375.464844 567.773438 C 377.976562 568.003906 380.472656 568.621094 382.96875 569.140625 C 388.730469 570.328125 394.441406 570.472656 399.988281 567.476562 C 401.382812 566.726562 402.695312 565.679688 403.859375 564.890625 C 403.25 562.5 402.542969 560.488281 402.234375 558.359375 C 401.78125 555.242188 403.148438 552.308594 405.128906 551.53125 C 407.097656 550.757812 408.992188 552.640625 409.152344 555.566406 C 409.292969 558.125 408.519531 560.210938 407.402344 562.070312 C 406.878906 562.941406 406.261719 563.691406 405.46875 564.800781 C 406.683594 565.894531 407.757812 567.015625 408.925781 567.871094 C 411.589844 569.832031 414.511719 570.570312 417.441406 571.175781 C 423.800781 572.484375 430.207031 572.609375 436.605469 572.039062 C 442.992188 571.464844 449.320312 570.132812 455.515625 567.695312 C 461.316406 565.414062 467.097656 563.042969 472.910156 560.824219 C 476.355469 559.511719 479.867188 558.882812 483.449219 559.078125 C 485.753906 559.207031 487.921875 560.085938 489.953125 561.5 C 491.542969 562.601562 492.757812 564.40625 492.867188 567.191406 C 492.945312 569.179688 492.195312 570.636719 490.886719 571.160156 C 488.273438 572.207031 484.058594 569.46875 482.871094 565.519531 C 483.484375 565.980469 484.089844 566.453125 484.703125 566.902344 C 485.890625 567.78125 487.035156 568.832031 488.28125 569.464844 C 489.890625 570.28125 491.316406 569.613281 491.714844 568.222656 C 492.113281 566.832031 491.371094 564.347656 489.992188 563.453125 C 488.398438 562.421875 486.710938 561.515625 484.996094 561.054688 C 481.496094 560.109375 478.011719 560.9375 474.617188 562.183594 C 470.871094 563.558594 467.1875 565.277344 463.464844 566.773438 C 455.691406 569.90625 447.800781 572.113281 439.746094 573.179688 C 432.910156 574.082031 426.097656 573.976562 419.285156 573.003906 C 415.910156 572.527344 412.566406 571.625 409.449219 569.640625 C 407.800781 568.589844 406.28125 567.089844 404.566406 565.679688 C 401.878906 568.09375 398.765625 569.675781 395.445312 570.480469 C 391.753906 571.375 388.058594 571.351562 384.367188 570.554688 C 382.136719 570.070312 379.929688 569.390625 377.695312 568.992188 C 374.808594 568.484375 371.921875 568.59375 369.085938 569.609375 "/></g><g clip-rule="nonzero" clip-path="url(#dbbc50aef8)"><path style=" stroke:none;fill-rule:nonzero;fill:#cb6ce6;fill-opacity:1;" d="M 352.128906 552.914062 C 350.875 550.878906 348.425781 549.804688 343.679688 549.546875 C 343.449219 549.542969 343.25 549.375 343.210938 549.144531 C 343.167969 548.878906 343.34375 548.632812 343.609375 548.585938 C 347.761719 547.882812 350.339844 547.375 352.097656 545.875 C 353.859375 544.375 354.890625 541.800781 355.988281 536.941406 C 356.039062 536.722656 356.234375 536.5625 356.464844 536.566406 C 356.730469 536.570312 356.941406 536.785156 356.941406 537.050781 C 356.804688 548.339844 360.269531 548.761719 366.117188 549.46875 L 366.722656 549.539062 L 366.71875 549.542969 C 366.964844 549.570312 367.148438 549.78125 367.144531 550.03125 C 367.136719 550.296875 366.917969 550.507812 366.652344 550.5 C 362.503906 550.390625 360.019531 551.078125 358.328125 552.910156 C 356.601562 554.777344 355.625 557.882812 354.53125 562.566406 L 354.53125 562.5625 C 354.484375 562.777344 354.296875 562.933594 354.070312 562.9375 C 353.800781 562.941406 353.585938 562.726562 353.582031 562.460938 C 353.527344 558.140625 353.40625 554.988281 352.128906 552.914062 M 347 548.949219 C 350.050781 549.511719 351.859375 550.640625 352.949219 552.410156 C 353.960938 554.054688 354.3125 556.207031 354.453125 558.949219 C 355.300781 555.9375 356.222656 553.765625 357.617188 552.253906 C 358.773438 551.003906 360.226562 550.226562 362.1875 549.835938 C 358.695312 549.019531 356.519531 547.144531 356.0625 540.535156 C 355.175781 543.523438 354.183594 545.363281 352.722656 546.609375 C 351.316406 547.8125 349.519531 548.425781 347 548.949219 Z M 347 548.949219 "/></g><g clip-rule="nonzero" clip-path="url(#a2813c760a)"><path style=" stroke:none;fill-rule:nonzero;fill:#cb6ce6;fill-opacity:1;" d="M 358.511719 561.28125 L 363.496094 560.597656 L 364.859375 554.800781 C 364.910156 554.585938 365.101562 554.429688 365.332031 554.429688 C 365.597656 554.429688 365.8125 554.648438 365.808594 554.914062 L 365.746094 560.832031 L 370.222656 561.464844 C 370.4375 561.484375 370.621094 561.648438 370.65625 561.875 C 370.695312 562.136719 370.511719 562.382812 370.246094 562.421875 L 365.554688 563.109375 L 364.175781 569.566406 L 364.171875 569.566406 C 364.125 569.785156 363.933594 569.949219 363.703125 569.949219 C 363.4375 569.949219 363.21875 569.734375 363.21875 569.46875 L 363.230469 563.011719 L 358.5 562.234375 C 358.296875 562.203125 358.125 562.039062 358.097656 561.824219 C 358.0625 561.558594 358.246094 561.316406 358.511719 561.28125 M 363.925781 561.507812 L 361.808594 561.800781 L 363.789062 562.125 C 364.035156 562.167969 364.207031 562.382812 364.195312 562.625 L 364.191406 564.867188 L 364.679688 562.582031 C 364.722656 562.378906 364.886719 562.230469 365.082031 562.203125 L 366.789062 561.953125 L 365.191406 561.726562 C 364.941406 561.691406 364.761719 561.46875 364.777344 561.21875 L 364.796875 559.269531 L 364.359375 561.136719 C 364.308594 561.347656 364.128906 561.492188 363.925781 561.507812 Z M 363.925781 561.507812 "/></g><g clip-rule="nonzero" clip-path="url(#2e7698955f)"><path style=" stroke:none;fill-rule:nonzero;fill:#cb6ce6;fill-opacity:1;" d="M 363.507812 544.007812 L 372.140625 542.816406 L 374.492188 532.824219 C 374.542969 532.609375 374.734375 532.449219 374.964844 532.449219 C 375.230469 532.453125 375.445312 532.667969 375.441406 532.9375 L 375.332031 543.203125 L 383.1875 544.3125 C 383.402344 544.332031 383.585938 544.5 383.621094 544.726562 C 383.660156 544.988281 383.476562 545.234375 383.210938 545.273438 L 375.066406 546.464844 L 372.691406 557.585938 C 372.644531 557.800781 372.449219 557.964844 372.21875 557.964844 C 371.953125 557.964844 371.738281 557.75 371.738281 557.484375 L 371.753906 546.3125 L 363.496094 544.960938 C 363.292969 544.929688 363.121094 544.765625 363.09375 544.546875 C 363.058594 544.285156 363.242188 544.042969 363.507812 544.007812 M 372.570312 543.730469 L 366.804688 544.527344 L 372.3125 545.429688 C 372.558594 545.46875 372.730469 545.6875 372.71875 545.929688 L 372.707031 552.886719 L 374.191406 545.9375 C 374.234375 545.734375 374.398438 545.589844 374.59375 545.558594 L 379.753906 544.804688 L 374.777344 544.101562 C 374.527344 544.066406 374.347656 543.839844 374.363281 543.589844 L 374.433594 537.289062 L 373.003906 543.359375 C 372.957031 543.570312 372.777344 543.714844 372.570312 543.730469 Z M 372.570312 543.730469 "/></g><g clip-rule="nonzero" clip-path="url(#ea6777d41d)"><path style=" stroke:none;fill-rule:nonzero;fill:#000000;fill-opacity:1;" d="M 0.0625 359.25 L 1.433594 358.738281 L 0.0625 358.738281 Z M 0.0625 359.25 "/></g><g clip-rule="nonzero" clip-path="url(#725f0e09e8)"><path style=" stroke:none;fill-rule:nonzero;fill:#000000;fill-opacity:1;" d="M 0.0625 50.8125 L 0.0625 51.324219 L 26.148438 51.324219 L 26.148438 50.8125 Z M 50.90625 0 L 50.90625 26.070312 L 51.421875 26.070312 L 51.421875 0 Z M 261.894531 50.8125 C 261.253906 50.597656 260.648438 50.304688 260.085938 49.929688 C 259.523438 49.554688 259.019531 49.113281 258.574219 48.601562 C 258.128906 48.089844 257.757812 47.53125 257.460938 46.921875 C 257.167969 46.3125 256.957031 45.675781 256.832031 45.007812 L 256.832031 0 L 256.320312 0 L 256.320312 46.007812 C 255.945312 47.140625 255.332031 48.132812 254.488281 48.976562 C 253.640625 49.824219 252.648438 50.433594 251.515625 50.8125 L 210.542969 50.8125 C 209.898438 50.597656 209.296875 50.304688 208.730469 49.929688 C 208.167969 49.554688 207.664062 49.113281 207.21875 48.601562 C 206.773438 48.089844 206.402344 47.53125 206.109375 46.921875 C 205.8125 46.3125 205.605469 45.675781 205.480469 45.007812 L 205.480469 0 L 204.964844 0 L 204.964844 46.007812 C 204.589844 47.140625 203.976562 48.132812 203.132812 48.976562 C 202.285156 49.824219 201.296875 50.433594 200.160156 50.8125 L 159.1875 50.8125 C 158.542969 50.597656 157.941406 50.304688 157.378906 49.929688 C 156.8125 49.554688 156.308594 49.113281 155.863281 48.601562 C 155.417969 48.089844 155.050781 47.53125 154.753906 46.921875 C 154.457031 46.3125 154.25 45.675781 154.125 45.007812 L 154.125 25.40625 L 153.613281 25.40625 L 153.613281 46.007812 C 153.234375 47.140625 152.625 48.132812 151.777344 48.976562 C 150.933594 49.824219 149.941406 50.433594 148.804688 50.8125 L 107.832031 50.8125 C 107.191406 50.597656 106.585938 50.304688 106.023438 49.929688 C 105.460938 49.554688 104.953125 49.113281 104.511719 48.601562 C 104.066406 48.089844 103.695312 47.53125 103.398438 46.921875 C 103.105469 46.3125 102.894531 45.675781 102.769531 45.007812 L 102.769531 0 L 102.257812 0 L 102.257812 46.007812 C 101.878906 47.140625 101.269531 48.132812 100.421875 48.976562 C 99.578125 49.824219 98.585938 50.433594 97.453125 50.8125 L 76.773438 50.8125 L 76.773438 51.324219 L 96.449219 51.324219 C 97.113281 51.449219 97.75 51.660156 98.359375 51.953125 C 98.972656 52.25 99.53125 52.617188 100.042969 53.0625 C 100.550781 53.507812 100.996094 54.011719 101.371094 54.578125 C 101.746094 55.140625 102.039062 55.742188 102.253906 56.386719 L 102.253906 97.328125 C 101.875 98.460938 101.265625 99.453125 100.417969 100.296875 C 99.574219 101.140625 98.582031 101.753906 97.449219 102.128906 L 56.480469 102.128906 C 55.835938 101.917969 55.230469 101.621094 54.667969 101.246094 C 54.105469 100.871094 53.601562 100.429688 53.15625 99.917969 C 52.710938 99.40625 52.339844 98.847656 52.042969 98.238281 C 51.75 97.628906 51.539062 96.988281 51.417969 96.324219 L 51.417969 76.660156 L 50.90625 76.660156 L 50.90625 97.328125 C 50.53125 98.460938 49.917969 99.453125 49.074219 100.296875 C 48.226562 101.140625 47.238281 101.753906 46.101562 102.128906 L 25.042969 102.128906 L 25.042969 102.644531 L 45.097656 102.644531 C 45.761719 102.765625 46.402344 102.976562 47.011719 103.269531 C 47.621094 103.566406 48.179688 103.933594 48.691406 104.378906 C 49.203125 104.824219 49.648438 105.328125 50.023438 105.894531 C 50.398438 106.457031 50.695312 107.058594 50.90625 107.703125 L 50.90625 148.648438 C 50.53125 149.78125 49.917969 150.773438 49.074219 151.617188 C 48.226562 152.464844 47.238281 153.074219 46.101562 153.453125 L 0.0625 153.453125 L 0.0625 153.964844 L 45.097656 153.964844 C 45.761719 154.089844 46.402344 154.296875 47.011719 154.59375 C 47.621094 154.886719 48.179688 155.257812 48.691406 155.703125 C 49.203125 156.144531 49.648438 156.652344 50.023438 157.214844 C 50.398438 157.777344 50.695312 158.382812 50.90625 159.023438 L 50.90625 199.96875 C 50.53125 201.105469 49.917969 202.09375 49.074219 202.9375 C 48.226562 203.785156 47.238281 204.394531 46.101562 204.773438 L 0.0625 204.773438 L 0.0625 205.285156 L 45.097656 205.285156 C 45.761719 205.410156 46.402344 205.617188 47.011719 205.914062 C 47.621094 206.207031 48.179688 206.578125 48.691406 207.023438 C 49.203125 207.46875 49.648438 207.972656 50.023438 208.535156 C 50.398438 209.097656 50.695312 209.703125 50.90625 210.34375 L 50.90625 251.292969 C 50.53125 252.425781 49.917969 253.414062 49.074219 254.261719 C 48.226562 255.105469 47.238281 255.71875 46.101562 256.09375 L 0.0625 256.09375 L 0.0625 256.605469 L 45.097656 256.605469 C 45.761719 256.730469 46.402344 256.941406 47.011719 257.234375 C 47.621094 257.53125 48.179688 257.898438 48.691406 258.34375 C 49.203125 258.789062 49.648438 259.292969 50.023438 259.855469 C 50.398438 260.421875 50.695312 261.023438 50.90625 261.667969 L 50.90625 302.613281 C 50.53125 303.746094 49.917969 304.738281 49.074219 305.582031 C 48.226562 306.425781 47.238281 307.039062 46.101562 307.414062 L 0.0625 307.414062 L 0.0625 307.929688 L 45.097656 307.929688 C 45.761719 308.050781 46.398438 308.261719 47.011719 308.558594 C 47.621094 308.851562 48.179688 309.222656 48.691406 309.667969 C 49.203125 310.109375 49.648438 310.613281 50.023438 311.179688 C 50.398438 311.742188 50.695312 312.34375 50.90625 312.988281 L 50.90625 340.195312 L 51.421875 340.003906 L 51.421875 313.988281 C 51.5625 313.238281 51.808594 312.523438 52.164062 311.847656 C 52.523438 311.167969 52.972656 310.5625 53.511719 310.019531 C 54.054688 309.480469 54.660156 309.03125 55.339844 308.671875 C 56.015625 308.316406 56.730469 308.070312 57.484375 307.929688 L 81.414062 307.929688 L 81.414062 307.414062 L 56.480469 307.414062 C 55.835938 307.203125 55.234375 306.910156 54.667969 306.535156 C 54.105469 306.15625 53.601562 305.714844 53.15625 305.207031 C 52.710938 304.695312 52.339844 304.136719 52.046875 303.527344 C 51.75 302.917969 51.539062 302.28125 51.417969 301.613281 L 51.417969 262.667969 C 51.554688 261.914062 51.804688 261.203125 52.160156 260.523438 C 52.519531 259.847656 52.964844 259.238281 53.507812 258.699219 C 54.046875 258.15625 54.65625 257.707031 55.335938 257.351562 C 56.011719 256.996094 56.726562 256.746094 57.476562 256.605469 L 81.414062 256.605469 L 81.414062 256.09375 L 56.480469 256.09375 C 55.835938 255.882812 55.234375 255.585938 54.667969 255.210938 C 54.105469 254.835938 53.601562 254.394531 53.15625 253.882812 C 52.710938 253.375 52.339844 252.8125 52.046875 252.203125 C 51.75 251.597656 51.539062 250.957031 51.417969 250.292969 L 51.417969 211.347656 C 51.554688 210.59375 51.804688 209.878906 52.160156 209.203125 C 52.519531 208.527344 52.964844 207.917969 53.507812 207.378906 C 54.046875 206.835938 54.65625 206.386719 55.335938 206.03125 C 56.011719 205.675781 56.726562 205.425781 57.476562 205.285156 L 81.414062 205.285156 L 81.414062 204.773438 L 56.480469 204.773438 C 55.835938 204.558594 55.234375 204.265625 54.667969 203.890625 C 54.105469 203.515625 53.601562 203.074219 53.15625 202.5625 C 52.710938 202.050781 52.339844 201.492188 52.046875 200.882812 C 51.75 200.273438 51.539062 199.636719 51.417969 198.972656 L 51.417969 160.023438 C 51.554688 159.273438 51.804688 158.558594 52.160156 157.882812 C 52.519531 157.207031 52.964844 156.597656 53.507812 156.054688 C 54.046875 155.515625 54.65625 155.066406 55.335938 154.710938 C 56.011719 154.351562 56.726562 154.105469 57.476562 153.964844 L 96.449219 153.964844 C 97.113281 154.089844 97.75 154.296875 98.359375 154.59375 C 98.972656 154.886719 99.53125 155.257812 100.042969 155.703125 C 100.550781 156.148438 100.996094 156.652344 101.371094 157.214844 C 101.746094 157.777344 102.039062 158.382812 102.253906 159.023438 L 102.253906 182.265625 L 102.765625 182.265625 L 102.765625 160.023438 C 102.90625 159.273438 103.15625 158.558594 103.511719 157.882812 C 103.867188 157.203125 104.316406 156.597656 104.855469 156.054688 C 105.398438 155.515625 106.007812 155.066406 106.683594 154.710938 C 107.359375 154.351562 108.074219 154.105469 108.828125 153.964844 L 134.25 153.964844 L 134.25 153.453125 L 107.832031 153.453125 C 107.191406 153.238281 106.585938 152.945312 106.023438 152.570312 C 105.460938 152.195312 104.953125 151.75 104.511719 151.242188 C 104.066406 150.730469 103.695312 150.171875 103.398438 149.5625 C 103.105469 148.953125 102.894531 148.316406 102.769531 147.648438 L 102.769531 108.695312 C 102.910156 107.945312 103.160156 107.230469 103.515625 106.554688 C 103.871094 105.878906 104.320312 105.273438 104.863281 104.730469 C 105.402344 104.191406 106.011719 103.742188 106.6875 103.386719 C 107.363281 103.03125 108.078125 102.78125 108.828125 102.644531 L 147.808594 102.644531 C 148.472656 102.765625 149.109375 102.976562 149.71875 103.269531 C 150.328125 103.566406 150.890625 103.9375 151.398438 104.382812 C 151.910156 104.824219 152.351562 105.328125 152.730469 105.894531 C 153.105469 106.457031 153.398438 107.058594 153.613281 107.703125 L 153.613281 134.542969 L 154.125 134.542969 L 154.125 108.695312 C 154.265625 107.945312 154.511719 107.230469 154.871094 106.554688 C 155.226562 105.875 155.675781 105.265625 156.214844 104.726562 C 156.757812 104.1875 157.367188 103.738281 158.042969 103.378906 C 158.722656 103.023438 159.4375 102.777344 160.1875 102.636719 L 185.539062 102.636719 L 185.539062 102.125 L 159.1875 102.125 C 158.542969 101.910156 157.941406 101.617188 157.378906 101.242188 C 156.8125 100.867188 156.308594 100.425781 155.863281 99.914062 C 155.417969 99.402344 155.050781 98.84375 154.753906 98.234375 C 154.460938 97.625 154.25 96.988281 154.125 96.324219 L 154.125 57.378906 C 154.265625 56.628906 154.515625 55.914062 154.871094 55.238281 C 155.226562 54.558594 155.675781 53.953125 156.21875 53.410156 C 156.757812 52.871094 157.367188 52.421875 158.046875 52.066406 C 158.722656 51.710938 159.4375 51.460938 160.1875 51.320312 L 199.160156 51.320312 C 199.828125 51.445312 200.464844 51.65625 201.074219 51.949219 C 201.683594 52.246094 202.242188 52.613281 202.753906 53.058594 C 203.265625 53.503906 203.707031 54.007812 204.082031 54.570312 C 204.457031 55.136719 204.753906 55.738281 204.964844 56.378906 L 204.964844 82.847656 L 205.480469 82.847656 L 205.480469 57.378906 C 205.621094 56.628906 205.867188 55.914062 206.226562 55.238281 C 206.582031 54.558594 207.03125 53.953125 207.570312 53.410156 C 208.113281 52.871094 208.722656 52.421875 209.398438 52.066406 C 210.078125 51.710938 210.789062 51.460938 211.542969 51.320312 L 250.515625 51.320312 C 251.179688 51.445312 251.820312 51.65625 252.429688 51.949219 C 253.039062 52.246094 253.597656 52.613281 254.109375 53.058594 C 254.621094 53.503906 255.0625 54.007812 255.4375 54.570312 C 255.8125 55.136719 256.105469 55.738281 256.320312 56.378906 L 256.320312 93.894531 L 256.832031 93.894531 L 256.832031 57.378906 C 256.972656 56.628906 257.222656 55.914062 257.578125 55.238281 C 257.9375 54.558594 258.386719 53.953125 258.925781 53.410156 C 259.46875 52.871094 260.078125 52.421875 260.753906 52.066406 C 261.429688 51.710938 262.144531 51.460938 262.898438 51.320312 L 297.179688 51.320312 L 297.179688 50.8125 Z M 102.257812 148.648438 C 101.878906 149.78125 101.269531 150.773438 100.421875 151.617188 C 99.578125 152.464844 98.585938 153.074219 97.453125 153.453125 L 56.480469 153.453125 C 55.835938 153.238281 55.234375 152.945312 54.667969 152.570312 C 54.105469 152.195312 53.601562 151.75 53.15625 151.242188 C 52.710938 150.730469 52.339844 150.171875 52.046875 149.5625 C 51.75 148.953125 51.539062 148.316406 51.417969 147.648438 L 51.417969 108.695312 C 51.554688 107.945312 51.804688 107.230469 52.160156 106.554688 C 52.519531 105.878906 52.964844 105.269531 53.507812 104.726562 C 54.046875 104.1875 54.65625 103.738281 55.335938 103.382812 C 56.011719 103.023438 56.726562 102.777344 57.476562 102.636719 L 96.449219 102.636719 C 97.113281 102.761719 97.75 102.96875 98.359375 103.265625 C 98.972656 103.558594 99.53125 103.929688 100.042969 104.375 C 100.550781 104.820312 100.996094 105.324219 101.371094 105.886719 C 101.746094 106.449219 102.039062 107.054688 102.253906 107.695312 Z M 153.613281 97.328125 C 153.234375 98.460938 152.621094 99.453125 151.777344 100.296875 C 150.929688 101.140625 149.941406 101.753906 148.804688 102.128906 L 107.832031 102.128906 C 107.191406 101.917969 106.585938 101.621094 106.023438 101.246094 C 105.457031 100.871094 104.953125 100.429688 104.507812 99.917969 C 104.0625 99.40625 103.695312 98.847656 103.398438 98.238281 C 103.105469 97.628906 102.894531 96.988281 102.769531 96.324219 L 102.769531 57.378906 C 102.910156 56.628906 103.160156 55.914062 103.515625 55.238281 C 103.871094 54.5625 104.320312 53.953125 104.859375 53.414062 C 105.402344 52.871094 106.007812 52.421875 106.6875 52.066406 C 107.363281 51.710938 108.078125 51.460938 108.828125 51.320312 L 147.808594 51.320312 C 148.472656 51.445312 149.109375 51.65625 149.71875 51.949219 C 150.328125 52.246094 150.890625 52.613281 151.398438 53.058594 C 151.910156 53.503906 152.351562 54.007812 152.730469 54.570312 C 153.105469 55.136719 153.398438 55.738281 153.613281 56.378906 Z M 307.675781 0 L 307.675781 40.429688 L 308.1875 40.429688 L 308.1875 0 Z M 307.675781 0 "/></g><g clip-rule="nonzero" clip-path="url(#54aaa71eaa)"><path style=" stroke:none;fill-rule:nonzero;fill:#000000;fill-opacity:1;" d="M 767.925781 359.25 L 766.558594 358.738281 L 767.925781 358.738281 Z M 767.925781 359.25 "/></g><g clip-rule="nonzero" clip-path="url(#dfd458a323)"><path style=" stroke:none;fill-rule:nonzero;fill:#000000;fill-opacity:1;" d="M 767.925781 50.8125 L 767.925781 51.324219 L 741.839844 51.324219 L 741.839844 50.8125 Z M 717.082031 0 L 717.082031 26.070312 L 716.570312 26.070312 L 716.570312 0 Z M 506.09375 50.8125 C 506.734375 50.597656 507.339844 50.304688 507.902344 49.929688 C 508.46875 49.554688 508.972656 49.113281 509.417969 48.601562 C 509.863281 48.089844 510.230469 47.53125 510.527344 46.921875 C 510.820312 46.3125 511.03125 45.675781 511.15625 45.007812 L 511.15625 0 L 511.667969 0 L 511.667969 46.007812 C 512.046875 47.140625 512.65625 48.132812 513.503906 48.976562 C 514.347656 49.824219 515.339844 50.433594 516.476562 50.8125 L 557.449219 50.8125 C 558.089844 50.597656 558.695312 50.304688 559.257812 49.929688 C 559.820312 49.554688 560.324219 49.113281 560.769531 48.601562 C 561.214844 48.089844 561.585938 47.53125 561.882812 46.921875 C 562.175781 46.3125 562.386719 45.675781 562.511719 45.007812 L 562.511719 0 L 563.023438 0 L 563.023438 46.007812 C 563.398438 47.140625 564.011719 48.132812 564.855469 48.976562 C 565.703125 49.824219 566.695312 50.433594 567.828125 50.8125 L 608.800781 50.8125 C 609.445312 50.597656 610.046875 50.304688 610.613281 49.929688 C 611.175781 49.554688 611.679688 49.113281 612.125 48.601562 C 612.570312 48.089844 612.941406 47.53125 613.234375 46.921875 C 613.53125 46.3125 613.742188 45.675781 613.863281 45.007812 L 613.863281 25.40625 L 614.378906 25.40625 L 614.378906 46.007812 C 614.753906 47.140625 615.367188 48.132812 616.210938 48.976562 C 617.058594 49.824219 618.046875 50.433594 619.183594 50.8125 L 660.15625 50.8125 C 660.800781 50.597656 661.402344 50.304688 661.964844 49.929688 C 662.53125 49.554688 663.035156 49.113281 663.480469 48.601562 C 663.925781 48.089844 664.292969 47.53125 664.589844 46.921875 C 664.886719 46.3125 665.09375 45.675781 665.21875 45.007812 L 665.21875 0 L 665.730469 0 L 665.730469 46.007812 C 666.109375 47.140625 666.71875 48.132812 667.566406 48.976562 C 668.410156 49.824219 669.402344 50.433594 670.539062 50.8125 L 691.214844 50.8125 L 691.214844 51.324219 L 671.542969 51.324219 C 670.875 51.449219 670.238281 51.660156 669.628906 51.953125 C 669.019531 52.25 668.457031 52.617188 667.949219 53.0625 C 667.4375 53.507812 666.996094 54.011719 666.621094 54.578125 C 666.246094 55.140625 665.949219 55.742188 665.734375 56.386719 L 665.734375 97.328125 C 666.113281 98.460938 666.726562 99.453125 667.570312 100.296875 C 668.417969 101.140625 669.40625 101.753906 670.542969 102.128906 L 711.511719 102.128906 C 712.152344 101.917969 712.757812 101.621094 713.320312 101.246094 C 713.886719 100.871094 714.390625 100.429688 714.835938 99.917969 C 715.28125 99.40625 715.648438 98.847656 715.945312 98.238281 C 716.238281 97.628906 716.449219 96.988281 716.574219 96.324219 L 716.574219 76.660156 L 717.082031 76.660156 L 717.082031 97.328125 C 717.460938 98.460938 718.070312 99.453125 718.917969 100.296875 C 719.761719 101.140625 720.753906 101.753906 721.886719 102.128906 L 742.945312 102.128906 L 742.945312 102.644531 L 722.894531 102.644531 C 722.226562 102.765625 721.589844 102.976562 720.980469 103.269531 C 720.367188 103.566406 719.808594 103.933594 719.296875 104.378906 C 718.785156 104.824219 718.34375 105.328125 717.964844 105.894531 C 717.589844 106.457031 717.296875 107.058594 717.082031 107.703125 L 717.082031 148.648438 C 717.460938 149.78125 718.070312 150.773438 718.917969 151.617188 C 719.761719 152.464844 720.753906 153.074219 721.886719 153.453125 L 767.925781 153.453125 L 767.925781 153.964844 L 722.894531 153.964844 C 722.226562 154.089844 721.589844 154.296875 720.980469 154.59375 C 720.367188 154.886719 719.808594 155.257812 719.296875 155.703125 C 718.785156 156.144531 718.34375 156.652344 717.964844 157.214844 C 717.589844 157.777344 717.296875 158.382812 717.082031 159.023438 L 717.082031 199.96875 C 717.460938 201.105469 718.070312 202.09375 718.917969 202.9375 C 719.761719 203.785156 720.753906 204.394531 721.886719 204.773438 L 767.925781 204.773438 L 767.925781 205.285156 L 722.894531 205.285156 C 722.226562 205.410156 721.589844 205.617188 720.980469 205.914062 C 720.367188 206.207031 719.808594 206.578125 719.296875 207.023438 C 718.785156 207.46875 718.34375 207.972656 717.964844 208.535156 C 717.589844 209.097656 717.296875 209.703125 717.082031 210.34375 L 717.082031 251.292969 C 717.460938 252.425781 718.070312 253.414062 718.917969 254.261719 C 719.761719 255.105469 720.753906 255.71875 721.886719 256.09375 L 767.925781 256.09375 L 767.925781 256.605469 L 722.894531 256.605469 C 722.226562 256.730469 721.589844 256.941406 720.980469 257.234375 C 720.367188 257.53125 719.808594 257.898438 719.296875 258.34375 C 718.785156 258.789062 718.34375 259.292969 717.964844 259.855469 C 717.589844 260.421875 717.296875 261.023438 717.082031 261.667969 L 717.082031 302.613281 C 717.460938 303.746094 718.070312 304.738281 718.917969 305.582031 C 719.761719 306.425781 720.753906 307.039062 721.886719 307.414062 L 767.925781 307.414062 L 767.925781 307.929688 L 722.894531 307.929688 C 722.226562 308.050781 721.589844 308.261719 720.980469 308.558594 C 720.367188 308.851562 719.808594 309.222656 719.296875 309.667969 C 718.785156 310.109375 718.34375 310.613281 717.96875 311.179688 C 717.589844 311.742188 717.296875 312.34375 717.082031 312.988281 L 717.082031 340.195312 L 716.570312 340.003906 L 716.570312 313.988281 C 716.429688 313.238281 716.179688 312.523438 715.824219 311.847656 C 715.46875 311.167969 715.019531 310.5625 714.476562 310.019531 C 713.9375 309.480469 713.328125 309.03125 712.652344 308.671875 C 711.972656 308.316406 711.257812 308.070312 710.507812 307.929688 L 686.574219 307.929688 L 686.574219 307.414062 L 711.511719 307.414062 C 712.152344 307.203125 712.757812 306.910156 713.320312 306.535156 C 713.882812 306.15625 714.390625 305.714844 714.832031 305.207031 C 715.277344 304.695312 715.648438 304.136719 715.945312 303.527344 C 716.238281 302.917969 716.449219 302.28125 716.574219 301.613281 L 716.574219 262.667969 C 716.433594 261.914062 716.183594 261.203125 715.828125 260.523438 C 715.472656 259.847656 715.023438 259.238281 714.480469 258.699219 C 713.941406 258.15625 713.332031 257.707031 712.65625 257.351562 C 711.976562 256.996094 711.261719 256.746094 710.511719 256.605469 L 686.574219 256.605469 L 686.574219 256.09375 L 711.511719 256.09375 C 712.152344 255.882812 712.757812 255.585938 713.320312 255.210938 C 713.882812 254.835938 714.390625 254.394531 714.832031 253.882812 C 715.277344 253.375 715.648438 252.8125 715.945312 252.203125 C 716.238281 251.597656 716.449219 250.957031 716.574219 250.292969 L 716.574219 211.347656 C 716.433594 210.59375 716.183594 209.878906 715.828125 209.203125 C 715.472656 208.527344 715.023438 207.917969 714.480469 207.378906 C 713.941406 206.835938 713.332031 206.386719 712.65625 206.03125 C 711.976562 205.675781 711.261719 205.425781 710.511719 205.285156 L 686.574219 205.285156 L 686.574219 204.773438 L 711.511719 204.773438 C 712.152344 204.558594 712.757812 204.265625 713.320312 203.890625 C 713.882812 203.515625 714.390625 203.074219 714.832031 202.5625 C 715.277344 202.050781 715.648438 201.492188 715.945312 200.882812 C 716.238281 200.273438 716.449219 199.636719 716.574219 198.972656 L 716.574219 160.023438 C 716.433594 159.273438 716.183594 158.558594 715.828125 157.882812 C 715.472656 157.207031 715.023438 156.597656 714.480469 156.054688 C 713.941406 155.515625 713.332031 155.066406 712.65625 154.710938 C 711.976562 154.351562 711.261719 154.105469 710.511719 153.964844 L 671.542969 153.964844 C 670.875 154.089844 670.238281 154.296875 669.628906 154.59375 C 669.019531 154.886719 668.457031 155.257812 667.949219 155.703125 C 667.4375 156.148438 666.996094 156.652344 666.621094 157.214844 C 666.246094 157.777344 665.949219 158.382812 665.734375 159.023438 L 665.734375 182.265625 L 665.222656 182.265625 L 665.222656 160.023438 C 665.082031 159.273438 664.835938 158.558594 664.480469 157.882812 C 664.121094 157.203125 663.671875 156.597656 663.132812 156.054688 C 662.589844 155.515625 661.984375 155.066406 661.304688 154.710938 C 660.628906 154.351562 659.914062 154.105469 659.160156 153.964844 L 633.738281 153.964844 L 633.738281 153.453125 L 660.15625 153.453125 C 660.800781 153.238281 661.402344 152.945312 661.964844 152.570312 C 662.53125 152.195312 663.035156 151.75 663.480469 151.242188 C 663.925781 150.730469 664.292969 150.171875 664.589844 149.5625 C 664.886719 148.953125 665.09375 148.316406 665.21875 147.648438 L 665.21875 108.695312 C 665.078125 107.945312 664.828125 107.230469 664.472656 106.554688 C 664.117188 105.878906 663.667969 105.273438 663.128906 104.730469 C 662.585938 104.191406 661.980469 103.742188 661.304688 103.386719 C 660.625 103.03125 659.914062 102.78125 659.160156 102.644531 L 620.183594 102.644531 C 619.515625 102.765625 618.878906 102.976562 618.269531 103.269531 C 617.660156 103.566406 617.101562 103.9375 616.589844 104.382812 C 616.078125 104.824219 615.636719 105.328125 615.261719 105.894531 C 614.886719 106.457031 614.589844 107.058594 614.378906 107.703125 L 614.378906 134.542969 L 613.863281 134.542969 L 613.863281 108.695312 C 613.722656 107.945312 613.476562 107.230469 613.121094 106.554688 C 612.761719 105.875 612.3125 105.265625 611.773438 104.726562 C 611.230469 104.1875 610.621094 103.738281 609.945312 103.378906 C 609.269531 103.023438 608.554688 102.777344 607.800781 102.636719 L 582.449219 102.636719 L 582.449219 102.125 L 608.800781 102.125 C 609.445312 101.910156 610.046875 101.617188 610.613281 101.242188 C 611.175781 100.867188 611.679688 100.425781 612.125 99.914062 C 612.570312 99.402344 612.941406 98.84375 613.234375 98.234375 C 613.53125 97.625 613.738281 96.988281 613.863281 96.324219 L 613.863281 57.378906 C 613.722656 56.628906 613.476562 55.914062 613.117188 55.238281 C 612.761719 54.558594 612.3125 53.953125 611.773438 53.410156 C 611.230469 52.871094 610.621094 52.421875 609.945312 52.066406 C 609.265625 51.710938 608.554688 51.460938 607.800781 51.320312 L 568.828125 51.320312 C 568.164062 51.445312 567.523438 51.65625 566.914062 51.949219 C 566.304688 52.246094 565.746094 52.613281 565.234375 53.058594 C 564.722656 53.503906 564.28125 54.007812 563.90625 54.570312 C 563.53125 55.136719 563.238281 55.738281 563.023438 56.378906 L 563.023438 82.847656 L 562.511719 82.847656 L 562.511719 57.378906 C 562.371094 56.628906 562.121094 55.914062 561.765625 55.238281 C 561.40625 54.558594 560.957031 53.953125 560.417969 53.410156 C 559.875 52.871094 559.265625 52.421875 558.589844 52.066406 C 557.914062 51.710938 557.199219 51.460938 556.445312 51.320312 L 517.472656 51.320312 C 516.808594 51.445312 516.171875 51.65625 515.5625 51.949219 C 514.953125 52.246094 514.390625 52.613281 513.878906 53.058594 C 513.371094 53.503906 512.925781 54.007812 512.550781 54.570312 C 512.175781 55.136719 511.882812 55.738281 511.667969 56.378906 L 511.667969 93.894531 L 511.15625 93.894531 L 511.15625 57.378906 C 511.015625 56.628906 510.765625 55.914062 510.410156 55.238281 C 510.054688 54.558594 509.605469 53.953125 509.0625 53.410156 C 508.523438 52.871094 507.914062 52.421875 507.234375 52.066406 C 506.558594 51.710938 505.84375 51.460938 505.09375 51.320312 L 470.8125 51.320312 L 470.8125 50.8125 Z M 665.730469 148.648438 C 666.109375 149.78125 666.722656 150.773438 667.566406 151.617188 C 668.414062 152.464844 669.402344 153.074219 670.539062 153.453125 L 711.511719 153.453125 C 712.152344 153.238281 712.757812 152.945312 713.320312 152.570312 C 713.882812 152.195312 714.390625 151.75 714.832031 151.242188 C 715.277344 150.730469 715.648438 150.171875 715.945312 149.5625 C 716.238281 148.953125 716.449219 148.316406 716.574219 147.648438 L 716.574219 108.695312 C 716.433594 107.945312 716.183594 107.230469 715.828125 106.554688 C 715.472656 105.878906 715.023438 105.269531 714.480469 104.726562 C 713.941406 104.1875 713.332031 103.738281 712.65625 103.382812 C 711.976562 103.023438 711.261719 102.777344 710.511719 102.636719 L 671.542969 102.636719 C 670.875 102.761719 670.238281 102.96875 669.628906 103.265625 C 669.019531 103.558594 668.457031 103.929688 667.949219 104.375 C 667.4375 104.820312 666.996094 105.324219 666.621094 105.886719 C 666.246094 106.449219 665.949219 107.054688 665.734375 107.695312 Z M 614.378906 97.328125 C 614.753906 98.460938 615.367188 99.453125 616.210938 100.296875 C 617.058594 101.140625 618.046875 101.753906 619.183594 102.128906 L 660.15625 102.128906 C 660.800781 101.917969 661.402344 101.621094 661.96875 101.246094 C 662.53125 100.871094 663.035156 100.429688 663.480469 99.917969 C 663.925781 99.40625 664.296875 98.847656 664.589844 98.238281 C 664.886719 97.628906 665.09375 96.988281 665.21875 96.324219 L 665.21875 57.378906 C 665.078125 56.628906 664.832031 55.914062 664.472656 55.238281 C 664.117188 54.5625 663.667969 53.953125 663.128906 53.414062 C 662.589844 52.871094 661.980469 52.421875 661.304688 52.066406 C 660.628906 51.710938 659.914062 51.460938 659.160156 51.320312 L 620.183594 51.320312 C 619.515625 51.445312 618.878906 51.65625 618.269531 51.949219 C 617.660156 52.246094 617.101562 52.613281 616.589844 53.058594 C 616.078125 53.503906 615.636719 54.007812 615.261719 54.570312 C 614.886719 55.136719 614.589844 55.738281 614.378906 56.378906 Z M 460.3125 0 L 460.3125 40.429688 L 459.800781 40.429688 L 459.800781 0 Z M 460.3125 0 "/></g></g></svg>