<svg width="1176" height="1253" viewBox="0 0 1176 1253" fill="none" xmlns="http://www.w3.org/2000/svg">
<g clip-path="url(#clip0_167_21)">
<rect width="403.901" height="1251.87" transform="matrix(-1 0 0 1 405.017 0)" fill="#8C52FF"/>
<g filter="url(#filter0_f_167_21)">
<mask id="mask0_167_21" style="mask-type:luminance" maskUnits="userSpaceOnUse" x="-19" y="-55" width="1033" height="1389">
<path d="M1013.1 -54.6719H-18.1434V1333.32H1013.1V-54.6719Z" fill="white"/>
</mask>
<g mask="url(#mask0_167_21)">
<path d="M1013.1 -54.6719H-19.0785V1333.32H1013.1V-54.6719Z" fill="white"/>
<g filter="url(#filter1_d_167_21)">
<path d="M1013.1 -54.6719H-19.0785V1333.32H1013.1V-54.6719Z" fill="#8C52FF"/>
</g>
</g>
</g>
<path fill-rule="evenodd" clip-rule="evenodd" d="M667.043 168.774C652.521 168.774 640.736 180.56 640.736 195.082C640.736 209.592 652.521 221.377 667.043 221.377C681.56 221.377 693.345 209.592 693.345 195.082C693.345 180.56 681.56 168.774 667.043 168.774ZM667.043 173.057C679.194 173.057 689.062 182.925 689.062 195.082C689.062 207.227 679.194 217.095 667.043 217.095C654.886 217.095 645.019 207.227 645.019 195.082C645.019 182.925 654.886 173.057 667.043 173.057Z" fill="#5E17EB"/>
<mask id="mask1_167_21" style="mask-type:luminance" maskUnits="userSpaceOnUse" x="0" y="0" width="605" height="343">
<path d="M604.334 0.0170898H0.824353V342.163H604.334V0.0170898Z" fill="white"/>
</mask>
<g mask="url(#mask1_167_21)">
<path fill-rule="evenodd" clip-rule="evenodd" d="M603.991 0.0170898C603.991 0.0170898 556.741 117.444 491.504 127.451C451.134 133.651 420.811 111.493 387.048 93.6122C326.071 61.3136 262.775 53.1488 197.8 79.7118C158.401 95.8146 122.877 120.826 99.3705 156.762C56.6001 222.144 63.6025 375.548 -56.695 335.12C-68.6893 331.093 -77.9117 322.504 -82.9907 310.928C-86.3147 210.318 -84.089 0.0170898 -84.089 0.0170898H603.991Z" fill="#CB6CE6"/>
</g>
<path fill-rule="evenodd" clip-rule="evenodd" d="M62.3417 85.3313C61.2957 85.6393 60.6971 86.7376 61.0051 87.7778C61.3189 88.8238 62.4172 89.4224 63.4574 89.1086C68.4376 87.6384 72.9065 88.9807 75.8934 91.8631C77.8925 93.7924 78.7874 96.4539 79.8683 98.9993C81.2106 102.149 82.7739 105.142 85.877 107.123C88.7826 108.977 91.7347 108.779 94.7624 108.14C97.9934 107.46 101.341 106.013 104.752 108.768C107.332 110.848 107.808 113.969 108.477 116.973C109.348 120.907 110.418 124.691 114.056 127.143C118.077 129.857 121.924 129.159 125.753 128.02C128.613 127.172 131.425 125.94 134.342 127.102C139.305 129.09 138.968 132.966 139.096 136.714C139.212 140.189 139.596 143.612 142.147 146.349C146.116 150.603 151.52 150.963 156.739 151.434C159.865 151.718 162.916 152.026 165.235 154.043C167.594 156.094 169.064 159.831 169.396 166.642C169.454 167.728 170.378 168.571 171.464 168.519C172.557 168.46 173.394 167.536 173.336 166.45C172.929 158.064 170.732 153.59 167.821 151.062C164.874 148.499 161.074 147.871 157.087 147.505C152.822 147.116 148.283 147.139 145.029 143.652C143.943 142.49 143.495 141.119 143.28 139.683C143.007 137.934 143.048 136.086 142.955 134.302C142.716 129.886 141.728 125.806 135.807 123.441C132.024 121.93 128.334 123.139 124.626 124.237C121.889 125.051 119.135 125.806 116.258 123.871C113.533 122.035 112.975 119.071 112.33 116.125C111.47 112.255 110.551 108.379 107.227 105.694C103.334 102.556 99.545 103.026 95.82 103.863C93.1527 104.462 90.5376 105.421 87.9981 103.799C85.6097 102.277 84.5288 99.8767 83.5003 97.4535C82.2102 94.4258 81.0131 91.3285 78.6247 89.0272C74.7137 85.2442 68.8619 83.3962 62.3417 85.3313Z" fill="#004AAD"/>
<path fill-rule="evenodd" clip-rule="evenodd" d="M54.6303 93.926C53.5843 94.234 52.9857 95.3323 53.2937 96.3783C53.6017 97.4185 54.7059 98.0171 55.7461 97.7091C60.7204 96.2389 65.1951 97.5812 68.1762 100.464C70.1811 102.393 71.076 105.054 72.1511 107.594C73.4934 110.744 75.0567 113.742 78.1598 115.724C81.0712 117.578 84.0233 117.38 87.0452 116.741C90.2762 116.055 93.6234 114.608 97.0346 117.363C99.6206 119.449 100.097 122.564 100.76 125.574C101.631 129.502 102.706 133.291 106.338 135.738C110.36 138.451 114.207 137.754 118.042 136.621C120.895 135.772 123.714 134.535 126.631 135.703C131.594 137.684 131.257 141.566 131.379 145.314C131.501 148.784 131.884 152.212 134.435 154.944C138.405 159.197 143.809 159.558 149.022 160.034C152.148 160.319 155.205 160.621 157.523 162.638C159.883 164.689 161.353 168.431 161.684 175.242C161.736 176.329 162.666 177.166 163.753 177.113C164.84 177.061 165.676 176.137 165.624 175.044C165.212 166.659 163.015 162.19 160.109 159.662C157.163 157.1 153.363 156.466 149.376 156.106C145.105 155.716 140.572 155.74 137.312 152.253C136.231 151.091 135.784 149.713 135.569 148.284C135.296 146.529 135.336 144.687 135.243 142.903C135.005 138.48 134.017 134.407 128.09 132.036C124.312 130.531 120.622 131.739 116.915 132.838C114.178 133.651 111.423 134.407 108.547 132.472C105.821 130.635 105.263 127.666 104.618 124.72C103.758 120.849 102.84 116.979 99.516 114.294C95.6225 111.15 91.8278 111.627 88.1028 112.464C85.4355 113.056 82.8262 114.021 80.2867 112.4C77.8983 110.871 76.8116 108.477 75.7831 106.054C74.4988 103.021 73.2959 99.9232 70.9133 97.6219C67.0023 93.8446 61.1505 91.9967 54.6303 93.926Z" fill="#004AAD"/>
<path fill-rule="evenodd" clip-rule="evenodd" d="M46.9188 102.527C45.8728 102.835 45.2742 103.933 45.5822 104.973C45.8902 106.019 46.9943 106.618 48.0287 106.304C53.0089 104.834 57.4777 106.176 60.4647 109.058C62.4637 110.994 63.3645 113.649 64.4395 116.195C65.7819 119.344 67.3451 122.337 70.4483 124.319C73.3539 126.172 76.306 125.975 79.3336 125.336C82.5647 124.656 85.9119 123.209 89.3231 125.963C91.9033 128.044 92.3856 131.164 93.0481 134.169C93.9197 138.103 94.9948 141.886 98.6268 144.338C102.648 147.052 106.495 146.355 110.325 145.216C113.184 144.367 115.996 143.135 118.92 144.298C123.882 146.285 123.545 150.161 123.667 153.909C123.783 157.384 124.167 160.813 126.724 163.544C130.693 167.798 136.092 168.158 141.31 168.629C144.436 168.914 147.487 169.222 149.812 171.238C152.171 173.29 153.636 177.026 153.967 183.837C154.025 184.924 154.955 185.766 156.036 185.714C157.128 185.662 157.965 184.732 157.907 183.645C157.5 175.26 155.303 170.785 152.398 168.263C149.446 165.7 145.651 165.067 141.665 164.701C137.393 164.317 132.855 164.335 129.6 160.848C128.514 159.686 128.072 158.314 127.851 156.879C127.578 155.13 127.625 153.282 127.532 151.498C127.293 147.081 126.3 143.002 120.378 140.636C116.601 139.126 112.905 140.334 109.197 141.433C106.466 142.246 103.706 143.007 100.829 141.066C98.1096 139.23 97.5459 136.266 96.9009 133.32C96.0466 129.45 95.1285 125.574 91.7986 122.889C87.911 119.751 84.1162 120.222 80.3913 121.059C77.7239 121.657 75.1147 122.616 72.5694 120.995C70.181 119.472 69.1001 117.072 68.0715 114.649C66.7815 111.621 65.5843 108.524 63.2018 106.223C59.285 102.439 53.439 100.592 46.9188 102.527Z" fill="#004AAD"/>
<path fill-rule="evenodd" clip-rule="evenodd" d="M39.2016 111.122C38.1555 111.43 37.557 112.528 37.865 113.574C38.1788 114.614 39.2771 115.213 40.3173 114.905C45.2917 113.435 49.7663 114.777 52.7475 117.659C54.7523 119.589 55.6473 122.25 56.7281 124.79C58.0647 127.939 59.6337 130.938 62.7369 132.92C65.6425 134.773 68.5946 134.57 71.6164 133.937C74.8533 133.251 78.2005 131.804 81.6117 134.558C84.1918 136.645 84.6684 139.759 85.3367 142.77C86.2083 146.698 87.2776 150.487 90.9154 152.933C94.9309 155.647 98.7838 154.95 102.613 153.817C105.472 152.968 108.285 151.73 111.202 152.898C116.165 154.88 115.828 158.762 115.956 162.51C116.072 165.979 116.456 169.408 119.007 172.139C122.976 176.393 128.38 176.753 133.593 177.23C136.719 177.515 139.776 177.817 142.095 179.833C144.454 181.885 145.924 185.627 146.255 192.438C146.314 193.525 147.238 194.361 148.324 194.309C149.411 194.257 150.254 193.333 150.195 192.24C149.783 183.855 147.592 179.386 144.681 176.858C141.734 174.295 137.934 173.662 133.947 173.302C129.682 172.912 125.143 172.935 121.889 169.449C120.802 168.287 120.355 166.909 120.14 165.48C119.867 163.725 119.907 161.883 119.814 160.099C119.576 155.676 118.588 151.603 112.667 149.232C108.884 147.721 105.194 148.929 101.486 150.034C98.7489 150.841 95.9944 151.603 93.1178 149.667C90.3924 147.831 89.8345 144.862 89.1895 141.915C88.3294 138.045 87.4113 134.175 84.0872 131.49C80.1937 128.346 76.399 128.823 72.6799 129.66C70.0125 130.252 67.3975 131.217 64.858 129.59C62.4696 128.067 61.3887 125.673 60.3543 123.25C59.07 120.216 57.8729 117.119 55.4845 114.818C51.5736 111.04 45.7217 109.192 39.2016 111.122Z" fill="#004AAD"/>
<path fill-rule="evenodd" clip-rule="evenodd" d="M872.027 164.956C873.77 164.956 875.183 163.544 875.183 161.795C875.183 160.058 873.77 158.64 872.027 158.64C870.29 158.64 868.872 160.058 868.872 161.795C868.872 163.544 870.29 164.956 872.027 164.956ZM850.282 164.956C852.025 164.956 853.437 163.544 853.437 161.795C853.437 160.058 852.025 158.64 850.282 158.64C848.538 158.64 847.126 160.058 847.126 161.795C847.126 163.544 848.538 164.956 850.282 164.956ZM828.536 164.956C830.274 164.956 831.692 163.544 831.692 161.795C831.692 160.058 830.274 158.64 828.536 158.64C826.793 158.64 825.381 160.058 825.381 161.795C825.381 163.544 826.793 164.956 828.536 164.956ZM806.791 164.956C808.528 164.956 809.946 163.544 809.946 161.795C809.946 160.058 808.528 158.64 806.791 158.64C805.047 158.64 803.629 160.058 803.629 161.795C803.629 163.544 805.047 164.956 806.791 164.956ZM785.039 164.956C786.783 164.956 788.195 163.544 788.195 161.795C788.195 160.058 786.783 158.64 785.039 158.64C783.302 158.64 781.884 160.058 781.884 161.795C781.884 163.544 783.302 164.956 785.039 164.956ZM763.294 164.956C765.031 164.956 766.449 163.544 766.449 161.795C766.449 160.058 765.031 158.64 763.294 158.64C761.551 158.64 760.138 160.058 760.138 161.795C760.138 163.544 761.551 164.956 763.294 164.956ZM741.543 164.956C743.286 164.956 744.704 163.544 744.704 161.795C744.704 160.058 743.286 158.64 741.543 158.64C739.805 158.64 738.387 160.058 738.387 161.795C738.387 163.544 739.805 164.956 741.543 164.956ZM719.797 164.956C721.54 164.956 722.953 163.544 722.953 161.795C722.953 160.058 721.54 158.64 719.797 158.64C718.054 158.64 716.642 160.058 716.642 161.795C716.642 163.544 718.054 164.956 719.797 164.956Z" fill="white"/>
<path fill-rule="evenodd" clip-rule="evenodd" d="M872.335 146.285C874.079 146.285 875.491 144.867 875.491 143.118C875.491 141.38 874.079 139.968 872.335 139.968C870.598 139.968 869.18 141.38 869.18 143.118C869.18 144.867 870.598 146.285 872.335 146.285ZM848.899 146.285C850.642 146.285 852.054 144.867 852.054 143.118C852.054 141.38 850.642 139.968 848.899 139.968C847.161 139.968 845.743 141.38 845.743 143.118C845.743 144.867 847.161 146.285 848.899 146.285ZM825.468 146.285C827.205 146.285 828.623 144.867 828.623 143.118C828.623 141.38 827.205 139.968 825.468 139.968C823.725 139.968 822.312 141.38 822.312 143.118C822.312 144.867 823.725 146.285 825.468 146.285ZM802.031 146.285C803.769 146.285 805.187 144.867 805.187 143.118C805.187 141.38 803.769 139.968 802.031 139.968C800.288 139.968 798.876 141.38 798.876 143.118C798.876 144.867 800.288 146.285 802.031 146.285ZM778.595 146.285C780.338 146.285 781.75 144.867 781.75 143.118C781.75 141.38 780.338 139.968 778.595 139.968C776.851 139.968 775.439 141.38 775.439 143.118C775.439 144.867 776.851 146.285 778.595 146.285ZM755.158 146.285C756.902 146.285 758.314 144.867 758.314 143.118C758.314 141.38 756.902 139.968 755.158 139.968C753.415 139.968 752.003 141.38 752.003 143.118C752.003 144.867 753.415 146.285 755.158 146.285Z" fill="white"/>
<path fill-rule="evenodd" clip-rule="evenodd" d="M872.434 129.519C874.177 129.519 875.59 128.101 875.59 126.352C875.59 124.615 874.177 123.197 872.434 123.197C870.697 123.197 869.279 124.615 869.279 126.352C869.279 128.101 870.697 129.519 872.434 129.519ZM848.155 129.519C849.898 129.519 851.31 128.101 851.31 126.352C851.31 124.615 849.898 123.197 848.155 123.197C846.417 123.197 844.999 124.615 844.999 126.352C844.999 128.101 846.417 129.519 848.155 129.519ZM823.876 129.519C825.619 129.519 827.031 128.101 827.031 126.352C827.031 124.615 825.619 123.197 823.876 123.197C822.138 123.197 820.72 124.615 820.72 126.352C820.72 128.101 822.138 129.519 823.876 129.519ZM799.597 129.519C801.34 129.519 802.752 128.101 802.752 126.352C802.752 124.615 801.34 123.197 799.597 123.197C797.853 123.197 796.441 124.615 796.441 126.352C796.441 128.101 797.853 129.519 799.597 129.519Z" fill="white"/>
<path d="M453.18 89.0913C453.18 90.0501 453.272 90.9974 453.464 91.9388C453.65 92.8802 453.923 93.7925 454.295 94.6816C454.661 95.565 455.109 96.4076 455.643 97.2037C456.178 98.0057 456.782 98.7437 457.457 99.4178C458.136 100.098 458.874 100.702 459.671 101.237C460.473 101.771 461.309 102.219 462.198 102.585C463.082 102.951 464 103.23 464.936 103.416C465.877 103.602 466.83 103.701 467.789 103.701C468.748 103.701 469.695 103.602 470.636 103.416C471.578 103.23 472.49 102.951 473.379 102.585C474.263 102.219 475.105 101.771 475.901 101.237C476.703 100.702 477.441 100.098 478.115 99.4178C478.795 98.7437 479.4 98.0057 479.934 97.2037C480.469 96.4076 480.916 95.565 481.282 94.6816C481.649 93.7925 481.927 92.8802 482.113 91.9388C482.299 90.9974 482.398 90.0501 482.398 89.0913C482.398 88.1324 482.299 87.1794 482.113 86.238C481.927 85.3024 481.649 84.3842 481.282 83.5009C480.916 82.6118 480.469 81.775 479.934 80.973C479.4 80.1769 478.795 79.4389 478.115 78.759C477.441 78.0849 476.703 77.4805 475.901 76.9459C475.105 76.4113 474.263 75.9638 473.379 75.5977C472.49 75.2258 471.578 74.9526 470.636 74.7667C469.695 74.5749 468.748 74.4819 467.789 74.4819C466.83 74.4819 465.877 74.5749 464.936 74.7667C464 74.9526 463.082 75.2258 462.198 75.5977C461.309 75.9638 460.473 76.4113 459.671 76.9459C458.874 77.4805 458.136 78.0849 457.457 78.759C456.782 79.4389 456.178 80.1769 455.643 80.973C455.109 81.775 454.661 82.6118 454.295 83.5009C453.923 84.3842 453.65 85.3024 453.464 86.238C453.272 87.1794 453.18 88.1324 453.18 89.0913Z" fill="#5E17EB"/>
<mask id="mask2_167_21" style="mask-type:luminance" maskUnits="userSpaceOnUse" x="0" y="968" width="886" height="284">
<path d="M885.137 968.697H0.824365V1251.87H885.137V968.697Z" fill="white"/>
</mask>
<g mask="url(#mask2_167_21)">
<path d="M-30.0505 968.697V1381.93H283.83C495.316 1380.71 706.827 1379.48 918.308 1378.26C902.774 1280.1 860.155 1230.65 835.998 1208.18C799.893 1174.55 752.404 1152.15 701.649 1138.87C612.249 1115.37 512.64 1120 446.776 1140.58C422.706 1148.11 369.161 1169.25 301.583 1157.58C272.794 1152.61 252.961 1143.73 227.839 1132.26C142.711 1093.4 118.722 1054.08 34.878 1003.32C19.7108 994.133 -2.11026 981.755 -30.0505 968.697Z" fill="#CB6CE6"/>
</g>
<mask id="mask3_167_21" style="mask-type:luminance" maskUnits="userSpaceOnUse" x="0" y="1048" width="885" height="204">
<path d="M884.789 1048.8H0.824253V1251.87H884.789V1048.8Z" fill="white"/>
</mask>
<g mask="url(#mask3_167_21)">
<path d="M-30.0384 1049.3V1381.93H938.057V1173.98C880.775 1155.54 803.761 1138.1 713.177 1138.67C709.192 1138.67 705.242 1138.75 701.373 1138.87C550.15 1142.48 478.253 1196.03 371.288 1206.35C275.899 1215.52 142.312 1191.33 -30.0384 1049.3Z" fill="#8A51FC"/>
</g>
<mask id="mask4_167_21" style="mask-type:luminance" maskUnits="userSpaceOnUse" x="0" y="1071" width="886" height="146">
<path d="M885.137 1071.12H0.824365V1216.91H885.137V1071.12Z" fill="white"/>
</mask>
<g mask="url(#mask4_167_21)">
<path d="M911.45 1165.84C797.586 1128.14 671.372 1121.43 554.55 1151.92C515.458 1161.86 477.644 1175.2 439.517 1185.04C320.876 1218.87 205.274 1191.3 98.8649 1133.94C63.7827 1115.37 30.2114 1093.82 -2.67996 1071.12C27.9044 1096.84 60.4006 1120.4 94.7099 1141.25C106.123 1148.43 122.336 1156.96 134.174 1163.33C210.684 1202.25 298.003 1224.7 384.038 1213.21C444.213 1206.15 500.634 1183 558.618 1167.52C673.54 1135.45 795.738 1138.67 911.45 1165.84Z" fill="#F9FFF9"/>
</g>
<path d="M825.927 1207.21L837.166 1197.25L827.205 1186.01C825.416 1183.99 825.613 1180.92 827.636 1179.13C829.652 1177.33 832.726 1177.53 834.516 1179.55L844.476 1190.79L855.715 1180.83C857.737 1179.04 860.806 1179.24 862.601 1181.26C864.391 1183.28 864.194 1186.35 862.171 1188.15L850.933 1198.1L860.893 1209.34C862.683 1211.36 862.485 1214.43 860.469 1216.22C858.446 1218.02 855.372 1217.82 853.582 1215.8L843.622 1204.56L832.383 1214.52C830.367 1216.31 827.293 1216.11 825.497 1214.09C823.707 1212.07 823.905 1209 825.927 1207.21Z" fill="#F9FFF9"/>
<mask id="mask5_167_21" style="mask-type:luminance" maskUnits="userSpaceOnUse" x="0" y="1219" width="197" height="33">
<path d="M196.714 1219.89H0.824511V1251.87H196.714V1219.89Z" fill="white"/>
</mask>
<g mask="url(#mask5_167_21)">
<path d="M86.2317 1221.32C147.005 1221.32 196.429 1270.74 196.429 1331.51C196.429 1348.62 192.501 1364.8 185.528 1379.26C185.103 1380.14 184.65 1381.05 184.191 1381.93H149.167C149.853 1381.11 150.475 1380.28 151.102 1379.46C161.033 1366.06 166.897 1349.46 166.897 1331.51C166.897 1286.96 130.786 1250.83 86.2317 1250.83C41.6773 1250.83 5.57235 1286.96 5.57235 1331.51C5.57235 1349.84 11.6625 1366.68 21.9309 1380.22C22.3841 1380.79 22.8142 1381.36 23.2965 1381.93H-11.7276C-11.9833 1381.42 -12.239 1380.94 -12.4947 1380.42C-19.8342 1365.68 -23.9601 1349.07 -23.9601 1331.51C-23.9601 1270.74 25.4583 1221.32 86.2317 1221.32Z" fill="#CB6CE6"/>
</g>
<mask id="mask6_167_21" style="mask-type:luminance" maskUnits="userSpaceOnUse" x="105" y="1243" width="19" height="9">
<path d="M123.818 1243.69H105.966V1251.87H123.818V1243.69Z" fill="white"/>
</mask>
<g mask="url(#mask6_167_21)">
<path d="M119.576 1244.9H111.127C110.598 1244.9 110.087 1245.01 109.593 1245.21C109.099 1245.41 108.669 1245.71 108.291 1246.08C107.913 1246.45 107.623 1246.89 107.419 1247.38C107.216 1247.87 107.117 1248.38 107.117 1248.92V1257.37C107.117 1257.9 107.216 1258.41 107.419 1258.9C107.623 1259.4 107.913 1259.83 108.291 1260.2C108.669 1260.58 109.099 1260.87 109.593 1261.08C110.087 1261.28 110.598 1261.38 111.127 1261.38H119.576C120.111 1261.38 120.622 1261.28 121.116 1261.08C121.604 1260.87 122.04 1260.58 122.418 1260.2C122.79 1259.83 123.081 1259.4 123.284 1258.9C123.487 1258.41 123.592 1257.9 123.592 1257.37V1248.92C123.592 1248.38 123.487 1247.87 123.284 1247.38C123.081 1246.89 122.79 1246.45 122.418 1246.08C122.04 1245.71 121.604 1245.41 121.116 1245.21C120.622 1245.01 120.111 1244.9 119.576 1244.9Z" fill="#F9FFF9"/>
</g>
<mask id="mask7_167_21" style="mask-type:luminance" maskUnits="userSpaceOnUse" x="64" y="1243" width="19" height="9">
<path d="M82.1639 1243.69H64.3119V1251.87H82.1639V1243.69Z" fill="white"/>
</mask>
<g mask="url(#mask7_167_21)">
<path d="M77.8113 1244.9H69.3618C68.8272 1244.9 68.3158 1245.01 67.8277 1245.21C67.3337 1245.41 66.8979 1245.71 66.526 1246.08C66.1483 1246.45 65.8577 1246.89 65.6543 1247.38C65.4509 1247.87 65.3463 1248.38 65.3463 1248.92V1257.37C65.3463 1257.9 65.4509 1258.41 65.6543 1258.9C65.8577 1259.4 66.1483 1259.83 66.526 1260.2C66.8979 1260.58 67.3337 1260.87 67.8277 1261.08C68.3158 1261.28 68.8272 1261.38 69.3618 1261.38H77.8113C78.3401 1261.38 78.8573 1261.28 79.3455 1261.08C79.8394 1260.87 80.2695 1260.58 80.6472 1260.2C81.0249 1259.83 81.3155 1259.4 81.5189 1258.9C81.7223 1258.41 81.821 1257.9 81.821 1257.37V1248.92C81.821 1248.38 81.7223 1247.87 81.5189 1247.38C81.3155 1246.89 81.0249 1246.45 80.6472 1246.08C80.2695 1245.71 79.8394 1245.41 79.3455 1245.21C78.8573 1245.01 78.3401 1244.9 77.8113 1244.9Z" fill="#F9FFF9"/>
</g>
<mask id="mask8_167_21" style="mask-type:luminance" maskUnits="userSpaceOnUse" x="22" y="1243" width="19" height="9">
<path d="M40.5092 1243.69H22.6572V1251.87H40.5092V1243.69Z" fill="white"/>
</mask>
<g mask="url(#mask8_167_21)">
<path d="M36.0461 1244.9H27.5908C27.062 1244.9 26.5506 1245.01 26.0566 1245.21C25.5685 1245.41 25.1326 1245.71 24.7549 1246.08C24.383 1246.45 24.0924 1246.89 23.889 1247.38C23.6856 1247.87 23.581 1248.38 23.581 1248.92V1257.37C23.581 1257.9 23.6856 1258.41 23.889 1258.9C24.0924 1259.4 24.383 1259.83 24.7549 1260.2C25.1326 1260.58 25.5685 1260.87 26.0566 1261.08C26.5506 1261.28 27.062 1261.38 27.5908 1261.38H36.0461C36.5749 1261.38 37.0863 1261.28 37.5802 1261.08C38.0684 1260.87 38.5042 1260.58 38.8819 1260.2C39.2538 1259.83 39.5444 1259.4 39.7478 1258.9C39.9512 1258.41 40.0558 1257.9 40.0558 1257.37V1248.92C40.0558 1248.38 39.9512 1247.87 39.7478 1247.38C39.5444 1246.89 39.2538 1246.45 38.8819 1246.08C38.5042 1245.71 38.0684 1245.41 37.5802 1245.21C37.0863 1245.01 36.5749 1244.9 36.0461 1244.9Z" fill="#F9FFF9"/>
</g>
<mask id="mask9_167_21" style="mask-type:luminance" maskUnits="userSpaceOnUse" x="818" y="266" width="16" height="16">
<path d="M833.435 266.583H818.559V281.169H833.435V266.583Z" fill="white"/>
</mask>
<g mask="url(#mask9_167_21)">
<path d="M832.174 280.047C831.337 280.89 829.972 280.89 829.129 280.047L827.397 278.316C826.561 277.473 825.189 277.473 824.347 278.316L822.609 280.047C821.772 280.89 820.401 280.89 819.558 280.047C818.716 279.211 818.716 277.845 819.558 276.996L821.29 275.253C822.133 274.416 822.133 273.051 821.29 272.202L819.558 270.47C818.716 269.634 818.716 268.268 819.558 267.425C820.401 266.583 821.772 266.583 822.615 267.425L824.352 269.163C825.189 270.006 826.561 270.006 827.403 269.163L829.135 267.431C829.972 266.583 831.337 266.583 832.186 267.431C833.029 268.268 833.029 269.634 832.186 270.476L830.454 272.208C829.606 273.051 829.606 274.416 830.454 275.259L832.186 276.996C833.029 277.833 833.029 279.205 832.174 280.047Z" fill="#5E17EB"/>
</g>
<mask id="mask10_167_21" style="mask-type:luminance" maskUnits="userSpaceOnUse" x="840" y="373" width="17" height="16">
<path d="M856.047 373.404H840.874V388.095H856.047V373.404Z" fill="white"/>
</mask>
<g mask="url(#mask10_167_21)">
<path d="M855.187 387.217C854.35 388.059 852.978 388.059 852.136 387.217L850.404 385.479C849.567 384.637 848.202 384.637 847.353 385.479L845.621 387.217C844.785 388.059 843.419 388.059 842.576 387.217C841.728 386.374 841.728 385.009 842.576 384.166L844.308 382.434C845.151 381.597 845.151 380.226 844.308 379.383L842.576 377.652C841.728 376.815 841.728 375.449 842.576 374.601C843.413 373.758 844.779 373.758 845.621 374.601L847.353 376.338C848.196 377.181 849.561 377.181 850.404 376.338L852.136 374.601C852.973 373.758 854.338 373.758 855.187 374.601C856.029 375.443 856.029 376.809 855.187 377.652L853.455 379.383C852.606 380.22 852.606 381.586 853.455 382.434L855.187 384.166C856.029 385.009 856.029 386.374 855.187 387.217Z" fill="#5E17EB"/>
</g>
<path d="M832.168 301.485C831.331 302.327 829.966 302.327 829.117 301.485L827.386 299.753C826.549 298.905 825.183 298.905 824.341 299.753L822.609 301.485C821.772 302.327 820.401 302.327 819.558 301.485C818.715 300.642 818.715 299.277 819.558 298.434L821.307 296.696C822.15 295.86 822.15 294.488 821.307 293.646L819.575 291.914C818.727 291.077 818.727 289.711 819.575 288.863C820.412 288.02 821.778 288.02 822.62 288.863L824.352 290.595C825.189 291.443 826.56 291.443 827.403 290.595L829.135 288.863C829.972 288.02 831.337 288.02 832.186 288.863C833.028 289.7 833.028 291.071 832.186 291.914L830.454 293.646C829.605 294.482 829.605 295.848 830.454 296.696L832.186 298.434C833.028 299.271 833.028 300.636 832.168 301.485Z" fill="#5E17EB"/>
<mask id="mask11_167_21" style="mask-type:luminance" maskUnits="userSpaceOnUse" x="840" y="287" width="17" height="17">
<path d="M856.047 287.12H840.874V303.484H856.047V287.12Z" fill="white"/>
</mask>
<g mask="url(#mask11_167_21)">
<path d="M855.187 301.484C854.35 302.327 852.978 302.327 852.136 301.484L850.404 299.753C849.567 298.904 848.202 298.904 847.353 299.753L845.621 301.484C844.785 302.327 843.419 302.327 842.576 301.484C841.728 300.642 841.728 299.276 842.576 298.434L844.308 296.702C845.151 295.865 845.151 294.499 844.308 293.651L842.576 291.919C841.728 291.082 841.728 289.717 842.576 288.874C843.413 288.026 844.779 288.026 845.621 288.874L847.353 290.606C848.196 291.448 849.561 291.448 850.404 290.606L852.136 288.874C852.973 288.026 854.338 288.026 855.187 288.874C856.029 289.711 856.029 291.077 855.187 291.919L853.455 293.651C852.606 294.488 852.606 295.859 853.455 296.702L855.187 298.434C856.029 299.27 856.029 300.636 855.187 301.484Z" fill="#5E17EB"/>
</g>
<path d="M832.168 322.917C831.331 323.759 829.966 323.759 829.117 322.917L827.386 321.185C826.549 320.342 825.183 320.342 824.341 321.185L822.609 322.917C821.772 323.759 820.401 323.759 819.558 322.917C818.715 322.08 818.715 320.714 819.558 319.866L821.307 318.128C822.15 317.291 822.15 315.926 821.307 315.083L819.575 313.351C818.727 312.509 818.727 311.143 819.575 310.3C820.412 309.458 821.778 309.458 822.62 310.3L824.352 312.032C825.189 312.875 826.56 312.875 827.403 312.032L829.135 310.3C829.972 309.458 831.337 309.458 832.186 310.3C833.028 311.137 833.028 312.503 832.186 313.351L830.454 315.083C829.605 315.92 829.605 317.285 830.454 318.128L832.186 319.866C833.028 320.708 833.028 322.074 832.168 322.917Z" fill="#5E17EB"/>
<mask id="mask12_167_21" style="mask-type:luminance" maskUnits="userSpaceOnUse" x="840" y="309" width="17" height="16">
<path d="M856.047 309.435H840.874V324.311H856.047V309.435Z" fill="white"/>
</mask>
<g mask="url(#mask12_167_21)">
<path d="M855.187 322.917C854.35 323.759 852.978 323.759 852.136 322.917L850.404 321.185C849.567 320.342 848.202 320.342 847.353 321.185L845.621 322.917C844.785 323.759 843.419 323.759 842.576 322.917C841.728 322.08 841.728 320.714 842.576 319.866L844.308 318.134C845.151 317.297 845.151 315.932 844.308 315.089L842.576 313.357C841.728 312.52 841.728 311.149 842.576 310.306C843.413 309.464 844.779 309.464 845.621 310.306L847.353 312.038C848.196 312.881 849.561 312.881 850.404 312.038L852.136 310.306C852.973 309.464 854.338 309.464 855.187 310.306C856.029 311.143 856.029 312.509 855.187 313.357L853.455 315.089C852.606 315.926 852.606 317.291 853.455 318.134L855.187 319.866C856.029 320.708 856.029 322.074 855.187 322.917Z" fill="#5E17EB"/>
</g>
<path d="M832.186 344.354C831.343 345.197 829.977 345.197 829.135 344.354L827.403 342.622C826.566 341.774 825.201 341.774 824.352 342.622L822.62 344.354C821.784 345.197 820.418 345.197 819.575 344.354C818.727 343.517 818.727 342.146 819.575 341.303L821.307 339.571C822.15 338.735 822.15 337.369 821.307 336.521L819.575 334.789C818.727 333.952 818.727 332.586 819.575 331.744C820.412 330.895 821.778 330.895 822.62 331.744L824.352 333.475C825.189 334.318 826.56 334.318 827.403 333.475L829.135 331.744C829.972 330.895 831.337 330.895 832.186 331.744C833.028 332.581 833.028 333.946 832.186 334.789L830.454 336.521C829.605 337.357 829.605 338.729 830.454 339.571L832.186 341.303C833.028 342.14 833.028 343.506 832.186 344.354Z" fill="#5E17EB"/>
<mask id="mask13_167_21" style="mask-type:luminance" maskUnits="userSpaceOnUse" x="840" y="330" width="17" height="16">
<path d="M856.047 330.262H840.874V345.138H856.047V330.262Z" fill="white"/>
</mask>
<g mask="url(#mask13_167_21)">
<path d="M855.187 344.354C854.35 345.197 852.978 345.197 852.136 344.354L850.404 342.622C849.567 341.774 848.202 341.774 847.353 342.622L845.621 344.354C844.785 345.197 843.419 345.197 842.576 344.354C841.728 343.517 841.728 342.146 842.576 341.303L844.308 339.571C845.151 338.735 845.151 337.369 844.308 336.521L842.576 334.789C841.728 333.952 841.728 332.586 842.576 331.744C843.413 330.895 844.779 330.895 845.621 331.744L847.353 333.475C848.196 334.318 849.561 334.318 850.404 333.475L852.136 331.744C852.973 330.895 854.338 330.895 855.187 331.744C856.029 332.581 856.029 333.946 855.187 334.789L853.455 336.521C852.606 337.357 852.606 338.729 853.455 339.571L855.187 341.303C856.029 342.14 856.029 343.506 855.187 344.354Z" fill="#5E17EB"/>
</g>
<path d="M832.186 365.78C831.343 366.622 829.977 366.622 829.135 365.78L827.403 364.048C826.566 363.205 825.201 363.205 824.352 364.048L822.62 365.78C821.784 366.622 820.418 366.622 819.575 365.78C818.727 364.943 818.727 363.577 819.575 362.729L821.307 360.997C822.15 360.16 822.15 358.795 821.307 357.952L819.575 356.22C818.727 355.378 818.727 354.012 819.575 353.17C820.412 352.327 821.778 352.327 822.62 353.17L824.352 354.901C825.189 355.744 826.56 355.744 827.403 354.901L829.135 353.17C829.972 352.327 831.337 352.327 832.186 353.17C833.028 354.006 833.028 355.372 832.186 356.22L830.454 357.952C829.605 358.789 829.605 360.155 830.454 360.997L832.186 362.729C833.028 363.577 833.028 364.943 832.186 365.78Z" fill="#5E17EB"/>
<mask id="mask14_167_21" style="mask-type:luminance" maskUnits="userSpaceOnUse" x="840" y="351" width="17" height="17">
<path d="M856.047 351.089H840.874V367.453H856.047V351.089Z" fill="white"/>
</mask>
<g mask="url(#mask14_167_21)">
<path d="M855.187 365.78C854.35 366.622 852.978 366.622 852.136 365.78L850.404 364.048C849.567 363.205 848.202 363.205 847.353 364.048L845.621 365.78C844.785 366.622 843.419 366.622 842.576 365.78C841.728 364.943 841.728 363.577 842.576 362.729L844.308 360.997C845.151 360.16 845.151 358.795 844.308 357.952L842.576 356.22C841.728 355.378 841.728 354.012 842.576 353.17C843.413 352.327 844.779 352.327 845.621 353.17L847.353 354.901C848.196 355.744 849.561 355.744 850.404 354.901L852.136 353.17C852.973 352.327 854.338 352.327 855.187 353.17C856.029 354.006 856.029 355.372 855.187 356.22L853.455 357.952C852.606 358.789 852.606 360.155 853.455 360.997L855.187 362.729C856.029 363.577 856.029 364.943 855.187 365.78Z" fill="#5E17EB"/>
</g>
<mask id="mask15_167_21" style="mask-type:luminance" maskUnits="userSpaceOnUse" x="28" y="865" width="16" height="16">
<path d="M43.4845 865.449H28.7066V880.698H43.4845V865.449Z" fill="white"/>
</mask>
<g mask="url(#mask15_167_21)">
<path d="M42.7408 878.908C41.9039 879.757 40.5325 879.757 39.6899 878.908L37.9581 877.176C37.1213 876.334 35.7557 876.334 34.9073 877.176L33.1697 878.908C32.3329 879.757 30.9673 879.757 30.1188 878.908C29.2762 878.071 29.2762 876.706 30.1188 875.863L31.8506 874.114C32.699 873.277 32.699 871.912 31.8506 871.069L30.1188 869.331C29.2762 868.495 29.2762 867.129 30.1188 866.286C30.9673 865.449 32.3329 865.449 33.1755 866.286L34.9189 868.024C35.7557 868.866 37.1213 868.866 37.964 868.024L39.6957 866.292C40.5325 865.449 41.9039 865.449 42.7466 866.292C43.5892 867.129 43.5892 868.495 42.7466 869.343L41.0148 871.075C40.1722 871.912 40.1722 873.277 41.0148 874.12L42.7466 875.863C43.5892 876.7 43.5892 878.066 42.7408 878.908Z" fill="#5E17EB"/>
</g>
<mask id="mask16_167_21" style="mask-type:luminance" maskUnits="userSpaceOnUse" x="52" y="971" width="15" height="16">
<path d="M66.6072 971.445H52.4104V986.955H66.6072V971.445Z" fill="white"/>
</mask>
<g mask="url(#mask16_167_21)">
<path d="M65.7472 986.078C64.9104 986.921 63.5447 986.921 62.6963 986.078L60.9646 984.346C60.1278 983.498 58.7621 983.498 57.9195 984.346L56.1878 986.078C55.351 986.921 53.9795 986.921 53.1369 986.078C52.2943 985.241 52.2943 983.87 53.1369 983.027L54.8686 981.296C55.7112 980.459 55.7112 979.093 54.8686 978.245L53.1369 976.513C52.2943 975.676 52.2943 974.31 53.1369 973.468C53.9737 972.619 55.3393 972.619 56.1878 973.468L57.9195 975.2C58.7563 976.042 60.1219 976.042 60.9646 975.2L62.6963 973.468C63.5389 972.619 64.9046 972.619 65.7472 973.468C66.5898 974.305 66.5898 975.67 65.7472 976.513L64.0154 978.245C63.1728 979.087 63.1728 980.453 64.0154 981.296L65.7472 983.027C66.5898 983.87 66.5898 985.241 65.7472 986.078Z" fill="#5E17EB"/>
</g>
<mask id="mask17_167_21" style="mask-type:luminance" maskUnits="userSpaceOnUse" x="28" y="886" width="16" height="16">
<path d="M43.4845 886.648H28.7066V901.525H43.4845V886.648Z" fill="white"/>
</mask>
<g mask="url(#mask17_167_21)">
<path d="M42.7291 900.346C41.8923 901.188 40.5267 901.188 39.6841 900.346L37.9523 898.614C37.1155 897.771 35.7441 897.771 34.9015 898.614L33.1697 900.346C32.3329 901.188 30.9673 901.188 30.1188 900.346C29.2762 899.509 29.2762 898.143 30.1188 897.295L31.868 895.557C32.7106 894.72 32.7106 893.355 31.868 892.506L30.1363 890.775C29.2937 889.938 29.2937 888.572 30.1363 887.73C30.9731 886.881 32.3387 886.881 33.1872 887.73L34.9189 889.461C35.7557 890.304 37.1213 890.304 37.964 889.461L39.6957 887.73C40.5325 886.881 41.9039 886.881 42.7466 887.73C43.5892 888.566 43.5892 889.932 42.7466 890.775L41.0148 892.506C40.1722 893.343 40.1722 894.715 41.0148 895.557L42.7466 897.295C43.5892 898.132 43.5892 899.503 42.7291 900.346Z" fill="#5E17EB"/>
</g>
<mask id="mask18_167_21" style="mask-type:luminance" maskUnits="userSpaceOnUse" x="52" y="886" width="15" height="16">
<path d="M66.6072 886.648H52.4104V901.525H66.6072V886.648Z" fill="white"/>
</mask>
<g mask="url(#mask18_167_21)">
<path d="M65.7472 900.346C64.9104 901.188 63.5447 901.188 62.6963 900.346L60.9646 898.614C60.1278 897.771 58.7621 897.771 57.9195 898.614L56.1878 900.346C55.351 901.188 53.9795 901.188 53.1369 900.346C52.2943 899.509 52.2943 898.143 53.1369 897.295L54.8686 895.563C55.7112 894.726 55.7112 893.361 54.8686 892.518L53.1369 890.781C52.2943 889.944 52.2943 888.578 53.1369 887.735C53.9737 886.893 55.3393 886.893 56.1878 887.735L57.9195 889.467C58.7563 890.31 60.1219 890.31 60.9646 889.467L62.6963 887.735C63.5389 886.893 64.9046 886.893 65.7472 887.735C66.5898 888.572 66.5898 889.938 65.7472 890.786L64.0154 892.518C63.1728 893.355 63.1728 894.721 64.0154 895.563L65.7472 897.295C66.5898 898.132 66.5898 899.503 65.7472 900.346Z" fill="#5E17EB"/>
</g>
<mask id="mask19_167_21" style="mask-type:luminance" maskUnits="userSpaceOnUse" x="28" y="907" width="16" height="17">
<path d="M43.4845 907.476H28.7066V923.84H43.4845V907.476Z" fill="white"/>
</mask>
<g mask="url(#mask19_167_21)">
<path d="M42.7291 921.777C41.8923 922.626 40.5267 922.626 39.6841 921.777L37.9523 920.046C37.1155 919.203 35.7441 919.203 34.9015 920.046L33.1697 921.777C32.3329 922.626 30.9673 922.626 30.1188 921.777C29.2762 920.941 29.2762 919.575 30.1188 918.732L31.868 916.989C32.7106 916.152 32.7106 914.787 31.868 913.944L30.1363 912.212C29.2937 911.375 29.2937 910.004 30.1363 909.161C30.9731 908.319 32.3387 908.319 33.1872 909.161L34.9189 910.893C35.7557 911.741 37.1213 911.741 37.964 910.893L39.6957 909.161C40.5325 908.319 41.9039 908.319 42.7466 909.161C43.5892 909.998 43.5892 911.364 42.7466 912.212L41.0148 913.944C40.1722 914.781 40.1722 916.146 41.0148 916.989L42.7466 918.732C43.5892 919.569 43.5892 920.935 42.7291 921.777Z" fill="#5E17EB"/>
</g>
<mask id="mask20_167_21" style="mask-type:luminance" maskUnits="userSpaceOnUse" x="52" y="907" width="15" height="17">
<path d="M66.6072 907.476H52.4104V923.84H66.6072V907.476Z" fill="white"/>
</mask>
<g mask="url(#mask20_167_21)">
<path d="M65.7472 921.777C64.9104 922.626 63.5447 922.626 62.6963 921.777L60.9646 920.046C60.1278 919.203 58.7621 919.203 57.9195 920.046L56.1878 921.777C55.351 922.626 53.9795 922.626 53.1369 921.777C52.2943 920.941 52.2943 919.575 53.1369 918.732L54.8686 917.001C55.7112 916.164 55.7112 914.792 54.8686 913.95L53.1369 912.218C52.2943 911.381 52.2943 910.016 53.1369 909.167C53.9737 908.325 55.3393 908.325 56.1878 909.167L57.9195 910.899C58.7563 911.747 60.1219 911.747 60.9646 910.899L62.6963 909.167C63.5389 908.325 64.9046 908.325 65.7472 909.167C66.5898 910.004 66.5898 911.375 65.7472 912.218L64.0154 913.95C63.1728 914.787 63.1728 916.152 64.0154 917.001L65.7472 918.732C66.5898 919.569 66.5898 920.935 65.7472 921.777Z" fill="#5E17EB"/>
</g>
<mask id="mask21_167_21" style="mask-type:luminance" maskUnits="userSpaceOnUse" x="28" y="929" width="16" height="16">
<path d="M43.4845 929.791H28.7066V944.668H43.4845V929.791Z" fill="white"/>
</mask>
<g mask="url(#mask21_167_21)">
<path d="M42.7466 943.215C41.9098 944.058 40.5441 944.058 39.6957 943.215L37.964 941.483C37.1271 940.641 35.7615 940.641 34.9189 941.483L33.1872 943.215C32.3445 944.058 30.9789 944.058 30.1363 943.215C29.2937 942.378 29.2937 941.012 30.1363 940.164L31.868 938.432C32.7106 937.595 32.7106 936.23 31.868 935.387L30.1363 933.656C29.2937 932.813 29.2937 931.447 30.1363 930.605C30.9731 929.762 32.3387 929.762 33.1872 930.605L34.9189 932.336C35.7557 933.179 37.1213 933.179 37.964 932.336L39.6957 930.605C40.5325 929.762 41.9039 929.762 42.7466 930.605C43.5892 931.441 43.5892 932.807 42.7466 933.656L41.0148 935.387C40.1722 936.224 40.1722 937.59 41.0148 938.432L42.7466 940.164C43.5892 941.001 43.5892 942.372 42.7466 943.215Z" fill="#5E17EB"/>
</g>
<mask id="mask22_167_21" style="mask-type:luminance" maskUnits="userSpaceOnUse" x="52" y="929" width="15" height="16">
<path d="M66.6072 929.791H52.4104V944.668H66.6072V929.791Z" fill="white"/>
</mask>
<g mask="url(#mask22_167_21)">
<path d="M65.7472 943.215C64.9104 944.058 63.5447 944.058 62.6963 943.215L60.9646 941.483C60.1278 940.641 58.7621 940.641 57.9195 941.483L56.1878 943.215C55.351 944.058 53.9795 944.058 53.1369 943.215C52.2943 942.378 52.2943 941.012 53.1369 940.164L54.8686 938.432C55.7112 937.595 55.7112 936.23 54.8686 935.387L53.1369 933.656C52.2943 932.813 52.2943 931.447 53.1369 930.605C53.9737 929.762 55.3393 929.762 56.1878 930.605L57.9195 932.336C58.7563 933.179 60.1219 933.179 60.9646 932.336L62.6963 930.605C63.5389 929.762 64.9046 929.762 65.7472 930.605C66.5898 931.441 66.5898 932.807 65.7472 933.656L64.0154 935.387C63.1728 936.224 63.1728 937.59 64.0154 938.432L65.7472 940.164C66.5898 941.001 66.5898 942.372 65.7472 943.215Z" fill="#5E17EB"/>
</g>
<mask id="mask23_167_21" style="mask-type:luminance" maskUnits="userSpaceOnUse" x="28" y="950" width="16" height="16">
<path d="M43.4845 950.618H28.7066V965.495H43.4845V950.618Z" fill="white"/>
</mask>
<g mask="url(#mask23_167_21)">
<path d="M42.7466 964.641C41.9098 965.489 40.5441 965.489 39.6957 964.641L37.964 962.909C37.1271 962.066 35.7615 962.066 34.9189 962.909L33.1872 964.641C32.3445 965.489 30.9789 965.489 30.1363 964.641C29.2937 963.804 29.2937 962.438 30.1363 961.596L31.868 959.864C32.7106 959.021 32.7106 957.656 31.868 956.813L30.1363 955.081C29.2937 954.244 29.2937 952.879 30.1363 952.03C30.9731 951.188 32.3387 951.188 33.1872 952.03L34.9189 953.762C35.7557 954.611 37.1213 954.611 37.964 953.762L39.6957 952.03C40.5325 951.188 41.9039 951.188 42.7466 952.03C43.5892 952.867 43.5892 954.239 42.7466 955.081L41.0148 956.813C40.1722 957.65 40.1722 959.015 41.0148 959.864L42.7466 961.596C43.5892 962.438 43.5892 963.804 42.7466 964.641Z" fill="#5E17EB"/>
</g>
<mask id="mask24_167_21" style="mask-type:luminance" maskUnits="userSpaceOnUse" x="52" y="950" width="15" height="16">
<path d="M66.6072 950.618H52.4104V965.495H66.6072V950.618Z" fill="white"/>
</mask>
<g mask="url(#mask24_167_21)">
<path d="M65.7472 964.641C64.9104 965.489 63.5447 965.489 62.6963 964.641L60.9646 962.909C60.1278 962.066 58.7621 962.066 57.9195 962.909L56.1878 964.641C55.351 965.489 53.9795 965.489 53.1369 964.641C52.2943 963.804 52.2943 962.438 53.1369 961.596L54.8686 959.864C55.7112 959.021 55.7112 957.656 54.8686 956.813L53.1369 955.081C52.2943 954.244 52.2943 952.879 53.1369 952.03C53.9737 951.188 55.3393 951.188 56.1878 952.03L57.9195 953.762C58.7563 954.611 60.1219 954.611 60.9646 953.762L62.6963 952.03C63.5389 951.188 64.9046 951.188 65.7472 952.03C66.5898 952.867 66.5898 954.239 65.7472 955.081L64.0154 956.813C63.1728 957.65 63.1728 959.015 64.0154 959.864L65.7472 961.596C66.5898 962.438 66.5898 963.804 65.7472 964.641Z" fill="#5E17EB"/>
</g>
</g>
<defs>
<filter id="filter0_f_167_21" x="-147.57" y="-184.099" width="1290.1" height="1646.85" filterUnits="userSpaceOnUse" color-interpolation-filters="sRGB">
<feFlood flood-opacity="0" result="BackgroundImageFix"/>
<feBlend mode="normal" in="SourceGraphic" in2="BackgroundImageFix" result="shape"/>
<feGaussianBlur stdDeviation="64.7135" result="effect1_foregroundBlur_167_21"/>
</filter>
<filter id="filter1_d_167_21" x="-176.399" y="-74.7554" width="1189.5" height="1428.16" filterUnits="userSpaceOnUse" color-interpolation-filters="sRGB">
<feFlood flood-opacity="0" result="BackgroundImageFix"/>
<feColorMatrix in="SourceAlpha" type="matrix" values="0 0 0 0 0 0 0 0 0 0 0 0 0 0 0 0 0 0 127 0" result="hardAlpha"/>
<feOffset dx="-137.237"/>
<feGaussianBlur stdDeviation="10.0417"/>
<feComposite in2="hardAlpha" operator="out"/>
<feColorMatrix type="matrix" values="0 0 0 0 0.54902 0 0 0 0 0.321569 0 0 0 0 1 0 0 0 1 0"/>
<feBlend mode="normal" in2="BackgroundImageFix" result="effect1_dropShadow_167_21"/>
<feBlend mode="normal" in="SourceGraphic" in2="effect1_dropShadow_167_21" result="shape"/>
</filter>
<clipPath id="clip0_167_21">
<rect width="1176" height="1252.99" fill="white" transform="matrix(-1 0 0 1 1176 0)"/>
</clipPath>
</defs>
</svg>
