<svg width="1054" height="1123" viewBox="0 0 1054 1123" fill="none" xmlns="http://www.w3.org/2000/svg">
<g clip-path="url(#clip0_167_21)">
<rect x="691" width="362" height="1122" fill="#8C52FF"/>
<g filter="url(#filter0_f_167_21)">
<mask id="mask0_167_21" style="mask-type:luminance" maskUnits="userSpaceOnUse" x="146" y="-49" width="925" height="1244">
<path d="M146 -49H1070.26V1195H146V-49Z" fill="white"/>
</mask>
<g mask="url(#mask0_167_21)">
<path d="M146 -49H1071.1V1195H146V-49Z" fill="white"/>
<g filter="url(#filter1_d_167_21)">
<path d="M146 -49H1071.1V1195H146V-49Z" fill="#8C52FF"/>
</g>
</g>
</g>
<path fill-rule="evenodd" clip-rule="evenodd" d="M456.157 151.266C469.173 151.266 479.735 161.828 479.735 174.844C479.735 187.849 469.173 198.411 456.157 198.411C443.146 198.411 432.584 187.849 432.584 174.844C432.584 161.828 443.146 151.266 456.157 151.266ZM456.157 155.104C445.266 155.104 436.423 163.948 436.423 174.844C436.423 185.729 445.266 194.573 456.157 194.573C467.053 194.573 475.896 185.729 475.896 174.844C475.896 163.948 467.053 155.104 456.157 155.104Z" fill="#5E17EB"/>
<mask id="mask1_167_21" style="mask-type:luminance" maskUnits="userSpaceOnUse" x="512" y="0" width="542" height="307">
<path d="M512.36 0.015625H1053.26V306.667H512.36V0.015625Z" fill="white"/>
</mask>
<g mask="url(#mask1_167_21)">
<path fill-rule="evenodd" clip-rule="evenodd" d="M512.667 0.015625C512.667 0.015625 555.016 105.26 613.485 114.229C649.667 119.786 676.845 99.9271 707.105 83.901C761.756 54.9531 818.485 47.6354 876.72 71.4427C912.032 85.875 943.871 108.292 964.938 140.5C1003.27 199.099 996.996 336.589 1104.81 300.354C1115.56 296.745 1123.83 289.047 1128.38 278.672C1131.36 188.5 1129.37 0.015625 1129.37 0.015625H512.667Z" fill="#CB6CE6"/>
</g>
<path fill-rule="evenodd" clip-rule="evenodd" d="M998.126 76.4793C999.063 76.7553 999.6 77.7397 999.324 78.672C999.042 79.6095 998.058 80.1459 997.126 79.8647C992.662 78.547 988.657 79.7501 985.98 82.3334C984.188 84.0626 983.386 86.448 982.417 88.7293C981.214 91.5522 979.813 94.2345 977.032 96.0105C974.428 97.672 971.782 97.4949 969.068 96.922C966.173 96.3126 963.173 95.0157 960.115 97.4845C957.803 99.3491 957.376 102.146 956.777 104.839C955.996 108.365 955.037 111.755 951.777 113.953C948.173 116.386 944.725 115.761 941.292 114.74C938.73 113.979 936.209 112.875 933.595 113.917C929.147 115.698 929.449 119.172 929.334 122.531C929.23 125.646 928.886 128.714 926.6 131.167C923.042 134.979 918.199 135.302 913.522 135.724C910.72 135.979 907.985 136.255 905.907 138.063C903.792 139.901 902.475 143.25 902.178 149.354C902.126 150.328 901.298 151.083 900.324 151.037C899.345 150.984 898.595 150.156 898.647 149.182C899.011 141.667 900.98 137.656 903.589 135.391C906.23 133.094 909.636 132.531 913.209 132.203C917.032 131.854 921.1 131.875 924.016 128.75C924.99 127.708 925.391 126.479 925.584 125.193C925.829 123.625 925.792 121.969 925.876 120.37C926.089 116.412 926.975 112.755 932.282 110.636C935.673 109.281 938.98 110.365 942.303 111.349C944.756 112.078 947.225 112.755 949.803 111.021C952.246 109.375 952.746 106.719 953.324 104.078C954.095 100.609 954.917 97.1355 957.897 94.7293C961.386 91.9168 964.782 92.3386 968.121 93.0886C970.511 93.6251 972.855 94.4845 975.131 93.0313C977.272 91.6668 978.24 89.5157 979.162 87.3438C980.318 84.6303 981.391 81.8543 983.532 79.7918C987.037 76.4011 992.282 74.7449 998.126 76.4793Z" fill="#004AAD"/>
<path fill-rule="evenodd" clip-rule="evenodd" d="M1005.04 84.1822C1005.97 84.4583 1006.51 85.4426 1006.24 86.3801C1005.96 87.3124 1004.97 87.8489 1004.04 87.5728C999.579 86.2551 995.568 87.4583 992.897 90.0416C991.1 91.7708 990.298 94.1562 989.334 96.4322C988.131 99.2551 986.73 101.943 983.949 103.719C981.339 105.38 978.693 105.203 975.985 104.63C973.089 104.016 970.089 102.719 967.032 105.187C964.714 107.057 964.287 109.849 963.693 112.547C962.912 116.068 961.949 119.463 958.693 121.656C955.089 124.088 951.641 123.463 948.204 122.448C945.647 121.687 943.12 120.578 940.506 121.625C936.058 123.401 936.36 126.88 936.251 130.24C936.141 133.349 935.798 136.422 933.511 138.87C929.954 142.682 925.11 143.005 920.438 143.432C917.636 143.687 914.897 143.958 912.818 145.766C910.704 147.604 909.386 150.958 909.089 157.062C909.042 158.036 908.209 158.786 907.235 158.74C906.261 158.693 905.511 157.865 905.558 156.885C905.928 149.37 907.897 145.365 910.501 143.099C913.141 140.802 916.548 140.234 920.12 139.911C923.949 139.562 928.011 139.583 930.933 136.458C931.902 135.417 932.303 134.182 932.495 132.901C932.74 131.328 932.704 129.677 932.787 128.078C933.001 124.115 933.886 120.463 939.199 118.338C942.584 116.99 945.891 118.073 949.214 119.057C951.667 119.786 954.136 120.463 956.714 118.729C959.157 117.083 959.657 114.422 960.235 111.781C961.006 108.312 961.829 104.844 964.808 102.437C968.298 99.6197 971.699 100.047 975.037 100.797C977.428 101.328 979.766 102.193 982.042 100.74C984.183 99.3697 985.157 97.2239 986.079 95.052C987.23 92.3333 988.308 89.5572 990.443 87.4947C993.949 84.1093 999.193 82.453 1005.04 84.1822Z" fill="#004AAD"/>
<path fill-rule="evenodd" clip-rule="evenodd" d="M1011.95 91.8904C1012.89 92.1664 1013.42 93.1508 1013.15 94.0831C1012.87 95.0206 1011.88 95.5571 1010.95 95.2758C1006.49 93.9581 1002.49 95.1612 999.808 97.7446C998.016 99.4789 997.209 101.859 996.246 104.14C995.042 106.963 993.641 109.646 990.86 111.422C988.256 113.083 985.61 112.906 982.897 112.333C980.001 111.724 977.001 110.427 973.943 112.896C971.631 114.76 971.199 117.557 970.605 120.25C969.824 123.776 968.86 127.166 965.605 129.364C962.001 131.797 958.553 131.172 955.121 130.151C952.558 129.39 950.037 128.286 947.417 129.328C942.97 131.109 943.272 134.583 943.162 137.942C943.058 141.057 942.714 144.13 940.423 146.578C936.865 150.39 932.027 150.713 927.35 151.135C924.548 151.39 921.813 151.666 919.73 153.474C917.615 155.312 916.303 158.661 916.006 164.765C915.954 165.739 915.121 166.495 914.152 166.448C913.173 166.401 912.423 165.567 912.475 164.594C912.839 157.078 914.808 153.067 917.412 150.807C920.058 148.51 923.459 147.942 927.032 147.614C930.86 147.271 934.928 147.286 937.845 144.161C938.818 143.12 939.214 141.89 939.412 140.604C939.657 139.036 939.615 137.38 939.699 135.781C939.912 131.823 940.803 128.166 946.11 126.047C949.496 124.692 952.808 125.776 956.131 126.76C958.579 127.489 961.053 128.172 963.631 126.432C966.068 124.786 966.574 122.13 967.152 119.489C967.917 116.021 968.74 112.547 971.725 110.14C975.209 107.328 978.61 107.75 981.949 108.5C984.339 109.036 986.678 109.896 988.959 108.442C991.1 107.078 992.068 104.927 992.99 102.755C994.147 100.041 995.22 97.2654 997.355 95.2029C1000.87 91.8123 1006.1 90.156 1011.95 91.8904Z" fill="#004AAD"/>
<path fill-rule="evenodd" clip-rule="evenodd" d="M1018.87 99.5938C1019.8 99.8699 1020.34 100.854 1020.06 101.792C1019.78 102.724 1018.8 103.261 1017.87 102.984C1013.41 101.667 1009.4 102.87 1006.72 105.453C1004.93 107.182 1004.13 109.568 1003.16 111.844C1001.96 114.667 1000.55 117.354 997.772 119.13C995.167 120.792 992.522 120.609 989.813 120.042C986.912 119.427 983.912 118.13 980.855 120.599C978.542 122.469 978.115 125.261 977.516 127.958C976.735 131.479 975.777 134.875 972.516 137.068C968.917 139.5 965.464 138.875 962.032 137.859C959.469 137.099 956.949 135.99 954.334 137.037C949.886 138.813 950.188 142.292 950.074 145.651C949.969 148.761 949.626 151.833 947.339 154.281C943.782 158.094 938.938 158.417 934.266 158.844C931.464 159.099 928.725 159.37 926.647 161.177C924.532 163.016 923.214 166.37 922.917 172.474C922.865 173.448 922.037 174.198 921.063 174.151C920.089 174.104 919.334 173.276 919.386 172.297C919.756 164.781 921.719 160.776 924.329 158.511C926.969 156.214 930.376 155.646 933.949 155.323C937.772 154.974 941.839 154.995 944.756 151.87C945.73 150.828 946.131 149.594 946.324 148.313C946.568 146.74 946.532 145.089 946.615 143.49C946.829 139.526 947.714 135.875 953.022 133.75C956.412 132.396 959.719 133.479 963.042 134.469C965.495 135.193 967.964 135.875 970.542 134.141C972.985 132.495 973.485 129.833 974.063 127.193C974.834 123.724 975.657 120.255 978.636 117.849C982.126 115.031 985.527 115.458 988.86 116.208C991.251 116.74 993.594 117.604 995.87 116.146C998.011 114.781 998.98 112.636 999.907 110.464C1001.06 107.745 1002.13 104.969 1004.27 102.906C1007.78 99.5209 1013.02 97.8647 1018.87 99.5938Z" fill="#004AAD"/>
<path fill-rule="evenodd" clip-rule="evenodd" d="M272.438 147.844C270.876 147.844 269.61 146.578 269.61 145.01C269.61 143.453 270.876 142.182 272.438 142.182C273.996 142.182 275.266 143.453 275.266 145.01C275.266 146.578 273.996 147.844 272.438 147.844ZM291.928 147.844C290.365 147.844 289.1 146.578 289.1 145.01C289.1 143.453 290.365 142.182 291.928 142.182C293.49 142.182 294.756 143.453 294.756 145.01C294.756 146.578 293.49 147.844 291.928 147.844ZM311.417 147.844C309.86 147.844 308.589 146.578 308.589 145.01C308.589 143.453 309.86 142.182 311.417 142.182C312.98 142.182 314.246 143.453 314.246 145.01C314.246 146.578 312.98 147.844 311.417 147.844ZM330.907 147.844C329.35 147.844 328.079 146.578 328.079 145.01C328.079 143.453 329.35 142.182 330.907 142.182C332.469 142.182 333.74 143.453 333.74 145.01C333.74 146.578 332.469 147.844 330.907 147.844ZM350.402 147.844C348.839 147.844 347.574 146.578 347.574 145.01C347.574 143.453 348.839 142.182 350.402 142.182C351.959 142.182 353.23 143.453 353.23 145.01C353.23 146.578 351.959 147.844 350.402 147.844ZM369.891 147.844C368.334 147.844 367.063 146.578 367.063 145.01C367.063 143.453 368.334 142.182 369.891 142.182C371.454 142.182 372.719 143.453 372.719 145.01C372.719 146.578 371.454 147.844 369.891 147.844ZM389.386 147.844C387.824 147.844 386.553 146.578 386.553 145.01C386.553 143.453 387.824 142.182 389.386 142.182C390.943 142.182 392.214 143.453 392.214 145.01C392.214 146.578 390.943 147.844 389.386 147.844ZM408.876 147.844C407.313 147.844 406.048 146.578 406.048 145.01C406.048 143.453 407.313 142.182 408.876 142.182C410.438 142.182 411.704 143.453 411.704 145.01C411.704 146.578 410.438 147.844 408.876 147.844Z" fill="white"/>
<path fill-rule="evenodd" clip-rule="evenodd" d="M272.162 131.109C270.6 131.109 269.334 129.838 269.334 128.271C269.334 126.713 270.6 125.448 272.162 125.448C273.719 125.448 274.99 126.713 274.99 128.271C274.99 129.838 273.719 131.109 272.162 131.109ZM293.167 131.109C291.605 131.109 290.339 129.838 290.339 128.271C290.339 126.713 291.605 125.448 293.167 125.448C294.725 125.448 295.995 126.713 295.995 128.271C295.995 129.838 294.725 131.109 293.167 131.109ZM314.167 131.109C312.61 131.109 311.339 129.838 311.339 128.271C311.339 126.713 312.61 125.448 314.167 125.448C315.73 125.448 316.995 126.713 316.995 128.271C316.995 129.838 315.73 131.109 314.167 131.109ZM335.173 131.109C333.615 131.109 332.344 129.838 332.344 128.271C332.344 126.713 333.615 125.448 335.173 125.448C336.735 125.448 338.001 126.713 338.001 128.271C338.001 129.838 336.735 131.109 335.173 131.109ZM356.178 131.109C354.615 131.109 353.35 129.838 353.35 128.271C353.35 126.713 354.615 125.448 356.178 125.448C357.74 125.448 359.006 126.713 359.006 128.271C359.006 129.838 357.74 131.109 356.178 131.109ZM377.183 131.109C375.62 131.109 374.355 129.838 374.355 128.271C374.355 126.713 375.62 125.448 377.183 125.448C378.745 125.448 380.011 126.713 380.011 128.271C380.011 129.838 378.745 131.109 377.183 131.109Z" fill="white"/>
<path fill-rule="evenodd" clip-rule="evenodd" d="M272.073 116.083C270.511 116.083 269.245 114.812 269.245 113.245C269.245 111.687 270.511 110.417 272.073 110.417C273.631 110.417 274.902 111.687 274.902 113.245C274.902 114.812 273.631 116.083 272.073 116.083ZM293.834 116.083C292.271 116.083 291.006 114.812 291.006 113.245C291.006 111.687 292.271 110.417 293.834 110.417C295.391 110.417 296.662 111.687 296.662 113.245C296.662 114.812 295.391 116.083 293.834 116.083ZM315.594 116.083C314.032 116.083 312.766 114.812 312.766 113.245C312.766 111.687 314.032 110.417 315.594 110.417C317.152 110.417 318.422 111.687 318.422 113.245C318.422 114.812 317.152 116.083 315.594 116.083ZM337.355 116.083C335.792 116.083 334.527 114.812 334.527 113.245C334.527 111.687 335.792 110.417 337.355 110.417C338.917 110.417 340.183 111.687 340.183 113.245C340.183 114.812 338.917 116.083 337.355 116.083Z" fill="white"/>
<path d="M647.834 79.8491C647.834 80.7085 647.751 81.5575 647.579 82.4012C647.412 83.245 647.167 84.0627 646.834 84.8595C646.506 85.6512 646.105 86.4064 645.626 87.12C645.146 87.8387 644.605 88.5002 644.001 89.1043C643.391 89.7137 642.73 90.2554 642.016 90.7345C641.298 91.2137 640.548 91.6147 639.751 91.9429C638.959 92.271 638.136 92.521 637.298 92.6877C636.454 92.8543 635.6 92.9429 634.74 92.9429C633.881 92.9429 633.032 92.8543 632.188 92.6877C631.344 92.521 630.527 92.271 629.73 91.9429C628.938 91.6147 628.183 91.2137 627.469 90.7345C626.751 90.2554 626.089 89.7137 625.485 89.1043C624.876 88.5002 624.334 87.8387 623.855 87.12C623.376 86.4064 622.975 85.6512 622.646 84.8595C622.318 84.0627 622.068 83.245 621.902 82.4012C621.735 81.5575 621.646 80.7085 621.646 79.8491C621.646 78.9897 621.735 78.1356 621.902 77.2918C622.068 76.4533 622.318 75.6304 622.646 74.8387C622.975 74.0418 623.376 73.2918 623.855 72.5731C624.334 71.8595 624.876 71.1981 625.485 70.5887C626.089 69.9845 626.751 69.4429 627.469 68.9637C628.183 68.4845 628.938 68.0835 629.73 67.7554C630.527 67.422 631.344 67.1772 632.188 67.0106C633.032 66.8387 633.881 66.7554 634.74 66.7554C635.6 66.7554 636.454 66.8387 637.298 67.0106C638.136 67.1772 638.959 67.422 639.751 67.7554C640.548 68.0835 641.298 68.4845 642.016 68.9637C642.73 69.4429 643.391 69.9845 644.001 70.5887C644.605 71.1981 645.146 71.8595 645.626 72.5731C646.105 73.2918 646.506 74.0418 646.834 74.8387C647.167 75.6304 647.412 76.4533 647.579 77.2918C647.751 78.1356 647.834 78.9897 647.834 79.8491Z" fill="#5E17EB"/>
<mask id="mask2_167_21" style="mask-type:luminance" maskUnits="userSpaceOnUse" x="260" y="868" width="794" height="254">
<path d="M260.688 868.203H1053.26V1122H260.688V868.203Z" fill="white"/>
</mask>
<g mask="url(#mask2_167_21)">
<path d="M1080.93 868.203V1238.57H799.615C610.068 1237.47 420.501 1236.38 230.959 1235.28C244.881 1147.3 283.079 1102.98 304.73 1082.84C337.089 1052.7 379.652 1032.63 425.141 1020.72C505.266 999.656 594.542 1003.81 653.574 1022.25C675.146 1029.01 723.136 1047.95 783.704 1037.49C809.506 1033.04 827.282 1025.08 849.798 1014.8C926.094 979.969 947.594 944.729 1022.74 899.234C1036.33 891 1055.89 879.906 1080.93 868.203Z" fill="#CB6CE6"/>
</g>
<mask id="mask3_167_21" style="mask-type:luminance" maskUnits="userSpaceOnUse" x="261" y="940" width="793" height="182">
<path d="M261 940H1053.26V1122H261V940Z" fill="white"/>
</mask>
<g mask="url(#mask3_167_21)">
<path d="M1080.92 940.443V1238.57H213.258V1052.19C264.597 1035.66 333.622 1020.03 414.809 1020.54C418.381 1020.54 421.921 1020.61 425.388 1020.72C560.924 1023.96 625.362 1071.95 721.23 1081.2C806.723 1089.42 926.452 1067.74 1080.92 940.443Z" fill="#8A51FC"/>
</g>
<mask id="mask4_167_21" style="mask-type:luminance" maskUnits="userSpaceOnUse" x="260" y="960" width="794" height="131">
<path d="M260.688 960H1053.26V1090.67H260.688V960Z" fill="white"/>
</mask>
<g mask="url(#mask4_167_21)">
<path d="M237.105 1044.89C339.157 1011.1 452.277 1005.09 556.98 1032.42C592.016 1041.32 625.907 1053.28 660.079 1062.1C766.412 1092.43 870.022 1067.71 965.391 1016.31C996.834 999.656 1026.92 980.349 1056.4 960C1028.99 983.052 999.865 1004.17 969.115 1022.86C958.886 1029.29 944.355 1036.94 933.746 1042.65C865.173 1077.53 786.912 1097.65 709.803 1087.35C655.871 1081.03 605.303 1060.27 553.334 1046.4C450.334 1017.66 340.813 1020.54 237.105 1044.89Z" fill="#F9FFF9"/>
</g>
<path d="M313.756 1081.97L303.683 1073.05L312.61 1062.97C314.214 1061.16 314.037 1058.41 312.225 1056.8C310.417 1055.19 307.662 1055.37 306.058 1057.18L297.131 1067.26L287.058 1058.33C285.245 1056.72 282.495 1056.9 280.886 1058.71C279.282 1060.53 279.459 1063.28 281.271 1064.89L291.344 1073.81L282.417 1083.88C280.813 1085.69 280.99 1088.45 282.797 1090.05C284.61 1091.66 287.365 1091.48 288.969 1089.67L297.896 1079.6L307.969 1088.52C309.777 1090.13 312.532 1089.95 314.141 1088.14C315.745 1086.33 315.568 1083.58 313.756 1081.97Z" fill="#F9FFF9"/>
<mask id="mask5_167_21" style="mask-type:luminance" maskUnits="userSpaceOnUse" x="877" y="1093" width="177" height="29">
<path d="M877.693 1093.33H1053.26V1122H877.693V1093.33Z" fill="white"/>
</mask>
<g mask="url(#mask5_167_21)">
<path d="M976.714 1094.62C922.245 1094.62 877.948 1138.91 877.948 1193.38C877.948 1208.71 881.469 1223.21 887.719 1236.17C888.1 1236.96 888.506 1237.78 888.917 1238.57H920.308C919.693 1237.83 919.136 1237.09 918.573 1236.35C909.672 1224.34 904.417 1209.47 904.417 1193.38C904.417 1153.45 936.782 1121.06 976.714 1121.06C1016.65 1121.06 1049.01 1153.45 1049.01 1193.38C1049.01 1209.8 1043.55 1224.9 1034.34 1237.04C1033.94 1237.55 1033.55 1238.06 1033.12 1238.57H1064.51C1064.74 1238.11 1064.97 1237.68 1065.2 1237.21C1071.78 1224.01 1075.47 1209.11 1075.47 1193.38C1075.47 1138.91 1031.18 1094.62 976.714 1094.62Z" fill="#CB6CE6"/>
</g>
<mask id="mask6_167_21" style="mask-type:luminance" maskUnits="userSpaceOnUse" x="943" y="1114" width="17" height="9">
<path d="M943.027 1114.67H959.027V1122H943.027V1114.67Z" fill="white"/>
</mask>
<g mask="url(#mask6_167_21)">
<path d="M946.829 1115.76H954.402C954.876 1115.76 955.334 1115.85 955.777 1116.03C956.219 1116.21 956.605 1116.47 956.943 1116.81C957.282 1117.15 957.542 1117.54 957.725 1117.98C957.907 1118.42 957.995 1118.88 957.995 1119.35V1126.93C957.995 1127.4 957.907 1127.86 957.725 1128.3C957.542 1128.74 957.282 1129.13 956.943 1129.47C956.605 1129.81 956.219 1130.07 955.777 1130.25C955.334 1130.43 954.876 1130.52 954.402 1130.52H946.829C946.35 1130.52 945.891 1130.43 945.448 1130.25C945.011 1130.07 944.62 1129.81 944.282 1129.47C943.948 1129.13 943.688 1128.74 943.506 1128.3C943.323 1127.86 943.23 1127.4 943.23 1126.93V1119.35C943.23 1118.88 943.323 1118.42 943.506 1117.98C943.688 1117.54 943.948 1117.15 944.282 1116.81C944.62 1116.47 945.011 1116.21 945.448 1116.03C945.891 1115.85 946.35 1115.76 946.829 1115.76Z" fill="#F9FFF9"/>
</g>
<mask id="mask7_167_21" style="mask-type:luminance" maskUnits="userSpaceOnUse" x="980" y="1114" width="17" height="9">
<path d="M980.36 1114.67H996.36V1122H980.36V1114.67Z" fill="white"/>
</mask>
<g mask="url(#mask7_167_21)">
<path d="M984.261 1115.76H991.834C992.313 1115.76 992.771 1115.85 993.209 1116.03C993.652 1116.21 994.042 1116.47 994.376 1116.81C994.714 1117.15 994.975 1117.54 995.157 1117.98C995.339 1118.42 995.433 1118.88 995.433 1119.35V1126.93C995.433 1127.4 995.339 1127.86 995.157 1128.3C994.975 1128.74 994.714 1129.13 994.376 1129.47C994.042 1129.81 993.652 1130.07 993.209 1130.25C992.771 1130.43 992.313 1130.52 991.834 1130.52H984.261C983.787 1130.52 983.323 1130.43 982.886 1130.25C982.443 1130.07 982.058 1129.81 981.719 1129.47C981.381 1129.13 981.12 1128.74 980.938 1128.3C980.756 1127.86 980.667 1127.4 980.667 1126.93V1119.35C980.667 1118.88 980.756 1118.42 980.938 1117.98C981.12 1117.54 981.381 1117.15 981.719 1116.81C982.058 1116.47 982.443 1116.21 982.886 1116.03C983.323 1115.85 983.787 1115.76 984.261 1115.76Z" fill="#F9FFF9"/>
</g>
<mask id="mask8_167_21" style="mask-type:luminance" maskUnits="userSpaceOnUse" x="1017" y="1114" width="17" height="9">
<path d="M1017.69 1114.67H1033.69V1122H1017.69V1114.67Z" fill="white"/>
</mask>
<g mask="url(#mask8_167_21)">
<path d="M1021.69 1115.76H1029.27C1029.75 1115.76 1030.2 1115.85 1030.65 1116.03C1031.08 1116.21 1031.47 1116.47 1031.81 1116.81C1032.15 1117.15 1032.41 1117.54 1032.59 1117.98C1032.77 1118.42 1032.87 1118.88 1032.87 1119.35V1126.93C1032.87 1127.4 1032.77 1127.86 1032.59 1128.3C1032.41 1128.74 1032.15 1129.13 1031.81 1129.47C1031.47 1129.81 1031.08 1130.07 1030.65 1130.25C1030.2 1130.43 1029.75 1130.52 1029.27 1130.52H1021.69C1021.22 1130.52 1020.76 1130.43 1020.32 1130.25C1019.88 1130.07 1019.49 1129.81 1019.15 1129.47C1018.82 1129.13 1018.56 1128.74 1018.38 1128.3C1018.19 1127.86 1018.1 1127.4 1018.1 1126.93V1119.35C1018.1 1118.88 1018.19 1118.42 1018.38 1117.98C1018.56 1117.54 1018.82 1117.15 1019.15 1116.81C1019.49 1116.47 1019.88 1116.21 1020.32 1116.03C1020.76 1115.85 1021.22 1115.76 1021.69 1115.76Z" fill="#F9FFF9"/>
</g>
<mask id="mask9_167_21" style="mask-type:luminance" maskUnits="userSpaceOnUse" x="307" y="238" width="14" height="14">
<path d="M307.027 238.927H320.36V252H307.027V238.927Z" fill="white"/>
</mask>
<g mask="url(#mask9_167_21)">
<path d="M308.157 250.995C308.907 251.75 310.131 251.75 310.886 250.995L312.438 249.443C313.188 248.688 314.417 248.688 315.173 249.443L316.73 250.995C317.48 251.75 318.709 251.75 319.464 250.995C320.219 250.245 320.219 249.021 319.464 248.261L317.912 246.698C317.157 245.948 317.157 244.724 317.912 243.964L319.464 242.412C320.219 241.662 320.219 240.438 319.464 239.683C318.709 238.927 317.48 238.927 316.725 239.683L315.167 241.24C314.417 241.995 313.188 241.995 312.433 241.24L310.881 239.688C310.131 238.927 308.907 238.927 308.146 239.688C307.391 240.438 307.391 241.662 308.146 242.417L309.699 243.969C310.459 244.724 310.459 245.948 309.699 246.703L308.146 248.261C307.391 249.011 307.391 250.24 308.157 250.995Z" fill="#5E17EB"/>
</g>
<mask id="mask10_167_21" style="mask-type:luminance" maskUnits="userSpaceOnUse" x="286" y="334" width="15" height="14">
<path d="M286.761 334.667H300.36V347.833H286.761V334.667Z" fill="white"/>
</mask>
<g mask="url(#mask10_167_21)">
<path d="M287.532 347.047C288.282 347.802 289.511 347.802 290.266 347.047L291.818 345.489C292.568 344.734 293.792 344.734 294.553 345.489L296.105 347.047C296.855 347.802 298.079 347.802 298.834 347.047C299.594 346.291 299.594 345.067 298.834 344.312L297.282 342.76C296.527 342.01 296.527 340.781 297.282 340.026L298.834 338.474C299.594 337.724 299.594 336.5 298.834 335.739C298.084 334.984 296.86 334.984 296.105 335.739L294.553 337.297C293.797 338.052 292.573 338.052 291.818 337.297L290.266 335.739C289.516 334.984 288.292 334.984 287.532 335.739C286.777 336.494 286.777 337.718 287.532 338.474L289.084 340.026C289.844 340.776 289.844 342 289.084 342.76L287.532 344.312C286.777 345.067 286.777 346.291 287.532 347.047Z" fill="#5E17EB"/>
</g>
<path d="M308.162 270.208C308.912 270.964 310.136 270.964 310.896 270.208L312.449 268.656C313.199 267.896 314.423 267.896 315.178 268.656L316.73 270.208C317.48 270.964 318.709 270.964 319.464 270.208C320.219 269.453 320.219 268.229 319.464 267.474L317.896 265.917C317.141 265.167 317.141 263.938 317.896 263.182L319.449 261.63C320.209 260.88 320.209 259.656 319.449 258.896C318.699 258.141 317.475 258.141 316.719 258.896L315.167 260.448C314.417 261.208 313.188 261.208 312.433 260.448L310.881 258.896C310.131 258.141 308.907 258.141 308.146 258.896C307.391 259.646 307.391 260.875 308.146 261.63L309.699 263.182C310.459 263.932 310.459 265.156 309.699 265.917L308.146 267.474C307.391 268.224 307.391 269.448 308.162 270.208Z" fill="#5E17EB"/>
<mask id="mask11_167_21" style="mask-type:luminance" maskUnits="userSpaceOnUse" x="286" y="257" width="15" height="15">
<path d="M286.761 257.333H300.36V272H286.761V257.333Z" fill="white"/>
</mask>
<g mask="url(#mask11_167_21)">
<path d="M287.532 270.208C288.282 270.964 289.511 270.964 290.266 270.208L291.818 268.656C292.568 267.896 293.792 267.896 294.553 268.656L296.105 270.208C296.855 270.964 298.079 270.964 298.834 270.208C299.594 269.453 299.594 268.229 298.834 267.474L297.282 265.922C296.527 265.172 296.527 263.948 297.282 263.188L298.834 261.635C299.594 260.885 299.594 259.661 298.834 258.906C298.084 258.146 296.86 258.146 296.105 258.906L294.553 260.458C293.797 261.214 292.573 261.214 291.818 260.458L290.266 258.906C289.516 258.146 288.292 258.146 287.532 258.906C286.777 259.656 286.777 260.88 287.532 261.635L289.084 263.188C289.844 263.938 289.844 265.167 289.084 265.922L287.532 267.474C286.777 268.224 286.777 269.448 287.532 270.208Z" fill="#5E17EB"/>
</g>
<path d="M308.162 289.417C308.912 290.172 310.136 290.172 310.896 289.417L312.449 287.865C313.199 287.109 314.423 287.109 315.178 287.865L316.73 289.417C317.48 290.172 318.709 290.172 319.464 289.417C320.219 288.667 320.219 287.443 319.464 286.682L317.896 285.125C317.141 284.375 317.141 283.151 317.896 282.396L319.449 280.844C320.209 280.089 320.209 278.865 319.449 278.109C318.699 277.354 317.475 277.354 316.719 278.109L315.167 279.661C314.417 280.417 313.188 280.417 312.433 279.661L310.881 278.109C310.131 277.354 308.907 277.354 308.146 278.109C307.391 278.859 307.391 280.083 308.146 280.844L309.699 282.396C310.459 283.146 310.459 284.37 309.699 285.125L308.146 286.682C307.391 287.437 307.391 288.661 308.162 289.417Z" fill="#5E17EB"/>
<mask id="mask12_167_21" style="mask-type:luminance" maskUnits="userSpaceOnUse" x="286" y="277" width="15" height="14">
<path d="M286.761 277.333H300.36V290.667H286.761V277.333Z" fill="white"/>
</mask>
<g mask="url(#mask12_167_21)">
<path d="M287.532 289.417C288.282 290.172 289.511 290.172 290.266 289.417L291.818 287.865C292.568 287.11 293.792 287.11 294.553 287.865L296.105 289.417C296.855 290.172 298.079 290.172 298.834 289.417C299.594 288.667 299.594 287.443 298.834 286.682L297.282 285.13C296.527 284.38 296.527 283.156 297.282 282.401L298.834 280.849C299.594 280.099 299.594 278.87 298.834 278.115C298.084 277.36 296.86 277.36 296.105 278.115L294.553 279.667C293.797 280.422 292.573 280.422 291.818 279.667L290.266 278.115C289.516 277.36 288.292 277.36 287.532 278.115C286.777 278.865 286.777 280.089 287.532 280.849L289.084 282.401C289.844 283.151 289.844 284.375 289.084 285.13L287.532 286.682C286.777 287.438 286.777 288.662 287.532 289.417Z" fill="#5E17EB"/>
</g>
<path d="M308.146 308.63C308.902 309.385 310.126 309.385 310.881 308.63L312.433 307.078C313.183 306.318 314.407 306.318 315.167 307.078L316.719 308.63C317.469 309.385 318.693 309.385 319.449 308.63C320.209 307.88 320.209 306.651 319.449 305.896L317.896 304.344C317.141 303.594 317.141 302.37 317.896 301.609L319.449 300.057C320.209 299.307 320.209 298.083 319.449 297.328C318.699 296.568 317.475 296.568 316.719 297.328L315.167 298.88C314.417 299.635 313.188 299.635 312.433 298.88L310.881 297.328C310.131 296.568 308.907 296.568 308.146 297.328C307.391 298.078 307.391 299.302 308.146 300.057L309.699 301.609C310.459 302.359 310.459 303.589 309.699 304.344L308.146 305.896C307.391 306.646 307.391 307.87 308.146 308.63Z" fill="#5E17EB"/>
<mask id="mask13_167_21" style="mask-type:luminance" maskUnits="userSpaceOnUse" x="286" y="296" width="15" height="14">
<path d="M286.761 296H300.36V309.333H286.761V296Z" fill="white"/>
</mask>
<g mask="url(#mask13_167_21)">
<path d="M287.532 308.63C288.282 309.385 289.511 309.385 290.266 308.63L291.818 307.078C292.568 306.318 293.792 306.318 294.553 307.078L296.105 308.63C296.855 309.385 298.079 309.385 298.834 308.63C299.594 307.88 299.594 306.651 298.834 305.896L297.282 304.344C296.527 303.594 296.527 302.37 297.282 301.609L298.834 300.057C299.594 299.307 299.594 298.083 298.834 297.328C298.084 296.568 296.86 296.568 296.105 297.328L294.553 298.88C293.797 299.635 292.573 299.635 291.818 298.88L290.266 297.328C289.516 296.568 288.292 296.568 287.532 297.328C286.777 298.078 286.777 299.302 287.532 300.057L289.084 301.609C289.844 302.359 289.844 303.589 289.084 304.344L287.532 305.896C286.777 306.646 286.777 307.87 287.532 308.63Z" fill="#5E17EB"/>
</g>
<path d="M308.146 327.833C308.902 328.589 310.126 328.589 310.881 327.833L312.433 326.281C313.183 325.526 314.407 325.526 315.167 326.281L316.719 327.833C317.469 328.589 318.693 328.589 319.449 327.833C320.209 327.083 320.209 325.859 319.449 325.099L317.896 323.547C317.141 322.797 317.141 321.573 317.896 320.818L319.449 319.266C320.209 318.51 320.209 317.286 319.449 316.531C318.699 315.776 317.475 315.776 316.719 316.531L315.167 318.083C314.417 318.839 313.188 318.839 312.433 318.083L310.881 316.531C310.131 315.776 308.907 315.776 308.146 316.531C307.391 317.281 307.391 318.505 308.146 319.266L309.699 320.818C310.459 321.568 310.459 322.792 309.699 323.547L308.146 325.099C307.391 325.859 307.391 327.083 308.146 327.833Z" fill="#5E17EB"/>
<mask id="mask14_167_21" style="mask-type:luminance" maskUnits="userSpaceOnUse" x="286" y="314" width="15" height="16">
<path d="M286.761 314.667H300.36V329.333H286.761V314.667Z" fill="white"/>
</mask>
<g mask="url(#mask14_167_21)">
<path d="M287.532 327.833C288.282 328.589 289.511 328.589 290.266 327.833L291.818 326.281C292.568 325.526 293.792 325.526 294.553 326.281L296.105 327.833C296.855 328.589 298.079 328.589 298.834 327.833C299.594 327.083 299.594 325.859 298.834 325.099L297.282 323.547C296.527 322.797 296.527 321.573 297.282 320.818L298.834 319.266C299.594 318.51 299.594 317.286 298.834 316.531C298.084 315.776 296.86 315.776 296.105 316.531L294.553 318.083C293.797 318.839 292.573 318.839 291.818 318.083L290.266 316.531C289.516 315.776 288.292 315.776 287.532 316.531C286.777 317.281 286.777 318.505 287.532 319.266L289.084 320.818C289.844 321.568 289.844 322.792 289.084 323.547L287.532 325.099C286.777 325.859 286.777 327.083 287.532 327.833Z" fill="#5E17EB"/>
</g>
<mask id="mask15_167_21" style="mask-type:luminance" maskUnits="userSpaceOnUse" x="1015" y="775" width="14" height="15">
<path d="M1015.03 775.667H1028.27V789.333H1015.03V775.667Z" fill="white"/>
</mask>
<g mask="url(#mask15_167_21)">
<path d="M1015.69 787.729C1016.44 788.489 1017.67 788.489 1018.43 787.729L1019.98 786.177C1020.73 785.422 1021.95 785.422 1022.71 786.177L1024.27 787.729C1025.02 788.489 1026.25 788.489 1027.01 787.729C1027.76 786.979 1027.76 785.755 1027.01 785L1025.45 783.432C1024.69 782.682 1024.69 781.458 1025.45 780.703L1027.01 779.146C1027.76 778.396 1027.76 777.172 1027.01 776.417C1026.25 775.667 1025.02 775.667 1024.27 776.417L1022.7 777.974C1021.95 778.729 1020.73 778.729 1019.97 777.974L1018.42 776.422C1017.67 775.667 1016.44 775.667 1015.69 776.422C1014.93 777.172 1014.93 778.396 1015.69 779.156L1017.24 780.708C1018 781.458 1018 782.682 1017.24 783.437L1015.69 785C1014.93 785.75 1014.93 786.974 1015.69 787.729Z" fill="#5E17EB"/>
</g>
<mask id="mask16_167_21" style="mask-type:luminance" maskUnits="userSpaceOnUse" x="994" y="870" width="14" height="15">
<path d="M994.303 870.667H1007.03V884.568H994.303V870.667Z" fill="white"/>
</mask>
<g mask="url(#mask16_167_21)">
<path d="M995.073 883.781C995.823 884.536 997.047 884.536 997.808 883.781L999.36 882.229C1000.11 881.469 1001.33 881.469 1002.09 882.229L1003.64 883.781C1004.39 884.536 1005.62 884.536 1006.38 883.781C1007.13 883.031 1007.13 881.802 1006.38 881.047L1004.82 879.495C1004.07 878.745 1004.07 877.521 1004.82 876.76L1006.38 875.208C1007.13 874.458 1007.13 873.234 1006.38 872.479C1005.63 871.719 1004.4 871.719 1003.64 872.479L1002.09 874.031C1001.34 874.786 1000.12 874.786 999.36 874.031L997.808 872.479C997.053 871.719 995.829 871.719 995.073 872.479C994.318 873.229 994.318 874.453 995.073 875.208L996.626 876.76C997.381 877.515 997.381 878.739 996.626 879.495L995.073 881.047C994.318 881.802 994.318 883.031 995.073 883.781Z" fill="#5E17EB"/>
</g>
<mask id="mask17_167_21" style="mask-type:luminance" maskUnits="userSpaceOnUse" x="1015" y="794" width="14" height="14">
<path d="M1015.03 794.667H1028.27V808H1015.03V794.667Z" fill="white"/>
</mask>
<g mask="url(#mask17_167_21)">
<path d="M1015.7 806.943C1016.45 807.698 1017.68 807.698 1018.43 806.943L1019.98 805.39C1020.73 804.635 1021.96 804.635 1022.72 805.39L1024.27 806.943C1025.02 807.698 1026.25 807.698 1027.01 806.943C1027.76 806.193 1027.76 804.969 1027.01 804.208L1025.44 802.651C1024.68 801.901 1024.68 800.677 1025.44 799.917L1026.99 798.364C1027.75 797.614 1027.75 796.39 1026.99 795.635C1026.24 794.875 1025.02 794.875 1024.26 795.635L1022.7 797.187C1021.95 797.943 1020.73 797.943 1019.97 797.187L1018.42 795.635C1017.67 794.875 1016.44 794.875 1015.69 795.635C1014.93 796.385 1014.93 797.609 1015.69 798.364L1017.24 799.917C1018 800.667 1018 801.896 1017.24 802.651L1015.69 804.208C1014.93 804.958 1014.93 806.187 1015.7 806.943Z" fill="#5E17EB"/>
</g>
<mask id="mask18_167_21" style="mask-type:luminance" maskUnits="userSpaceOnUse" x="994" y="794" width="14" height="14">
<path d="M994.303 794.667H1007.03V808H994.303V794.667Z" fill="white"/>
</mask>
<g mask="url(#mask18_167_21)">
<path d="M995.073 806.943C995.823 807.698 997.047 807.698 997.808 806.943L999.36 805.391C1000.11 804.635 1001.33 804.635 1002.09 805.391L1003.64 806.943C1004.39 807.698 1005.62 807.698 1006.38 806.943C1007.13 806.193 1007.13 804.969 1006.38 804.208L1004.82 802.656C1004.07 801.906 1004.07 800.682 1004.82 799.927L1006.38 798.37C1007.13 797.62 1007.13 796.396 1006.38 795.641C1005.63 794.885 1004.4 794.885 1003.64 795.641L1002.09 797.193C1001.34 797.948 1000.12 797.948 999.36 797.193L997.808 795.641C997.053 794.885 995.829 794.885 995.073 795.641C994.318 796.391 994.318 797.615 995.073 798.375L996.626 799.927C997.381 800.677 997.381 801.901 996.626 802.656L995.073 804.208C994.318 804.958 994.318 806.188 995.073 806.943Z" fill="#5E17EB"/>
</g>
<mask id="mask19_167_21" style="mask-type:luminance" maskUnits="userSpaceOnUse" x="1015" y="813" width="14" height="15">
<path d="M1015.03 813.333H1028.27V828H1015.03V813.333Z" fill="white"/>
</mask>
<g mask="url(#mask19_167_21)">
<path d="M1015.7 826.151C1016.45 826.911 1017.68 826.911 1018.43 826.151L1019.98 824.599C1020.73 823.844 1021.96 823.844 1022.72 824.599L1024.27 826.151C1025.02 826.911 1026.25 826.911 1027.01 826.151C1027.76 825.401 1027.76 824.177 1027.01 823.422L1025.44 821.859C1024.68 821.109 1024.68 819.885 1025.44 819.13L1026.99 817.578C1027.75 816.828 1027.75 815.599 1026.99 814.844C1026.24 814.089 1025.02 814.089 1024.26 814.844L1022.7 816.396C1021.95 817.156 1020.73 817.156 1019.97 816.396L1018.42 814.844C1017.67 814.089 1016.44 814.089 1015.69 814.844C1014.93 815.594 1014.93 816.818 1015.69 817.578L1017.24 819.13C1018 819.88 1018 821.104 1017.24 821.859L1015.69 823.422C1014.93 824.172 1014.93 825.396 1015.7 826.151Z" fill="#5E17EB"/>
</g>
<mask id="mask20_167_21" style="mask-type:luminance" maskUnits="userSpaceOnUse" x="994" y="813" width="14" height="15">
<path d="M994.303 813.333H1007.03V828H994.303V813.333Z" fill="white"/>
</mask>
<g mask="url(#mask20_167_21)">
<path d="M995.073 826.151C995.823 826.912 997.047 826.912 997.808 826.151L999.36 824.599C1000.11 823.844 1001.33 823.844 1002.09 824.599L1003.64 826.151C1004.39 826.912 1005.62 826.912 1006.38 826.151C1007.13 825.401 1007.13 824.177 1006.38 823.422L1004.82 821.87C1004.07 821.12 1004.07 819.891 1004.82 819.136L1006.38 817.583C1007.13 816.833 1007.13 815.61 1006.38 814.849C1005.63 814.094 1004.4 814.094 1003.64 814.849L1002.09 816.401C1001.34 817.162 1000.12 817.162 999.36 816.401L997.808 814.849C997.053 814.094 995.829 814.094 995.073 814.849C994.318 815.599 994.318 816.828 995.073 817.583L996.626 819.136C997.381 819.886 997.381 821.11 996.626 821.87L995.073 823.422C994.318 824.172 994.318 825.396 995.073 826.151Z" fill="#5E17EB"/>
</g>
<mask id="mask21_167_21" style="mask-type:luminance" maskUnits="userSpaceOnUse" x="1015" y="833" width="14" height="14">
<path d="M1015.03 833.333H1028.27V846.667H1015.03V833.333Z" fill="white"/>
</mask>
<g mask="url(#mask21_167_21)">
<path d="M1015.69 845.365C1016.44 846.12 1017.66 846.12 1018.42 845.365L1019.97 843.813C1020.72 843.057 1021.95 843.057 1022.7 843.813L1024.26 845.365C1025.01 846.12 1026.23 846.12 1026.99 845.365C1027.75 844.615 1027.75 843.391 1026.99 842.63L1025.44 841.078C1024.68 840.328 1024.68 839.104 1025.44 838.349L1026.99 836.797C1027.75 836.042 1027.75 834.818 1026.99 834.062C1026.24 833.307 1025.02 833.307 1024.26 834.062L1022.7 835.615C1021.95 836.37 1020.73 836.37 1019.97 835.615L1018.42 834.062C1017.67 833.307 1016.44 833.307 1015.69 834.062C1014.93 834.812 1014.93 836.036 1015.69 836.797L1017.24 838.349C1018 839.099 1018 840.323 1017.24 841.078L1015.69 842.63C1014.93 843.38 1014.93 844.609 1015.69 845.365Z" fill="#5E17EB"/>
</g>
<mask id="mask22_167_21" style="mask-type:luminance" maskUnits="userSpaceOnUse" x="994" y="833" width="14" height="14">
<path d="M994.303 833.333H1007.03V846.667H994.303V833.333Z" fill="white"/>
</mask>
<g mask="url(#mask22_167_21)">
<path d="M995.073 845.365C995.823 846.12 997.047 846.12 997.808 845.365L999.36 843.813C1000.11 843.057 1001.33 843.057 1002.09 843.813L1003.64 845.365C1004.39 846.12 1005.62 846.12 1006.38 845.365C1007.13 844.615 1007.13 843.391 1006.38 842.63L1004.82 841.078C1004.07 840.328 1004.07 839.104 1004.82 838.349L1006.38 836.797C1007.13 836.042 1007.13 834.818 1006.38 834.062C1005.63 833.307 1004.4 833.307 1003.64 834.062L1002.09 835.615C1001.34 836.37 1000.12 836.37 999.36 835.615L997.808 834.062C997.053 833.307 995.829 833.307 995.073 834.062C994.318 834.812 994.318 836.036 995.073 836.797L996.626 838.349C997.381 839.099 997.381 840.323 996.626 841.078L995.073 842.63C994.318 843.38 994.318 844.609 995.073 845.365Z" fill="#5E17EB"/>
</g>
<mask id="mask23_167_21" style="mask-type:luminance" maskUnits="userSpaceOnUse" x="1015" y="852" width="14" height="14">
<path d="M1015.03 852H1028.27V865.333H1015.03V852Z" fill="white"/>
</mask>
<g mask="url(#mask23_167_21)">
<path d="M1015.69 864.568C1016.44 865.328 1017.66 865.328 1018.42 864.568L1019.97 863.016C1020.72 862.26 1021.95 862.26 1022.7 863.016L1024.26 864.568C1025.01 865.328 1026.23 865.328 1026.99 864.568C1027.75 863.818 1027.75 862.594 1026.99 861.839L1025.44 860.286C1024.68 859.531 1024.68 858.307 1025.44 857.552L1026.99 856C1027.75 855.25 1027.75 854.026 1026.99 853.266C1026.24 852.51 1025.02 852.51 1024.26 853.266L1022.7 854.818C1021.95 855.578 1020.73 855.578 1019.97 854.818L1018.42 853.266C1017.67 852.51 1016.44 852.51 1015.69 853.266C1014.93 854.016 1014.93 855.245 1015.69 856L1017.24 857.552C1018 858.302 1018 859.526 1017.24 860.286L1015.69 861.839C1014.93 862.594 1014.93 863.818 1015.69 864.568Z" fill="#5E17EB"/>
</g>
<mask id="mask24_167_21" style="mask-type:luminance" maskUnits="userSpaceOnUse" x="994" y="852" width="14" height="14">
<path d="M994.303 852H1007.03V865.333H994.303V852Z" fill="white"/>
</mask>
<g mask="url(#mask24_167_21)">
<path d="M995.073 864.568C995.823 865.328 997.047 865.328 997.808 864.568L999.36 863.016C1000.11 862.26 1001.33 862.26 1002.09 863.016L1003.64 864.568C1004.39 865.328 1005.62 865.328 1006.38 864.568C1007.13 863.818 1007.13 862.594 1006.38 861.839L1004.82 860.286C1004.07 859.531 1004.07 858.307 1004.82 857.552L1006.38 856C1007.13 855.25 1007.13 854.026 1006.38 853.266C1005.63 852.51 1004.4 852.51 1003.64 853.266L1002.09 854.818C1001.34 855.578 1000.12 855.578 999.36 854.818L997.808 853.266C997.053 852.51 995.829 852.51 995.073 853.266C994.318 854.016 994.318 855.245 995.073 856L996.626 857.552C997.381 858.302 997.381 859.526 996.626 860.286L995.073 861.839C994.318 862.594 994.318 863.818 995.073 864.568Z" fill="#5E17EB"/>
</g>
</g>
<defs>
<filter id="filter0_f_167_21" x="30" y="-165" width="1156.26" height="1476" filterUnits="userSpaceOnUse" color-interpolation-filters="sRGB">
<feFlood flood-opacity="0" result="BackgroundImageFix"/>
<feBlend mode="normal" in="SourceGraphic" in2="BackgroundImageFix" result="shape"/>
<feGaussianBlur stdDeviation="58" result="effect1_foregroundBlur_167_21"/>
</filter>
<filter id="filter1_d_167_21" x="5" y="-67" width="1066.1" height="1280" filterUnits="userSpaceOnUse" color-interpolation-filters="sRGB">
<feFlood flood-opacity="0" result="BackgroundImageFix"/>
<feColorMatrix in="SourceAlpha" type="matrix" values="0 0 0 0 0 0 0 0 0 0 0 0 0 0 0 0 0 0 127 0" result="hardAlpha"/>
<feOffset dx="-123"/>
<feGaussianBlur stdDeviation="9"/>
<feComposite in2="hardAlpha" operator="out"/>
<feColorMatrix type="matrix" values="0 0 0 0 0.54902 0 0 0 0 0.321569 0 0 0 0 1 0 0 0 1 0"/>
<feBlend mode="normal" in2="BackgroundImageFix" result="effect1_dropShadow_167_21"/>
<feBlend mode="normal" in="SourceGraphic" in2="effect1_dropShadow_167_21" result="shape"/>
</filter>
<clipPath id="clip0_167_21">
<rect width="1054" height="1123" fill="white"/>
</clipPath>
</defs>
</svg>
